<svg version="1.2" xmlns="http://www.w3.org/2000/svg" viewBox="0 0 1500 1000">
    <title>8614997-ai</title>
    <style>
        .s0 { fill: #ff6347 }
        .s1 { opacity: .7;fill: #ffffff }
        .s2 { fill: none;stroke: #263238;stroke-miterlimit:10;stroke-width: 2 }
        .s3 { fill: #263238 }
        .s4 { fill: none;stroke: #263238;stroke-linecap: round;stroke-linejoin: round;stroke-width:
        12 }
        .s5 { fill: #263238;stroke: #263238;stroke-miterlimit:10;stroke-width: 2 }
        .s6 { fill: #828282;stroke: #263238;stroke-miterlimit:10;stroke-width: 2 }
        .s7 { fill: none;stroke: #263238;stroke-linecap: round;stroke-linejoin: round;stroke-width:
        8 }
        .s8 { fill: #ffffff;stroke: #263238;stroke-miterlimit:10;stroke-width: 2 }
        .s9 { fill: #616161;stroke: #263238;stroke-miterlimit:10;stroke-width: 2 }
        .s10 { fill: #e0e0e0;stroke: #263238;stroke-miterlimit:10;stroke-width: 2 }
        .s11 { fill: #ff6347;stroke: #263238;stroke-miterlimit:10;stroke-width: 2 }
        .s12 { fill: #b3b3b3;stroke: #263238;stroke-miterlimit:10;stroke-width: 2 }
    </style>
    <g id="Background Simple">
        <g id="&lt;Group&gt;">
            <path id="&lt;Path&gt;" class="s0"
                d="m1470.2 436.5c-5.5-83.4-56.2-162.9-130.6-223.5-43.6-35.5-95.5-66.2-151.7-89.9-58.3-24.5-121.8-52-190.9-54.9-17.1-0.7-34.5 0.2-51.2 4-63.7 14.8 65.7 59.6 82.7 66.2-180.3-49.2-366.9-99-561.1-89.8-37.5 1.8-76.2 6.2-108.5 21.4-32.4 15.2-56.6 43.7-50.5 71.3 5.1 22.8 28.5 47.9 8.5 66.2-5.8 5.3-14.1 8.5-22.2 11.3-42 14.4-87.6 22.4-127.1 40.4-61.2 27.9-101.6 77.7-119 129.4-17.5 51.8-14.1 105.7-4 157.8 19 97.9 63 194.6 146.7 269.3 119.6 106.7 310 158.3 498.7 163.4 228.2 6.2 472.6-57.2 617.2-194.8 21.4-20.5 40.9-43 47.9-68.2 7-25.2-0.7-53.5-26.5-69.4-6.9-4.3-15.8-8.8-15.4-15.7 0.6-9.3 16.5-12.8 28.6-15 79.6-14.5 122.4-83.2 128-144.3 1-11.8 1.1-23.5 0.4-35.2z" />
            <path id="&lt;Path&gt;" class="s1"
                d="m1470.2 436.5c-5.5-83.4-56.2-162.9-130.6-223.5-43.6-35.5-95.5-66.2-151.7-89.9-58.3-24.5-121.8-52-190.9-54.9-17.1-0.7-34.5 0.2-51.2 4-63.7 14.8 65.7 59.6 82.7 66.2-180.3-49.2-366.9-99-561.1-89.8-37.5 1.8-76.2 6.2-108.5 21.4-32.4 15.2-56.6 43.7-50.5 71.3 5.1 22.8 28.5 47.9 8.5 66.2-5.8 5.3-14.1 8.5-22.2 11.3-42 14.4-87.6 22.4-127.1 40.4-61.2 27.9-101.6 77.7-119 129.4-17.5 51.8-14.1 105.7-4 157.8 19 97.9 63 194.6 146.7 269.3 119.6 106.7 310 158.3 498.7 163.4 228.2 6.2 472.6-57.2 617.2-194.8 21.4-20.5 40.9-43 47.9-68.2 7-25.2-0.7-53.5-26.5-69.4-6.9-4.3-15.8-8.8-15.4-15.7 0.6-9.3 16.5-12.8 28.6-15 79.6-14.5 122.4-83.2 128-144.3 1-11.8 1.1-23.5 0.4-35.2z" />
        </g>
    </g>
    <g id="Warehouse">
        <g id="&lt;Group&gt;">
            <g id="&lt;Group&gt;">
                <path id="&lt;Path&gt;" class="s2" d="m1152 231.8v-121.1" />
                <g id="&lt;Group&gt;">
                    <path id="&lt;Path&gt;" class="s2" d="m983.6 164v749.3" />
                    <path id="&lt;Path&gt;" class="s2" d="m983.6 103.2v39.5" />
                </g>
                <path id="&lt;Path&gt;" class="s2" d="m1152 823.9v-578.6" />
                <g id="&lt;Group&gt;">
                    <path id="&lt;Path&gt;" class="s2"
                        d="m1383.4 650.7v-208.6h-132.6v381.8h132.6v-157.7" />
                    <path id="&lt;Path&gt;" class="s2"
                        d="m1269.8 538.6v-83.1h93.4v175.3h-93.4v-78.1" />
                    <path id="&lt;Path&gt;" class="s2" d="m1284 650h-25v-8.4h25z" />
                </g>
                <g id="&lt;Group&gt;">
                    <g id="&lt;Group&gt;">
                        <path id="&lt;Path&gt;" class="s2" d="m1021.7 890.2h291.7v22h-291.7z" />
                        <path id="&lt;Path&gt;" class="s2" d="m1059.8 868.2h291.6v22h-291.6z" />
                        <path id="&lt;Path&gt;" class="s2" d="m1097.8 846.2h291.7v22h-291.7z" />
                        <path id="&lt;Path&gt;" class="s2" d="m1135.9 824.2h291.6v22h-291.6z" />
                        <path id="&lt;Path&gt;" class="s2"
                            d="m1454.4 912.3l-0.5-88.1h-26.4v22h-38v22h-38.1v22h-38l0.5 22.1z" />
                    </g>
                    <g id="&lt;Group&gt;">
                        <path id="&lt;Path&gt;" class="s3"
                            d="m1456.6 718.6h-40.5l-0.7 0.5q0 0 0 0l-115 79.3v113.6q0 0.4 0.1 0.8h5.8q0.1-0.4 0.1-0.8v-110.4l54.7-37.7v102.9q0 0.8 0.3 1.5h5.3q0.3-0.7 0.4-1.5v-106.6q0-0.2-0.1-0.4l47.1-32.5v95.5c0 0.6 0.2 1.1 0.5 1.6h5c0.3-0.5 0.5-1 0.5-1.6v-98.2h36.5c1.6 0 3-1.3 3-3 0-1.7-1.4-3-3-3z" />
                        <path id="&lt;Path&gt;" class="s3"
                            d="m1032.1 912.8q0.1-0.4 0.1-0.8v-110.4l54.7-37.7v102.9q0 0.8 0.4 1.5h5.2q0.4-0.7 0.4-1.5v-106.6q0-0.2 0-0.4l47-32.5v95.5c0 0.6 0.2 1.1 0.5 1.6h5c0.3-0.5 0.5-1 0.5-1.6v-98.2h36.5c1.7 0 3-1.3 3-3 0-1.7-1.3-3-3-3h-40.4l-0.8 0.5q0 0 0 0l-115 79.3v113.6q0 0.4 0.2 0.8z" />
                    </g>
                </g>
                <g id="&lt;Group&gt;">
                    <path id="&lt;Path&gt;" class="s2" d="m76.8 564.7v211.2h432.9v-418.3" />
                    <path id="&lt;Path&gt;" class="s2" d="m509.7 328.6v-152.8h-432.9v359.9" />
                </g>
                <path id="&lt;Path&gt;" class="s2"
                    d="m1396.7 421.5h-161c-3 0-5.5-2.5-5.5-5.5v-3.3c0-3 2.5-5.4 5.5-5.4h161c3 0 5.4 2.4 5.4 5.4v3.3c0 3-2.4 5.5-5.4 5.5z" />
            </g>
            <g id="&lt;Group&gt;">
                <path id="&lt;Path&gt;" class="s2" d="m47.5 775.9h566.9v133.9" />
                <path id="&lt;Path&gt;" class="s2" d="m97.3 776.2v135.3" />
            </g>
        </g>
    </g>
    <g id="Pushcart">
        <g id="&lt;Group&gt;">
            <g id="&lt;Group&gt;">
                <path id="&lt;Path&gt;" class="s4" d="m149.3 612.3c0 0 14.6-0.7 21.9 6.6" />
                <g id="&lt;Group&gt;">
                    <path id="&lt;Path&gt;" class="s5"
                        d="m295.4 878.3c0-6 0.7-11.6 2-16.5v-18.6h15.9c9.8 0 17.8 15.7 17.8 35.1 0 19.3-8 35-17.8 35h-15.9v-18.6c-1.3-4.9-2-10.5-2-16.4z" />
                    <path id="&lt;Path&gt;" class="s5"
                        d="m279.5 878.3c0 19.3 8.1 35 17.9 35 9.9 0 17.9-15.7 17.9-35 0-19.4-8-35.1-17.9-35.1-9.8 0-17.9 15.7-17.9 35.1z" />
                    <path id="&lt;Path&gt;" class="s6"
                        d="m284.8 878.5c0 13.3 5 24.1 11.2 24.1 6.1 0 11.1-10.8 11.1-24.1 0-13.4-5-24.2-11.1-24.2-6.2 0-11.2 10.8-11.2 24.2z" />
                </g>
                <path id="&lt;Path&gt;" class="s7"
                    d="m171.2 618.9c2.4 2.4 4.1 5.8 4.1 10.3v252.4c0 6.6 5.3 11.9 11.9 11.9h160" />
                <path id="&lt;Path&gt;" class="s4" d="m272.9 612.3c0 0 14.6-0.7 22 6.6" />
                <path id="&lt;Path&gt;" class="s7" d="m294.9 618.9c2.4 2.4 4 5.8 4 10.3v263.3" />
                <path id="&lt;Path&gt;" class="s7" d="m176.7 679.2h123.3" />
                <path id="&lt;Path&gt;" class="s7" d="m240.1 678.7v213.3" />
                <path id="&lt;Path&gt;" class="s7" d="m157.3 861.8l18.2-35.7" />
                <path id="&lt;Path&gt;" class="s7" d="m175.2 878.2h-17.2" />
                <g id="&lt;Group&gt;">
                    <path id="&lt;Path&gt;" class="s5"
                        d="m128.1 878.3c0-6 0.7-11.6 2.1-16.5v-18.6h15.8c9.9 0 17.9 15.7 17.9 35.1 0 19.3-8 35-17.9 35h-15.8v-18.6c-1.4-4.9-2.1-10.5-2.1-16.4z" />
                    <path id="&lt;Path&gt;" class="s5"
                        d="m112.3 878.3c0 19.3 8 35 17.9 35 9.8 0 17.9-15.7 17.9-35 0-19.4-8.1-35.1-17.9-35.1-9.9 0-17.9 15.7-17.9 35.1z" />
                    <path id="&lt;Path&gt;" class="s8"
                        d="m117.6 878.5c0 13.3 4.9 24.1 11.1 24.1 6.2 0 11.1-10.8 11.1-24.1 0-13.4-4.9-24.2-11.1-24.2-6.2 0-11.1 10.8-11.1 24.2z" />
                </g>
            </g>
        </g>
    </g>
    <g id="Van">
        <g id="&lt;Group&gt;">
            <g id="&lt;Group&gt;">
                <path id="&lt;Path&gt;" class="s5"
                    d="m933.1 854.5l121.4 4.4 167.1-1.6 64.2-3.2c0 0 13.1-35.2 8-54.1-5.1-18.9-11.6-26.9-26.2-26.9-14.5 0-39.4 11.8-40.4 20.4-1 8.7-8.3 18.5-8.3 18.5h-173.1c0 0-6.5-37.5-29.8-50.6-23.3-13.1-53.8-12.3-69.8 0-16 12.4-13.1 93.1-13.1 93.1z" />
                <path id="&lt;Path&gt;" class="s5"
                    d="m1257.7 853.4c0-10.1-1.2-19.6-3.5-28v-31.9h-27c-16.9 0-30.6 26.9-30.6 59.9 0 33.1 13.7 59.9 30.6 59.9h27v-31.8c2.3-8.4 3.5-17.9 3.5-28.1z" />
                <path id="&lt;Path&gt;" class="s9"
                    d="m1284.8 853.4c0 33.1-13.7 59.9-30.6 59.9-16.9 0-30.6-26.8-30.6-59.9 0-33 13.7-59.9 30.6-59.9 16.9 0 30.6 26.9 30.6 59.9z" />
                <path id="&lt;Path&gt;" class="s10"
                    d="m1275.7 853.8c0 22.8-8.5 41.2-19 41.2-10.5 0-19.1-18.4-19.1-41.2 0-22.8 8.6-41.3 19.1-41.3 10.5 0 19 18.5 19 41.3z" />
            </g>
            <path id="&lt;Path&gt;" class="s5"
                d="m1015.9 793.5h-27c-16.9 0-30.6 26.9-30.6 59.9 0 33.1 13.7 59.9 30.6 59.9h27c16.9 0 30.6-26.8 30.6-59.9 0-33-13.7-59.9-30.6-59.9z" />
            <path id="&lt;Path&gt;" class="s5"
                d="m709.9 793.5h-29.3c-18.4 0-33.3 26.9-33.3 59.9 0 33.1 14.9 59.9 33.3 59.9h29.3c18.4 0 33.3-26.8 33.3-59.9 0-33-14.9-59.9-33.3-59.9z" />
            <g id="&lt;Group&gt;">
                <path id="&lt;Path&gt;" class="s5"
                    d="m995.3 843.7c0-11.8-1.5-22.8-4.1-32.6v-37h-31.4c-19.6 0-35.5 31.2-35.5 69.6 0 38.5 15.9 69.6 35.5 69.6h31.4v-37c2.6-9.7 4.1-20.8 4.1-32.6z" />
                <path id="&lt;Path&gt;" class="s9"
                    d="m1026.7 843.7c0 38.5-15.9 69.6-35.5 69.6-19.6 0-35.5-31.1-35.5-69.6 0-38.4 15.9-69.6 35.5-69.6 19.6 0 35.5 31.2 35.5 69.6z" />
                <path id="&lt;Path&gt;" class="s10"
                    d="m1016.2 844.1c0 26.5-9.9 48-22.1 48-12.2 0-22.1-21.5-22.1-48 0-26.5 9.9-48 22.1-48 12.2 0 22.1 21.5 22.1 48z" />
            </g>
            <path id="&lt;Path&gt;" class="s8"
                d="m1289.8 751.6c-5.6-17.7-125.2-264.7-134.4-274.6-9.2-9.9-180.5-63-180.5-63 0 0-78.5-23.3-104-24.7-25.5-1.5-244.1 16.9-248.4 18.4-4.2 1.4-32.5 89.1-40.3 127.3-7.8 38.2-11.3 116.1-11.3 192.5 0 76.4 10.6 132.3 22.6 132.3 12.1 0 326.2 9.2 331.2 9.2 5 0 12-5.6 24.8-22.6 12.7-17 23.3-67.9 37.5-74.3 14.1-6.4 29.7-2.8 37.5 14.9 7.8 17.6 5.6 72.8 5.6 72.8 0 0 115.2-0.6 191.5-2.5 2.8-7.7 10.5-28.1 20.1-51.4 12.1-29.5 32.5-26.5 41.6-18.9 8.2 6.8 7.2 43.8 2.5 67.1 1.1-0.2 1.8-0.4 1.9-0.6 3.6-5 7.1-18.4 9.9-36.1 2.9-17.7-2.1-48.1-7.8-65.8z" />
            <path id="&lt;Path&gt;" class="s10"
                d="m1030.1 859.8c0 0 115.2-0.6 191.5-2.5 2.8-7.7 10.5-28.1 20.1-51.4 12.1-29.5 32.5-26.5 41.6-18.9 8.2 6.8 7.2 43.8 2.5 67.1 1.1-0.2 1.8-0.4 1.9-0.6 3.6-5 7.1-18.4 9.9-36.1 2.9-17.7-2.1-48.1-7.8-65.8-5.6-17.7-125.2-264.7-134.4-274.6-9.2-9.9-180.5-63-180.5-63 0 0-78.5-23.3-104-24.7-0.1 0-0.3-0.1-0.5-0.1l1 4.5c0 0 21.2 40.9 17.1 474.4 21.4 0.6 35.2 0.9 36.2 0.9 5 0 12-5.6 24.8-22.6 12.7-17 23.3-67.9 37.5-74.3 14.1-6.4 29.7-2.8 37.5 14.9 7.8 17.6 5.6 72.8 5.6 72.8z" />
            <path id="&lt;Path&gt;" class="s5"
                d="m1287.4 795.2c3.5 14 2.1 40.6-1.6 58.9 1.1-0.2 1.8-0.4 1.9-0.6 3.6-5 7.1-18.4 9.9-36.1 1.9-11.6 0.4-28.7-2.5-44.1-0.3 7.6-2.1 16.4-7.7 21.9z" />
            <path id="&lt;Path&gt;" class="s5"
                d="m985 773.3h-412.7c3.2 52 11.8 86.5 21.2 86.5 12.1 0 326.2 9.2 331.2 9.2 5 0 12-5.6 24.8-22.6 12.1-16.2 22.3-63.1 35.5-73.1z" />
            <path id="&lt;Path&gt;" class="s2"
                d="m715.7 402.8v1c0 3.4 2.9 6.1 6.3 5.8l40.3-3.4c3.1-0.2 5.4-2.7 5.4-5.8v-1c0-3.4-2.9-6-6.3-5.8l-40.4 3.4c-3 0.3-5.3 2.8-5.3 5.8z" />
            <g id="&lt;Group&gt;">
                <path id="&lt;Path&gt;" class="s8"
                    d="m871.4 393.7c0 0 9.3 193.7 9.3 219.9 0 26.2 2.7 221 2.7 221l103.7 1.1c0 0 8.7-61.1 8.7-124.9 0-63.9-9.8-216.7-15.3-261.4-5.4-44.8-12.5-78.6-12.5-78.6z" />
                <path id="&lt;Path&gt;" class="s5"
                    d="m891.1 654.6l76.4-3.3c0 0 3.8 58.4 0 99.9-3.9 41.4-5.5 51.8-7.7 54-2.2 2.2-68.7 0-68.7 0 0 0-4.4-4.4-4.4-11.5 0-7.1-1.6-129.3-1.6-133.1 0-3.9 2.1-4.4 6-6z" />
                <path id="&lt;Path&gt;" class="s2"
                    d="m881.2 427.6l2.2 24.5 75.9-11.4c0 0-0.6-6.6-5.5-17-4.9-10.3-11.5-13.6-11.5-13.6l-55.6 12.5" />
                <path id="&lt;Path&gt;" class="s2"
                    d="m952.2 381.2c0 0 12.5 33.3 22.3 123.3 9.9 90 13.7 273.4 6 310.5 0 0 0 6-6 10.4-6 4.3-84 2.7-84 2.7" />
                <path id="&lt;Path&gt;" class="s2"
                    d="m955.4 463c0 0 3.3-9.8 10.4 61.7 7.1 71.5 7.7 98.2 4.4 100.4-3.3 2.2-73.1 6-73.1 6" />
                <path id="&lt;Path&gt;" class="s2"
                    d="m934.2 462.5c0 0-43.7 4.9-47 8.7-3.2 3.8 3.9 34.9 5.5 85.7 1.6 50.7 1.6 62.7 1.6 62.7" />
                <path id="&lt;Path&gt;" class="s2"
                    d="m954.4 477.2l-54.6 8.7c0 0-5.5 1.7-4.4 7.7 1.1 6 8.2 83.5 6.6 123.3" />
            </g>
            <path id="&lt;Path&gt;" class="s2" d="m548.4 553.1v193.2" />
            <g id="&lt;Group&gt;">
                <path id="&lt;Path&gt;" class="s8"
                    d="m556.8 531.1l0.4-24.8c0 0-17.3-88.7-18.6-90.4-1.2-1.6-142.8-2.9-144.4-2-1.7 0.8-0.4 9.5-0.4 9.5 0 0 1.6 28.4 2.9 119.7 1.2 91.2-0.5 277.7-0.5 277.7l158.1 1.3c0 0-1.6-12.4 0.9-53.3 2.4-40.8 2.8-228.2 2.8-229.9 0-1.6 0-5.3 0-5.3z" />
                <path id="&lt;Path&gt;" class="s2"
                    d="m401.7 420.2c0 0 120.9 1.8 124.2 2.5 3.2 0.8 5.4 7.3 6.5 10.9 1.1 3.7 16.4 70.1 17.4 79.9" />
                <path id="&lt;Path&gt;" class="s2"
                    d="m548.4 772.1c0 0 0.7 24-1.8 29.1-2.6 5.1-5.5 6.5-9.5 7.3-4 0.7-136.9-1.5-136.9-1.5" />
                <path id="&lt;Path&gt;" class="s5"
                    d="m411.1 660.6l-1.8 132.6 129.7 1.8c0 0 2.9-131.5 2.5-133.3-0.4-1.8-0.4-3.6-7.6-4.3-7.3-0.8-115.5-1.8-117.3-1.8-1.9 0-4.8 2.1-5.5 5z" />
                <path id="&lt;Path&gt;" class="s2"
                    d="m422 446.7c0 0-12 16.7-13.1 20.7-1.1 4 0 6.9 2.9 7.3 2.9 0.3 112.6 0 112.6 0 0 0 4-0.7 3.7-6.9" />
                <path id="&lt;Path&gt;" class="s2" d="m429.3 445.6h90c0 0 2.9 0 4.8 7.7" />
                <path id="&lt;Path&gt;" class="s2"
                    d="m437.3 499.7c0 0-8.8 2.9-9.1 10.9-0.4 8 1.8 116.3 1.8 116.3" />
                <path id="&lt;Path&gt;" class="s2"
                    d="m451.1 499.4c0 0 68.2 1.8 72.6 2.5 4.4 0.7 8.4 5.5 9.4 9.1 1.1 3.6 1.1 110.4 1.1 110.4" />
                <path id="&lt;Path&gt;" class="s2"
                    d="m441.6 491.4c0 0-14.5-0.4-21 3.6-6.6 4-5.5 14.6-5.1 18.5 0.3 4 1.4 111.5 1.4 111.5 0 0 0 4.4 5.8 4.8 5.8 0.3 102.8 0.3 102.8 0.3 0 0 4 0 6.2-3.2" />
                <path id="&lt;Path&gt;" class="s2"
                    d="m455.8 489.9c0 0 67.2 1.9 73.3 4.8 6.2 2.9 5.1 8.3 5.5 10.9" />
            </g>
            <g id="&lt;Group&gt;">
                <path id="&lt;Path&gt;" class="s2" d="m584.9 543.5h-31.8v-11.2h31.8z" />
                <path id="&lt;Path&gt;" class="s2" d="m573.3 547.6h-10.7v-18.6h10.7z" />
            </g>
            <g id="&lt;Group&gt;">
                <path id="&lt;Path&gt;" class="s2" d="m582 765.1h-31.8v-11.1h31.8z" />
                <path id="&lt;Path&gt;" class="s2" d="m570.4 769.3h-10.7v-18.6h10.7z" />
            </g>
            <path id="&lt;Path&gt;" class="s8"
                d="m871.2 409.3l-240.7 18.3c0 0-20.8 104.8-20.8 106.6 0 1.9-6.7 170.1-4.2 211 2.4 40.8 3 74.9 3 74.9l273.1 8z" />
            <g id="&lt;Group&gt;">
                <path id="&lt;Path&gt;" class="s5"
                    d="m871.2 409.3l-240.7 18.3c0 0-20.8 104.8-20.8 106.6 0 1.9-6.7 170.1-4.2 211 2.4 40.8 3 74.9 3 74.9l273.1 8z" />
                <path id="&lt;Path&gt;" class="s11" d="m792.5 825.5v-129.3h-53.2v127.7z" />
                <path id="&lt;Path&gt;" class="s11" d="m630.4 820.8l108.9 3.1v-127.7h-108.9z" />
                <path id="&lt;Path&gt;" class="s8" d="m673.5 696.2h22.8v60.9h-22.8z" />
            </g>
            <g id="&lt;Group&gt;">
                <path id="&lt;Path&gt;" class="s11"
                    d="m850.7 827.2h30.9l-0.5-18.1-2.8-112.9h-130.7v128z" />
                <path id="&lt;Path&gt;" class="s11" d="m850.7 827.2h5.8v-131h-108.9v128z" />
                <path id="&lt;Path&gt;" class="s8" d="m796.5 754.8h-36.6v-24.6h36.6z" />
                <path id="&lt;Path&gt;" class="s8" d="m790.7 696.2h22.7v19.6h-22.7z" />
            </g>
            <path id="&lt;Path&gt;" class="s5"
                d="m1041.6 802.9c0 0 0.8 23.5 1.5 29.5 0.8 6.1 6.1 9.1 12.9 7.6 6.8-1.5 152.3 2.3 152.3 2.3 0 0 6.8-1.5 7.6-9.9 0.8-8.3 3-20.4 3-20.4z" />
            <g id="&lt;Group&gt;">
                <path id="&lt;Path&gt;" class="s12"
                    d="m1177.1 579.2c0 0 11 89.1 16.1 100.1 5.2 11 9.1 15.3 15 17.7 5.9 2.4 39.2 12.2 43.2 12.6 3.9 0.4 5.9-1.6 4.7-6.3-1.2-4.7-46.8-108.4-50.7-114.7-3.9-6.3-16.9-11.4-21.6-12.9-4.7-1.6-6.7 3.5-6.7 3.5z" />
                <path id="&lt;Path&gt;" class="s2" d="m1200 584.1l20.6 114.4" />
            </g>
            <g id="&lt;Group&gt;">
                <path id="&lt;Path&gt;" class="s12"
                    d="m1248.6 660.5c0 0 1.2 42 2 45.5 0.8 3.6 3.9 5.1 7.8 4.7 4-0.3 16.9-1.9 18.5-5.8 1.6-4-0.8-33.8-5.5-40.9-4.7-7.1-14.1-9.4-18.1-9.8-3.9-0.4-4.7 6.3-4.7 6.3z" />
                <path id="&lt;Path&gt;" class="s5"
                    d="m1250.6 706c0.8 3.6 3.9 5.1 7.8 4.7 4-0.3 16.9-1.9 18.5-5.8 1.6-4-0.8-33.8-5.5-40.9-2-2.9-4.7-5-7.6-6.5l0.9 2.2 2.8 38.5h-17.5c0.2 4 0.4 7 0.6 7.8z" />
            </g>
            <path id="&lt;Path&gt;" class="s2" d="m1003.6 713.6l262.3 30.3" />
            <path id="&lt;Path&gt;" class="s2" d="m1006.1 723.1l230.2 24.6 18.3-1.3" />
            <path id="&lt;Path&gt;" class="s2" d="m1234.4 764c0 0-8.8 34.7-12.6 42.9" />
            <path id="&lt;Path&gt;" class="s2" d="m1007.4 740.1c0 0 18.9 10.1 29 46.6" />
            <path id="&lt;Path&gt;" class="s2" d="m997.9 532l167.8 38.4" />
            <path id="&lt;Path&gt;" class="s2" d="m1000.4 521.3c0 0 174.7 39.7 189.2 47.3" />
            <path id="&lt;Path&gt;" class="s5"
                d="m1194.2 729.3c-2.1-0.6-3.8-2.8-3.8-4.8v-26.1c0-2.1 1.7-3.3 3.8-2.7 2 0.6 3.7 2.8 3.7 4.9v26.1c0 2-1.7 3.2-3.7 2.6z" />
            <path id="&lt;Path&gt;" class="s5"
                d="m1165.1 726.3c-2.1-0.6-3.7-2.7-3.7-4.8v-26.1c0-2.1 1.6-3.2 3.7-2.6 2 0.6 3.7 2.7 3.7 4.8v26.1c0 2-1.7 3.2-3.7 2.6z" />
            <g id="&lt;Group&gt;">
                <g id="&lt;Group&gt;">
                    <path id="&lt;Path&gt;" class="s11" d="m656.9 595h140.6v102.1h-140.6z" />
                </g>
                <path id="&lt;Path&gt;" class="s11" d="m656.9 595h84.8v102.1h-84.8z" />
                <path id="&lt;Path&gt;" class="s8" d="m690.5 595h17.7v47.5h-17.7z" />
            </g>
            <g id="&lt;Group&gt;">
                <path id="&lt;Path&gt;" class="s11" d="m873.3 493.4h-96.6v102.1h99.1z" />
                <path id="&lt;Path&gt;" class="s11" d="m776.7 493.4h84.8v102.1h-84.8z" />
                <path id="&lt;Path&gt;" class="s8" d="m855.2 575.4h-36.5v-24.7h36.5z" />
                <path id="&lt;Path&gt;" class="s8" d="m810.2 493.4h17.7v47.5h-17.7z" />
            </g>
            <g id="&lt;Group&gt;">
                <path id="&lt;Path&gt;" class="s11" d="m875.8 595h-110.9v102.1h113.5z" />
                <path id="&lt;Path&gt;" class="s11" d="m764.9 595h84.8v102.1h-84.8z" />
                <path id="&lt;Path&gt;" class="s8" d="m798.4 595h17.8v47.5h-17.8z" />
            </g>
        </g>
    </g>
    <g id="Character">
        <g id="&lt;Group&gt;">
            <g id="&lt;Group&gt;">
                <g id="&lt;Group&gt;">
                    <path id="&lt;Path&gt;" class="s11" d="m638 487.1h130.3v94.6h-130.3z" />
                </g>
                <path id="&lt;Path&gt;" class="s11" d="m638 487.1h78.5v94.6h-78.5z" />
                <path id="&lt;Path&gt;" class="s8" d="m669 487.1h16.5v44h-16.5z" />
            </g>
            <g id="&lt;Group&gt;">
                <g id="&lt;Group&gt;">
                    <path id="&lt;Path&gt;" class="s8"
                        d="m559.3 485.8c0 0-1.2 3.9 0.8 9.2 1.9 5.2 5 14.3 6.9 17.2 1.9 2.9 1.4 7 1.4 7l26.9 12.4c0 0 0.5-10 1.4-10.5 1-0.5 8.4-0.5 10.1-3.1 1.7-2.7-0.2-15.9-0.2-15.9 0 0 1.4-1.4 1.6-2.8 0.3-1.5-3.6-4.8-3.1-7.5 0.5-2.6 1.7-5.5-0.2-9.3-1.9-3.8-7.6-13.1-16.5-16-8.8-2.9-18.4 0.5-22.2 4.5-3.8 4.1-7.1 8.9-6.9 14.8z" />
                    <path id="&lt;Path&gt;" class="s5"
                        d="m599.2 488.6c0.6-1 1.9-4 1.9-6 0-2.1-2.8-2.4-7.3-0.6-3.6 1.4-25.5 9.1-33.8 12.9q0 0 0.1 0.1c1.8 5 4.8 13.7 6.7 16.9 0.7 0.8 1.3 1.5 1.7 1.7 2.2 1.2 8.3-1.2 10.5-4.5 1.8-2.7 2.6-10.8 2.8-13.5 0-0.6 0-0.9 0-0.9 0.9-2.2 4.2-2.4 6.5-1.1 2.3 1.2 4.5 1.3 6 0.8 1.6-0.6 2-2.2 2-3.2 0-0.9 2.2-1.6 2.9-2.6z" />
                    <path id="&lt;Path&gt;" class="s8"
                        d="m590.5 495.8c0 0-3.3-4.9-6.2-0.9-2.9 4 1.9 9.5 3.9 10.5 1.9 0.9 2.7-0.2 3.3-1.7" />
                    <path id="&lt;Path&gt;" class="s11"
                        d="m588.4 466.5c-8.8-2.9-18.4 0.5-22.2 4.5-3.8 4.1-7.1 8.9-6.9 14.8 0 0-1.2 3.9 0.8 9.2 0.5 1.4 1.1 3.2 1.8 5.1h0.2c0 0 8.1 1.8 17-2.6 8.9-4.4 23.4-12.3 24.7-14.9q0.3-0.4 0.8-0.7c-2.2-4.1-7.7-12.7-16.2-15.4z" />
                    <path id="&lt;Path&gt;" class="s11"
                        d="m598.3 487.4c0 0 10.7 0.2 16.5-2.6 5.8-2.9 4.8-8.3 3.7-8.7-1.1-0.4-16.3 1.5-16.3 1.5 0 0 1.2 6.1-3.9 9.8z" />
                    <path id="&lt;Path&gt;" class="s3"
                        d="m603.8 493.8c0 1.2-0.4 2.2-0.9 2.2-0.5 0-0.9-1-0.9-2.2 0-1.3 0.4-2.3 0.9-2.3 0.5 0 0.9 1 0.9 2.3z" />
                </g>
                <path id="&lt;Path&gt;" class="s5"
                    d="m599.7 536.8c0 0-4.1-6.9-8.7-10.6-4.7-3.7-16.7-8.1-21.4-8.5-4.6-0.4-3.3 2.1-3.8 4.8-0.6 2.7-1.2 3.7 0.4 4.1 1.5 0.4 8.9 1.7 18.4 6.2 9.5 4.4 14.3 7.1 15.3 6.6 0.9-0.6-0.2-2.6-0.2-2.6z" />
                <path id="&lt;Path&gt;" class="s8"
                    d="m582.5 886.2c0 0 6.8 11.1 10.6 13.3 3.8 2.1 11.1 4.6 11.6 8.6 0.6 4.1-4.3 3.8-6.7 3.8-2.5 0-18.4 0.6-21.1-0.5-2.8-1.1-9.3-6-16.6-10-7.3-4.1-13.8-4.6-13.8-11.4 0-6.8 6.3-8.1 7.3-9.2 1.1-1.1 28.7 5.4 28.7 5.4z" />
                <path id="&lt;Path&gt;" class="s11"
                    d="m557.1 697.3c0 0 6.8 63.9 7 67.1 0.3 3.2-4.3 14.9-6.2 25.2-1.9 10.3-4.3 38.7-4.3 38.7l0.8 56c0 0 16.2 3.8 18.7 3.5 2.4-0.2 8.6-1.3 9.4-1.6 0.8-0.3 5.4-1.9 5.4-1.9 0 0-1-18.7-1-24.6 0-6 3.8-44.1 4.6-47.9 0.8-3.8 10.3-59.6 11.6-89.1 1.4-29.5-3.5-54.1-3.5-54.1l-46.6 2.4z" />
                <path id="&lt;Path&gt;" class="s8"
                    d="m568.7 887.3c0 0 4.1 9.7 6 11.4 1.9 1.6 13.8 6.2 14.3 8.3 0.6 2.2-1.6 4.1-4.6 4.9-2.9 0.8-24.3 0.8-28.7-1.3-4.3-2.2-17.8-12.2-21.6-13.8-3.8-1.7-10-3.8-8.4-10.6 1.6-6.8 9.7-11.9 9.7-11.9z" />
                <path id="&lt;Path&gt;" class="s11"
                    d="m549.2 666.1c0 0-2.7 13.3 1.4 23.6 4.1 10.3 15.4 24.1 17.3 26.8 1.9 2.7-0.5 34.1-1.9 46.3-1.3 12.2-3.5 32.7-3.5 33.5 0 0.9-11.6 30.6-16.5 44.4-4.9 13.8-13 33.6-13 33.6 0 0 10.8 8.1 16.2 9.7 5.5 1.7 19.5 3.3 19.5 3.3 0 0 1.4-6.5 2.7-9.2 1.4-2.7-0.2-3.8 1.4-11.1 1.6-7.3 19.7-46.3 26.5-57.4 6.8-11.1 10.8-31.4 13.5-41.4 2.8-10 2.8-50.9 3.3-65 0.5-14-4.1-30-4.1-30l-1.3-5.2z" />
                <path id="&lt;Path&gt;" class="s2" d="m593.9 746q-0.7 5.9-1.7 12.3" />
                <path id="&lt;Path&gt;" class="s2"
                    d="m590.4 672.2c0 0-1.9 3-1.2 8 0.6 4.9 4.9 6.7 7.3 9.8 2.5 3.1-2.4 4.3-3.7 8-1.2 3.7 2.5 6.8 2.5 9.2 0 1.7 0.6 12.7-0.5 28.2" />
                <path id="&lt;Path&gt;" class="s5"
                    d="m547.3 656.4c0 0-2.1 10.6-0.2 11.6 1.9 1.1 61.7 0.3 63.6 0 1.9-0.2 3-0.5 3.2-2.9 0.3-2.5-1.1-9-1.1-9z" />
                <path id="&lt;Path&gt;" class="s11"
                    d="m566.2 526.6c0 0-18.3 11-22.7 25.4-4.5 14.3 1.7 78.1 1.7 78.1 0 0-5.1 22.1-0.3 26.5 4.7 4.4 65.5 3.4 68.2 1.4 2.8-2.1 4.8-6.1 4.8-10.6 0-4.4 1.3-43.1 1.3-64.8 0-21.7-10.3-35.7-14.9-40.7-4.6-5.1-7.8-5.8-7.8-5.8 0 0-24.4-9.5-30.3-9.5z" />
                <path id="&lt;Path&gt;" class="s2" d="m554.5 573.5c1.1 2.3 2.6 4.9 4.5 7.6" />
                <path id="&lt;Path&gt;" class="s2" d="m552.8 550.9c0 0-3.7 3.7-2.1 12.3" />
                <path id="&lt;Path&gt;" class="s11"
                    d="m595.8 542.3c0 0 11.3-2.3 18.9 1.7 7.6 4 19.9 16.2 23.1 17.8 3.3 1.6 9 7.3 13.8 8.5 4.7 1.3 12.5 3.9 12.5 3.9 0 0 23-1.6 25.7-1.8 2.6-0.3 21.7 0.1 21.7 0.1 0 0 1.1 3.4 1.4 7.5 0.3 4 0 6.8 0 6.8 0 0-7 4.1-8.8 4.5-1.9 0.4-18.4 4.7-32.7 9.2-14.3 4.4-36.5 0.9-51.5-3-15-3.8-49.9-18.3-51.7-19.1" />
                <path id="&lt;Path&gt;" class="s2" d="m641 588.3c-3.1 0.9-6.3 1.6-9.4 2" />
                <path id="&lt;Path&gt;" class="s2" d="m663.6 578c0 0-7.1 4.5-16.4 8.1" />
                <path id="&lt;Path&gt;" class="s2" d="m598.5 589c0 0-11.1 21.1-24.6 30.6" />
                <path id="&lt;Path&gt;" class="s2" d="m583.6 623.6c-2.7 3.2-5.6 6.1-8.4 8.4" />
                <path id="&lt;Path&gt;" class="s2" d="m599 603.1c0 0-4.8 7.5-11.1 15.5" />
                <g id="&lt;Group&gt;">
                    <path id="&lt;Path&gt;" class="s8"
                        d="m711.5 572.5c0 0 4.2-4.7 7-7.2 2.8-2.5 6.2-4 7.9-5.1 1.6-1.2 2.7-6.5 5.1-4.7 2.4 1.8 1.8 3.6 0.9 5.2-0.9 1.5-2.9 4.7-3.5 6-0.6 1.3-0.6 1.3-0.6 1.3 0 0 6.9 1.7 9.9 1.7 3 0 11.3 0.3 11.6 1.8 0.4 1.5-0.7 3.1-1.5 3.1-0.7 0.1-10.9 0.9-10.9 0.9 0 0 8.4 4.9 8.5 5.6 0 0.8-1.9 2.2-4.1 2.8-2.2 0.7-5.5 3.5-8.9 3.8-3.5 0.3-13.6-0.4-14.9-0.8-1.3-0.4-5.1-0.1-5.1-0.1z" />
                    <path id="&lt;Path&gt;" class="s8" d="m733.7 579.6l8.1 4.3" />
                    <path id="&lt;Path&gt;" class="s8" d="m730.5 583.9l5.2 2.3" />
                </g>
            </g>
        </g>
    </g>
    <g id="Boxes">
        <g id="&lt;Group&gt;">
            <g id="&lt;Group&gt;">
                <path id="&lt;Path&gt;" class="s11" d="m367.7 781.7h180.5v131h-180.5z" />
            </g>
            <path id="&lt;Path&gt;" class="s11" d="m367.7 781.7h108.9v131h-108.9z" />
            <path id="&lt;Path&gt;" class="s8" d="m410.7 781.7h22.8v60.9h-22.8z" />
        </g>
        <g id="&lt;Group&gt;">
            <g id="&lt;Group&gt;">
                <path id="&lt;Path&gt;" class="s11" d="m342 759.1h-146.5v131h146.5z" />
            </g>
            <path id="&lt;Path&gt;" class="s11" d="m342 759.1h-88.3v131h88.3z" />
            <path id="&lt;Path&gt;" class="s8" d="m307.1 759.1h-18.5v60.9h18.5z" />
        </g>
    </g>
    <g id="Number">
        <g id="&lt;Group&gt;">
            <path id="&lt;Path&gt;" class="s8" d="m603.9 249.7h-67.7v-69.2h67.7z" />
            <g id="&lt;Group&gt;">
                <path id="&lt;Compound Path&gt;" class="s3"
                    d="m559 224.9h9.8c0 5.5 0.6 7 3 6.8 2.2-0.2 2.3-3.2 2.3-9 0-4-0.5-7.2-3.1-7.2-1.7 0-2.7 1.1-3.1 4.2h-8.9l1.1-26.5h21.5v8.3h-13.5l-0.5 8.4c0.5-0.8 2.9-1.7 5.2-2 6.7-0.9 10.8 4.5 10.8 14.7 0 9.7-1.6 16.6-12.6 16.6-10.4 0-12-5.8-12-14.3z" />
            </g>
        </g>
    </g>
    <g id="Floor">
        <path id="&lt;Path&gt;" class="s2" d="m1489.4 912.3h-1476.9" />
    </g>
    <path id="Trackster " class="s0" aria-label="Trackster "
        d="m1011.3 627l-0.2 2.1-12.7-1.2 0.2-2.1 4 0.4 2.4-24.1-6.5-0.6-0.3 3.1-2.7-0.2 0.6-5.3 22.9 2.2-0.5 5.3-2.7-0.2 0.3-3.2-6.4-0.6-2.4 24zm21-12.2l0.2-2.3-0.5-0.1q-2.1-0.4-3.8 1.3l-1.5 14.9 3.9 0.3-0.2 2.1-10.6-1 0.2-2.1 2.6 0.3 1.7-17-2.7-0.3 0.3-2.1 6.5 0.6-0.3 2.8q2.5-3.1 5.8-2.6l1.4 0.2-0.5 5.2zm10.3 11.1q-0.3 3.7 1.9 3.9 1.4 0.1 4.2-2.1l0.5-5.6q-2-0.4-2.8-0.5-1.6-0.2-2.4 0.5-1.1 1-1.4 3.8zm6.8-5.5l0.4-4q0.3-2.8-2.9-3.1-2.5-0.3-3.7 0.5l-0.2 2.1-2.6-0.3 0.3-3.1q2.5-1.9 6.6-1.5 3 0.3 4.5 1.3 2.3 1.8 1.9 5.7l-1.3 13.1 2.7 0.3-0.2 2.1-6.5-0.6 0.3-3.2q-3.6 3.2-6.1 3-5.1-0.5-4.4-7.3 0.3-3.7 2.4-5.1 1.9-1.2 5.7-0.9 1.4 0.2 3.1 1zm20.3-4.9q-2.3-0.2-3.4 2.2-0.8 1.8-1.2 6.1-0.9 8.6 2.8 8.9 2.1 0.2 5.7-1l0.4 2.1q-3.3 1.5-7.2 1.2-7.2-0.8-6.2-11.7 0.6-5.4 2.7-7.9 2.3-2.6 6.6-2.2 4.1 0.4 5.6 2.6l-0.3 3.3-2.7-0.3 0.3-2.3q-0.6-0.7-3.1-1zm29.2 3l-2-0.2-5.8 4.8 5.6 12.4 2.1 0.2-0.2 2.1-5.6-0.5-5.2-11.5-1.1 0.9-0.8 7.7 2.1 0.2-0.2 2.1-8.8-0.8 0.2-2.1 2.6 0.2 2.4-24.1-2.7-0.2 0.3-2.1 6.7 0.6-1.5 15.6 6.9-5.8-1.9-0.1 0.2-2.1 6.9 0.6zm12.9-1.2q3.4 0.3 5.9 2.1l-0.4 3.8-2.6-0.3 0.2-2.3q-1.5-0.8-3.3-1-1.5-0.1-2.4 0.8-0.8 0.7-0.9 1.8-0.2 1.6 2.3 3 3.9 2.1 4.6 2.7 2.4 2.2 2.1 5.7-0.3 2.9-2.5 4.4-2.1 1.5-5 1.3-4.1-0.4-6.5-2.4l0.4-4 2.6 0.3-0.2 2.3q1.5 1.2 3.8 1.4 1.6 0.2 2.6-0.8 0.7-0.8 0.8-1.8 0.2-2-2.2-3.4-4.3-2.5-4.4-2.6-2.4-2-2-5.7 0.2-2.3 1.8-3.8 2-1.8 5.3-1.5zm20.2 21.8l-0.2 2.1q-1.2 0.1-2 0-3.4-0.3-4.6-2.1-1.1-1.4-0.8-4.1l1.4-13.8-2.7-0.3 0.2-2.1 2.7 0.3 0.4-4.5 4.2-1.3-0.6 6.2 4.1 0.4-0.2 2.1-4.1-0.4-1.3 13.8q-0.2 1.7 0.2 2.5 0.5 1 2.2 1.2 0.3 0 1.1 0zm6.1-8.2q0.5-5.4 2.6-7.9 2.1-2.6 6.4-2.2 4.9 0.5 6.2 3.6 0.9 2.3 0.2 9.1l-11-1q-0.4 3.1 0.4 5.3 0.9 2.5 3 2.7 3 0.3 6.2-0.8l0.4 2q-4.1 1.4-7.7 1-7.8-0.8-6.7-11.8zm8.8-8q-2.3-0.2-3.3 2.5-0.6 1.5-0.9 5l6.8 0.6q0.5-4.3 0.2-5.7-0.5-2.2-2.8-2.4zm23.4 5.5l0.3-2.3-0.5-0.1q-2.2-0.4-3.9 1.3l-1.5 14.9 3.9 0.3-0.2 2.2-10.6-1.1 0.2-2.1 2.6 0.3 1.7-17-2.6-0.3 0.2-2.1 6.5 0.6-0.3 2.8q2.6-3.1 5.8-2.6l1.4 0.2-0.5 5.3z" />
</svg>