<svg version="1.2" xmlns="http://www.w3.org/2000/svg" viewBox="0 0 1500 843" width="1500" height="843">
	<title>6159987-ai</title>
	<style>
		.s0 { fill: #ffffff } 
		.s1 { fill: #ceecf8 } 
		.s2 { fill: #ff9c85 } 
		.s3 { fill: #3a2a26 } 
		.s4 { fill: #fd4f00 } 
		.s5 { fill: #000000 } 
		.s6 { fill: #ffbf73 } 
		.s7 { fill: #d17462 } 
		.s8 { fill: #ce7f49 } 
		.s9 { fill: #ffd8ae } 
	</style>
	<g id="BACKGROUND">
		<path id="&lt;Path&gt;" class="s0" d="m1500 843h-1500v-1000h1500z"/>
	</g>
	<g id="OBJECTS">
		<g id="&lt;Group&gt;">
			<g id="&lt;Group&gt;">
				<g id="&lt;Group&gt;">
					<path id="&lt;Path&gt;" class="s1" d="m505.2 41.5c-13.1 1.3-22.8 8.8-35.1 8.8 1 13.1-21.8 3.4-30.1 7.3-4.8-4.4 3.6-8 7.6-5.3 3.3-2.8-2.5-6.4-5.2-4.9-2.2 0.8-4.3 2.3-6.6 1.9-10.8-4.8 2.4-17.3 10.3-15.3 3.6 1.3 6.3 10.9 11 6.6-0.9-1.3-1.4-2.8-1.4-4.3 16.4-6.9 119.2-10.9 49.5 5.2z"/>
				</g>
				<g id="&lt;Group&gt;">
					<path id="&lt;Path&gt;" class="s1" d="m433 60c0.4 1.6-2.5 1.6-3.3 0.2-0.8-3.9-3.3-6.4-7.3-3.9-1.6-1.7 1.6-4 1.7-6.2-2.2-7.9-14.3 2.4-12.6 7.5 4.2-0.8 7.3 2 5.3 5.9 3.8 5.1 11.8 1.4 17.5 2 6.3 0.3 12 4.3 18.3 4.2 6 0.9 11.1-8.1 4.1-9.9-13.4 8.1-8.3 2.1-20.9 1"/>
				</g>
				<g id="&lt;Group&gt;">
					<path id="&lt;Path&gt;" class="s1" d="m411.4 76.8c-5.6 3.5-4.4 9.8 2.7 7.8 3 3.3 6.4 2.7 10.7 2.4 2.9 0.4 5.3 3.1 8.2 2.6 2-0.3 3.8-2.1 5.7-1.5 1.5 0.8 2.9 1.4 4.6 0.7 3.2-0.5 5.2 3.7 2.7 5.8-2.2 1.9-10 0.8-8.1 5.6 3.6 3.3 6.7-5.3 10.8-2.8 4-2.4 6.8 1.8 3.1 4.7-4.9 2.2-9.5 2.4-9.9 8.7-4.9 0.4-11.5-1.2-15.3 3.2-2.3 7.4 6.4 1.3 9.6 1.3 7.2 0.3 2.4 13.1 11.6 11.6 3.7-1.4 4.8 4.8 8.8 3.6 6.1-2 0.2-6 1.1-8.7 1.7-1.4 3.2 1.1 4.3 2.1 9.5 3 6.8-8.4 3.3-12.9 0.2-4.8 6.8-3.8 8.3-0.2 0.5 1.2 1.5 1.9 2.8 1.6 6.5-0.2 12.7-11.1 5.5-14.6-4-0.3-10.2-0.5-11.8-5.1 0.5-2.4 3.6-0.7 5.1-0.5 5.4-0.3 4.1-7.8-0.5-8.6-2.5-0.8-5.7-0.4-7.3-2.4-1.4-2.9-2.6-4.7-5.5-2.7-3.4 0.1-1.6-5.9-4.4-6.8-1.8-0.6-3.4 1.8-5.3 1.4-1-0.2-2.1-1.1-2.9-0.4-0.6 1.9 2.9 6-1.4 6.8-6.8-0.9 2.6-11.4-10.4-8.9-10.7-1-7 9.3-12.5 7.4 4.7-15.1-6.8-5.4-13.6-1.2z"/>
				</g>
				<g id="&lt;Group&gt;">
					<path id="&lt;Path&gt;" class="s1" d="m398.7 46c-6.3 4.6 3.7 3.1 4.8 5.6 0.6 1.2 1.1 2.3 2.3 1.1 1.4-1.2 3.6-5.7 1.6-7.2-1-0.7-2.4-0.1-3.2 0.5-1.6 1.1-3.7-0.5-5.5 0z"/>
				</g>
				<g id="&lt;Group&gt;">
					<g id="&lt;Group&gt;" style="opacity: .4">
						<path id="&lt;Path&gt;" class="s1" d="m274.8 372.3c0.1-0.2 0.2-0.4 0.2-0.6-0.3-0.3-0.4 0.4-0.2 0.6z"/>
					</g>
					<g id="&lt;Group&gt;">
						<path id="&lt;Compound Path&gt;" fill-rule="evenodd" class="s1" d="m510.5 577.1c1.5 64.4-10.2 35.7-36.2 62.9 2 29.8 0.5 16.7-12 40 3.3 18-12.9 22.6-26.2 13.8 0.6 7.4 9.1 3.6 7.3 12.2 11.4-0.5-3 15.8-7.4 16.6-3.3 0.4-7.3-3.5-10.3-0.7 0.7 0 1.4 0.5 1.6 1.2-2.3 2.3 1.7 6.3 0.6 9.4-2.6 5-7.4 0.3-10.4-1.2-4.6 1.3 3.2 14.2 6.9 13.1 0.5 0.4 0.1 1.2-0.5 1.4-5.1 0.7-1.5 7.5-1.7 10.9-4.4-0.2-8.6 4.6-6.2 8.7 2.4 3.9 9.3 3 11.5 7-2.5 1.8-3.1 3.6-4.2 6.5-3.5 1.5 0.3 6.6-1.6 9-6.4 4.9 1.6 10.6 5.4 14.1 4.8 3.5 1.2 14.1 8 14.5 1.1 0.2 2.2 1.4 1.5 2.3-14.5-3.6-26.6-14.3-37.8-23.1 0.1-8.3-10.4-11.4-8.4-20.1 0.7-3.5-3.9-5.7-4.7-9.2 1.3-8.8 3-18.4-2.5-26.4-1.6 1.2-2.7 3.1-2.9 5.2-5.7-5.9-1.5-16.1-4.8-23.6-7-7.9-1.1-15.9 0.7-24.7-6.8-27.5-2.5-56.6-6-84.8 3.3-23.2-26.8-23.8-31.7-41.4-9.2-9.4-9-25.3-18.8-34.1-4.8-3.5-8.9-7.2-7.6-13.2-3-5-1.2-9.9 3.2-13.9-16.5-14.5 16.9-29.8 14-45.6-0.4-4.5 3.8-12.1-0.6-15.2-3.6-1.5-2.2-10.1-7.3-9.3-3.6 1.5-2.1 11.3-8.3 7.4-5.8-2.4-9.7-7.7-14.5-11.4-2.1-0.9-6.4-1.2-5.7-4.3 1.4-1.9 0-2.7-1.5-3.8-0.8-4.1 0.1-8.7-5.3-10.6-12.3-5-22-11.4-28.7-22-3.3-1.3-6.3 2.5-9.7 3.5-7.6 1.9-12.5-7.4-19.5-8.6-1.7-5-7.1-3.3-11-4.3-15.7-14.8-11-9.5-9-27.9-1.4-3.6-6.2-5-7.3-8.7-0.6-2 0-4.3-1.3-5.9-3.7-2.5-10.1-3.8-3.6-8.2-0.1-5.8-11.1-8.7-9.8-16 3.2-9.9-8.1-23.3-9-7 0 7.1 6.2 11.1 5.2 18.3 3.2 4 5.1 8.1 3.6 13.5-0.7 3.1 1.2 5.2 3.4 6.9 3.1 3.4-1.7 6.1-3.6 2.1-0.6-4.5-6.4-4.8-5.8-9.5 0-4.5-0.6-9.7-4.5-11.9-1.9-1-4.6-2.1-4.1-4.1 9-5.7 3.3-7.4-1.4-13.5-1.3-5.9-0.2-12.5-0.3-18.6 0.1-5-6.7-5.5-9.1-8.8-1.7-8.7-5.5-32.6 1.2-38.2 1.6-15.5 20.3-22.5 19.4-35.3-0.5-2.6 0.5-5.4 2.5-7.1 6.9 6.2 13-7.5 3.9-8.4-2.9 0.8 3 7.1-0.8 7.3-2.4-4.3-12.7-5.5-6.7-11.8 0.5-1.1 0.1-2.8-1.1-2.8 11.6-12.1-4.7-17.5 12.3-24.4-3.3-1.4 0.7-5.4 0.1-7.7-2-2.5-4-6.5-0.5-8.9-3.9-8.3-10.3 2.5-12.5-2.9-0.2-3.3-1.5-6.2-5.5-5.8-3.7-0.5-9 1.6-11.9-1-0.4-1.4-0.2-3.1-2-3.6-9-3.7-15.4 7.2-24.7 3.9 1.4-2.2 3.6-3.9 6-4.9-11.4-0.1-18.2 19.1-31.9 17-13 9-30.3 2.5-41.6 15.6 2.7-13.1 24.1-11.6 33.7-17.5 4-6.2-3.2-5.8-7.3-4.4-2.6-0.2-4.2-3.7-2.7-5.8-2.4 0.1-4.8-0.5-6.9-1.7 6.4-11.4 20.9-16.7 33.9-17.4 2.2 1.6 5.7-1.2 4.7-3.6-2.7-5.2-10.2 0.7-14.1-2 3.3-14.6 20.7-5.2 30.1-8.2 5.3-4.9-2.5-5.4-5.6-6.9-2.9-4 3-7 6.6-6.1 6 1.6 9.6-2.9 14.1-5.8 8-0.9 15.6-3 23.2-5.8 19 6.4 41-0.8 58.4 9.6 4.5 0.9 8.7-2.6 13.2-3.5 4.9-1.1 10 1 15 0.4 4.5-0.5 9.3-3 13-0.6 5.7 3 13.8-3.4 19.6 2.9 2.4-1.8 4.3 2 6.3 2.9 2.6 1 9-2.2 9 2.5-1.5-0.8-3.3 1.6-2.1 2.8 1.5 1.5 3.9-0.5 6-0.7 2.3-0.2 4.5 1.9 6.9 1.4 2.6-1.9 7.3-0.9 6.1 3.1 4.1 0.7 1.4-8 6.6-6 5.7-4-12.5-3.8-14.6-1.9-4.5 0.2-1.3-7-7.4-4.2-1.6 0.5-4 0.4-4.1-1.2-0.3-2.8 6.1-1.9 6.1-4.7-3.3-0.5-0.9-2.9 0.7-3.7-4.1-8.3-16.2 5-21.6-0.3-2.9-6.7 7.5-7.1 11.3-9.4 2.7-2.3 4.8-5.7 8.8-5.5 7 0.3 18.1-0.4 22.4 5.7 0.9 3.1 3.4 4.4 6 2.4 7.6-2.8 7.3 9.9 12.4-1.8 1.4-0.9 3.3 0.3 5 0.3 2.7-0.1 7.1-4.5 9-0.7-0.5 5-12.2 5.7-8.9 12.9 2.8-0.6 6 1.2 2.6 3.5-2.4 0.8-7.1-0.6-6.9 3.4-2.3 3.5-9.8-0.8-12.2 3.6 0.6 7 13.4 3.6 18.5 4.3 7.4 2.3 4.6-12.5 12.4-10.9 8.8 3.3-3.7 8.4 1.1 10.1 25.7-12.6-9.5-8 15.4-19.4 11.2-1.5 1.3-9.5 11.1-10.1 6.2 1.1 3.6-4.9-0.2-5.9-6.7 0.8-8.5 5.1-11-3.7-7.3-0.9 0.8-8 1.2-1.1 4.4 0.8 7.9-7.8 13.3-2.4-0.4 2.3 2.6 4.4 4.8 3.8q-0.3 1-0.5 2 1.7 1 3.5 2-2 1.8-4 3.6c4 0.6 11.9 4.7 2.9 4.3-2.6 0.2-4.1 3.4-6.7 3.8-9.1-1.6-10 10.3-9.9 17 0.1 4.7 4.2 0.7 6.1-0.2 1.9-0.5 3.6 2.4 2.2 3.8-1.1 0.8-4.6 2.6-2.2 4 2.6 2.3 4.2-2.3 5.7-3.8 2.2-1.9 6.3-0.6 7.9-3 0.7-5.9 8-7 12.4-4.5-2.3 1 0.3 5.2-1.5 6.9-8.2 5.4-8.9 16-22.5 8.9-6.4 4.8-10.4 13.4-20 12.1-0.4 2.8-3.9 1.9-5.9 2.1-9.5 7.4-38 13.9-31.1 29.6-0.3 4.4-4 9.5 4.3 7.9 5.2-2.1 6.1 0.9 8.1 4.4 1.9 0.3 3 1.1 3.6 3 3.1 4.7 11.1 0.3 14.8 4.3 0.9 3.6-1.5 7.2-3 10.7-4 8.8 6.1 13.8 9.8 4.6 2.8-4.4 1.7-10 3.5-14.5 10.3-1.8 25.7-9.4 17.5-21.8-0.6-4.5 7.3-3.7 8-7.5-0.2-2.8-0.7-5.1 2.4-6.2 2-2.2 0.2-7.5 4.4-6.8 4.4 0.1 9 1.2 13.3 1.7 3.5 0.4 3.4 6.8 6.9 7.3 1.9-0.3 2.9 1.5 2.2 3.2-2.4 2.9-3 7.3 1.1 9.1 7.4 2.6 12.5-5.7 17.3-9.9 1.3 5.3 5.2 12.4 3.4 17.5 0 1.9-1.5 3.2-2.7 4.4 0.2 2.1 4.3 1.5 2.9 4.6-0.3 2.3 1.5 2.2 3 1.4 1.5-0.2 2 2.2 3.5 2.8 1 0.4 2.2-0.2 3.2 0.2 2.4 1.4-0.6 6.4 2.9 7.3 1.2 0.9 1.8 4.1 0.6 4.9-3.3 2.1-1.4 7.9-4.2 10.5-3.8 1.6-3.9 5.6-0.8 8.2 2.3 1.2 8.3-2.1 8 2-0.3 3.2-4.3 7-1.4 9.7 0.3 3.3-4.4 5.5-4.5 1.1-0.6-1.6-4-2.7-5.6-2.1-4.7 1.4-10.1-3.3-14.5-1.1 0.8-4.9 6.3-6.9 9.1-10.5 0.4-4.4 2.9-8 7.2-9.9-5.1-0.7-9.8 0.7-12.7 4.9-20.2 3-24.1-8.5-45.2 11.5 3.8-3.1 22.6-8.8 20.7-1-2.7 1.2-5 3.2-4.7 6.5 1.2 11.7 3.8 4.8 9.3 9.7 3.7 1.3 5-5.9 8.5-4.8-0.2 1.6 1.8 5.7-0.8 5.4-5-1.7-6.5 6.6-10.8 4.3-6.8-3.1-10 5.2-15.6 7-5.6 0.7 0.4-7.8 2.7-9.2-10.2 0.5-24.2 9.7-28.8 18.9-0.1 3.1-1.8 5.4-5.1 4.6-12.3-1.8-11.5 15.7-23.2 16.7-1.7 0.1-2.4 1.6-2.1 3.2 0.4 5.3-0.8 11-4.4 14.9-46.9 35.3-21.3 20.1-32.5 59.1-4 1.5-6.1-11-7.3-14.5 1-4 2-9.8-3.5-11q-2.6-0.1-4.4-2c-4.7-4.2-21.2-4.5-21.2 3.9-4.1 3-9.4-0.6-12.7-3.4-7.9 0.4-26.3 9.7-26.2 18.5 2.2 9.2-7.6 5.6-4.2 16.2-2.7 11.1-2.5 26.4 7.9 33.3 4.1 4.6 11.2-4.7 15.5-0.7 2.3-2.2 4.3-5.3 5.2-8.5 2.8-8 10.7-10.2 19.3-7.6-3.9 5.6-6.8 12.1-8.3 18.8q-1.1-0.9-2.1-1.8c0.1 5-6.2 17.7 3.7 14.9 7.4-1.8 21.3 1.5 17.3 11.7-4.6 10.4-5.6 28.6 9.2 29.8 6.9-9 10.5-2.8 18.1 1.6 4.9-8.6 9.7-17.9 20.9-17.8 1.8-1.1 3.2-7.1 6-4.2 0 2.6-4.6 3.8-1.8 7.3 1 3.2-3.5 7.2-0.6 10 5.2 1.2 5-5.2 2.7-8.1 1.2-4.1 7.1-5.7 11-4.9 3.7 0.4 2.3 8.3 6.8 7.7 5.2-5 10.8 4.5 16.4-1.2 4.6-3.2 7.2 0.4 10 3.5 5.2 0.1 5.6 4.4 3.3 8.1 8.5-2.8 11.1 9.4 16.8 13 15.1 2.8 25.7 4.3 30.8 21.9 6.2 9.3-1 11.6-0.2 18.6 11.1-2.1 24.9 3.8 29.8 14 16.2-5.2 25.7 6.4 38.7 12.3 21.5 17.2-8.9 38.7-12.1 57.2zm-150.7-341.7c-1.7 2.3-5.6 1.3-8 2.1-2.4 2.8-6.4 2.1-8.7 4.7-1.6-0.1-4.3 0.1-2.8 2.5 1.6 1.6 3.9 0.1 5.5-0.8 4.1-2.9 11.6 0.3 14.5-4.1-0.2-3.1 2.1-5.1 5.4-5 15.7 1 2.5-7.3-4.6-3.4-1.7 0.8-1.6 2.5-1.3 4zm-45.1-21.2q1.9 0 3.9 0 0.2 1 0.5 2.1c5.1-1 12.8-5.3 16.9-1 2.7 1.7 7.7-1.4 9.4 2.8-1.5-0.6-3.4-0.4-4.8 0.4-6.2-0.5-12.7 1.5-13 8.2-1.7 5.6-10.2 11.4-5.7 17.5 15.4-9.4 4.7-4.1 10-15.5 7.3-12.3 23-9.2 9.3 3.6 5.3-3.5 5.8-1.1 5.9 4.2 4.6-1.7 6-13.7 11.7-9.2 4.1-8.5-5.3-10.7-11.4-10.9-2.4-2.6 1-6.4-0.5-9.1q-1.9 0.2-3.7 0.4c2.8-5-4.8-6.5-8.2-4.1-7.1 2.9-14.3 5.9-20.3 10.6zm-10-28.1c1.5-0.7 3.7-2.2 3.7 1.1-0.5 2.2-4.4 3.7-3.2 6.3 3.9-2.6 6.8-5.5 5.9-10.5 4.5-7.5-2.6-13.5-7.2-5.2-1 2.7-0.3 5.7 0.8 8.3zm-23.3-60.7c-0.7 1.4-1.1 3-2 4.3-1 0.9-3-0.7-3.7 0.5-0.7 3.6-6.2 3.4-9.1 4.5 13.4 2.9 24.5-5.8 36.8-9.3-7.2-2.8-17.1 9.1-22 0zm-17.6-18.7c2.3-0.5 5.2-0.7 6.6 1.2-7.1 3.4-1.6 5.7 3 2.7 5.7 1.4 8.9-0.6 14.2-0.9 1.7 0 3.7-2.7 1.3-3.1-4.8-7.3-16.1-1.2-23.4-0.8-0.7 0.2-1.4 0.4-1.7 0.9z"/>
					</g>
				</g>
				<g id="&lt;Group&gt;">
					<path id="&lt;Path&gt;" class="s1" d="m381.8 48.2c-2.8-0.2-7.4-2.3-9.4 0.9-6.4 1.5-10.3 4.3-0.6 4.3 2 0 2.8-1.9 3.7-3.3 1.7-1.6 4.6-0.4 6.3-1.9z"/>
				</g>
				<g id="&lt;Group&gt;">
					<path id="&lt;Path&gt;" class="s1" d="m367 58.3c0.3 2.8-7.9 3.6-7.6 0.6-4.3-2.5-4.6 0.6-3.8-5.8-6.6-2.5-14.8 2.8-21.7 3.3-1.7-0.1-4.7-0.5-4.9 1.9 3.3-1.2 6.2 0.8 8.8 2.5 1.2 0.3 3.2-0.6 3.8 1-0.6 2.5 2 1.4 3.3 2.5 0.3 1.6 0.7 3.4 2.8 3.7 7.7-0.5 14.4-5.4 22.4-2.9 1.1 0.1 1.8-0.5 2.1-1.5 1-1.4 3.2-0.5 4.6-1 5.6-1.6-9.5-11.6-9.8-4.3z"/>
				</g>
				<g id="&lt;Group&gt;">
					<path id="&lt;Path&gt;" class="s1" d="m383.3 69.3c-2.7-0.1-2.2 1.9-2 3.6-2.2 1.1-12.5 1.2-6 4 0.8 7.2 9.7 0.6 14.3 0.7 0.7-0.2 0.8-0.8 0.6-1.4 6.9-9.6 1.8-7.8-6.9-6.9z"/>
				</g>
				<g id="&lt;Group&gt;">
					<path id="&lt;Path&gt;" class="s1" d="m392.6 117.2c-1.8 1.5-1.3 3.8-1.4 5.8 2.1 0.4 3.9-2 5.8-0.8 2.8-0.4 5.1-5.9 8.7-3.4 1.9 2.2 4.9 0.9 7.4 1.8 2.2-1.4-0.8-2.9-2.2-3.2-4.2-11.9-12.2-8.6-18.3-0.2z"/>
				</g>
				<g id="&lt;Group&gt;">
					<path id="&lt;Path&gt;" class="s1" d="m398 124.5c-7.7 4.4 0.7 2.9 4.5 2.6 2.7-2.4-2.9-4.5-4.5-2.6z"/>
				</g>
				<g id="&lt;Group&gt;">
					<path id="&lt;Path&gt;" class="s1" d="m411.2 126.6c-1 0-3-0.1-3.3 1.1 0.7 0.8 0.1 1.5 0.1 2.4 1.7 1.6 7.1-0.8 4.1-3.1"/>
				</g>
				<g id="&lt;Group&gt;">
					<path id="&lt;Path&gt;" class="s1" d="m571.2 32.6c-8.4 4.6-15.1-1.9-23.4-0.1-7.8 2.9-29.2 3.4-29.9 12.3-8.9 0.9-17.7 3.1-26 6.4q5.7 0.4 11.3 0.8c-21.7 10.2 19.3 3.4 23.1 7.6 2.7 3.3 1 8.8 3.1 12.7 0 2.9-6.5 4.2-4.4 7.5 3.3-1.6 9.6 1.2 6.1 4.8-2.5-3.7-11.6 1.1-6.9 4.2 3.3 2 10.6-3.2 9.3 3.8-5 5.6-16.7 3.8-16.3 14.8 1 6.9 3.1 34.5 13.3 29.2 6.4 1.8 13.1 4.2 17.2-3.8 2.3-7.5 10.2-10.9 11.9-18.1 1.7-4.7 8-5.1 13-5.6 9-0.7 16.3-6.1 23.4-11 10.5-5.7 25.7-1.3 34.3-10.9-7 5.1-22.8-3.5-7.1-5 2.5-1.2 4.1 0.5 5.9 2.1 1.7 1 4.1 0.2 4.9-1.5 0.9-1.8-0.1-4.2-2-4.8-3.5 0.2-5.8-4.3-2.3-6.2 4.8-0.4 9.8-0.3 14.2-2.7q-0.1-1.3-0.1-2.6c3.7 0 8.3-5.4 3.5-7.2-9.1-1.2 5.7-5.1 8.6-5.1-20.6-11.1 18.7-12.4 24.3-18.1q-15.7-0.3-31.5-0.7c1.3-1.5 3-2.7 5-3.2-26.1-12.3-55.6 1.9-82.5 0.4z"/>
				</g>
				<g id="&lt;Group&gt;">
					<path id="&lt;Path&gt;" class="s1" d="m633.9 108.6c-2 0.7-3.3-0.8-4.7-2-3.9-4.1-15.5 6.6-6.2 4.4 4.9 0.1-3 5.4 3.9 8.3 28.3 8.6 49.5-21.6 7-10.7z"/>
				</g>
				<g id="&lt;Group&gt;">
					<path id="&lt;Path&gt;" class="s1" d="m763.7 43.2c-1.7-1.1-5.1-1.7-5.6 0.9-18.3-3.1-16.5 4.4-0.7 8.9 1.1 6.9 8.9 4.4 14.1 4.8 2.3 0.3 1.7-2.4-0.3-2.4-1.2 0.1-2.4 0.6-3.3 0-3.1-3 2.6-6.2 5.3-6.4 3.8-0.5 9.4 6 11.6 1.5-3.4-0.6-6.6-2.1-9.3-4.3q7.6-1.4 15.2-2.9c-6-4.6-14.9-1-21.6-2.4-2-1.3-5.1-0.1-5.4 2.3z"/>
				</g>
				<g id="&lt;Group&gt;">
					<path id="&lt;Path&gt;" class="s1" d="m786.8 82.8c-6.3 3.2-33.7 5.1-27.6 14.7-7.8 8.3-13.9 19.1-23.7 25-5.2 2.5-14 4.5-13.2 11.8 2.6 6.9 2.9 22.2 14.3 15.4 7.6-11 12-2.6 13.6 6.3q1.4 0.7 2.7 1.3c-1.2 2.8 0.5 6.5 3.4 7.3 4.3-5.2 13-6 11.1-14.3 1-4.4 8-5.8 8.4-10.3-12.6-3.8-6.8-18 3.6-20.1 3.5-3.9 11-17.5 15.5-8-1.3 6.6-20.3 13.2-8.6 20-2.3 19.2 24.2-3.3 27.7 8.3-3.9 5.6-16.6-1.9-21.7 6.5 6.2-0.3 6.5 9.3 0.3 9.4-1-4.5-7.9-4-8.3 0.6-0.2 3.2 4.4 8.3 0.2 10.5-2.1-1.1-5.2 0.9-5 3.3-8.2-11.1-20.4 11.3-24.2-0.4-2.2-2.4-5.4 3-8.7 2.9-3.5 0-5.6-8.3-9.5-5.1 0.6 3.3-0.6 6.8-3 9.1q-1.3-1.4-2.5-2.8c-1.5 0.3-2.7 1.4-3 2.8-9.5-8.5-12.4 20.4-23 12.6-1.6-3.3 4.9-7.6 2.1-9.9-3.1-0.7-5.5-1.6-6.1-5.3-2.5-6.1-14.1-13.8-6.7-20.4-0.8-1.3-2.7-1.8-4-1.1q1.4-3.6 2.9-7.2c-7.2-5.4-12.9 3.7-16.1 9.1-1.2 3.8 6.3 7.6 2.9 11.3-8.3-5.6-12.2 4.9-18.4 7-2.6 4.4-4 20.3 4.4 12.1 5-1.6 13.3-1.6 9.7-9.2-0.4-6.4 14.6-10.6 12.2-1.8-3.6 0.7-7.9 5.9-3.5 8.2-3.2 3.1-4.8 9.2-2 13 4.6-0.2 9.2-5.8 14.8-3.5 2.9 0.6 5.9 4.2 3.6 6.2-1.9 1.6-12.5-1.5-7.8 3.9-2.1 3.5-8.8-1.6-11.2 1.7-2.9 6.2 9 5.6 10.2 10.1 0.6 2-0.7 4.1-0.8 6.1 0.1 3.7 4.7 10.5-0.8 12-9.3 6.7-36.2-9.1-31.4 12.4 0.4 13.3-9.3 15.7-0.2 29.2 1.7 1.6 4.3 0.5 6.6 0.2 7.1 0.7 13.4 2.7 19.9-1.3 16 2.8 8.3-21.1 19.5-24.7 11.3 0.5 1.3-16.8 15.9-14.5 7.1 4.8 13.9-8.6 21.1-2.9 2.9 7.3 1.6 10.5 10.6 11.8 3.7 4 4.5 10.1 10.9 11.4 5.1 3.4 1.9 12-4.3 11.1-8.4-0.1 1 6.9 4.6 7.6-0.4-3 2.5-5.1 5-6.8 2.4-1.6 5-4.4 3.8-7.1-2.4-2.3-0.8-6.9 2.8-5.7 3.2-2.7-1.7-5.4-4.4-5.3-6.7-1.3-11.5-7.1-15.7-12.6-8.1-9.9 7.6-15.5 10-3.4 2.7 8.7 16.2 3.2 16.2 12.7-1.3 4.7 0.3 8 4.1 10.7 2.1 3.4 1.5 8 5.4 10 0.8 4.3 3.3 10.1 8.7 7.2 1.1-2.1-0.1-5-2.3-5.7 1.6-0.5 3.5 0 4.5 1.4 1.5-1.1 2.3-3.1 1.9-4.9-3.6 0-4.9-4.1-5.3-7.1-1.1-8.4 10.7-5.7 14.9-2.9 3.9 9.5 4.9 20.9 16.3 26.3 1.8-1.1 3-3.3 2.9-5.4 6.4 1.4 13.6 6.5 18.1-0.6 9.8-1.6 3.9 17.9 3.7 23.4-2.6 12.6-10.7 9.1-19.7 6.6-3.2 0-6.2 2.2-9.4 1.9-3.7-0.3-6.7-3.8-10.4-3.4-4.3 1.6-8.5 1.1-12.2-2.1-26.6-16.5-8.1 17.4-23.7 9.6-3.9-5-13.4-1.2-14.3-8-3-7.8-14.6-3.7-19.8-8.6-2.8-2.6-2-8.6 1.7-8.7 0.2-17.5-13.4-11.5-24.9-12.7-15.8-1.3-30.4 15.6-45.8 10.7-3.5-2.9-8.1-1.9-10.2 2.4-1.8 6-6 9.4-10.9 12.6-6.8 6.5-2.5 19.9-9.9 25.7-4.8 3.8-11.2 6.4-14.4 11.6-22.8 30.6-9.5 33.4-14.2 64.2-3.3 7.7-2.8 15.6 2.7 22.2 11 12.4 29.3 54.3 48.4 40.3 4.4-1.9 8.8 2.9 13.5 3.6 8.1 1.2 14.4-9.8 22.4-8.1 5.1 3.5 10.9-2 15.5-0.1 5.8 13.8 2 9.3 16.5 9.8 10.8 8.4-2.5 24.9 1 35.7 4.9 11.1 16.8 17.6 15.6 31.1 2.8 4 6.5 7.2 2.5 11.3 11.3 17-3.5 29.2-6.3 46 4 23.8 17.7 28.7 14.8 58.1 7.5 14 16.1 27.4 15.9 44 35.2 16.3 63.1-18.2 69.4-50.3 14.1-7.8 5.9-23.1 10.3-35.7 55.9-38.5 1.5-57 27.1-101.3 19.5-23.3 43.5-45 48.5-76.8 1.7-14.2-16.8 1-23.8 0-6.6 0.6-14.7-3.8-14.3-10.5 0.5-7.4-11.7-11.2-15.2-17.8-2.2-4.2-1.8-9.8-5.1-13.1-11-4.3-6.5-15.4-9.9-24.2-4-4.8-8.7-8.6-8.1-15.4-1.6-8.8-12.6-15.2-10.4-23.9 1.4 0.3 2.6 1.3 2.9 2.7 11.6-5.9 11.2 13.4 15.6 19.3 2.6 3 7.1 4.4 8.8 8-1.5 17.2 13.4 23.2 20.1 37 2 8.2-1.7 25.4 11 25 7.1-5.6 17.9-3.8 22.9-11.7 14.3-14 36.5-19.1 41-41.8 3.2-10.7-16.3-13.6-16.9-25.6-2.8 7-10.7 13.4-18.4 12.1-3.1-1.2-3.2-5.4-4.8-8.2-4.6-3.8-21.5-26.5-7.5-25.4 8.7 7.4 17.6 26.2 30 14.7 6 3.3 6.6 14.8 17.6 10.5 9.6 8.3 24.8 1 34.6 4.4 1.7 1.9 1.4 5.1 3.1 7.1 2 2.3 6.2 2.3 7.5 5.1-1.9 10.4 9.6 18.7 15.6 7.6 4.3 25.9 16 50.3 25.4 75 1.8 6.3 8.1 2.8 10.3-2.2 10.3-13.8 2.2-23.7 3.9-36.7 2.5-4.6 8.9-5.3 12.2-9.2 3.8-4.6 3.4-13.3 9.2-14.7 4.3 0.2 7.1-1.8 7.7-6.2 2.3-6.3 9.7-8.3 14.5-12.3 4.5-1.3 7.3 2.3 7.2 6.3 9.3 7.6 17.6 18.1 12.7 31.5 10.1-2.7 22.5-5.2 18.7 9.9 15.6 12.6 1.2 24.2 5.4 38.4 16.2 11.6 8.8 30.7 27.7 42.1 0.2-12.8-4.2-27.5-13.6-37.5q-1.5 0.5-3 1c-5.4-10.8-9.9-22-4.5-34 2-6.2 6.1 1.1 8.4 3 2.7 0.4 4.1 2.2 4.7 4.9 2.4 5.7 13.2 9.1 10.1 16.5 28.8-20.4 25.9-30.8 1.9-54.2-5.7-7.8 0.8-25.5 11.5-21.5 2.2 1.6 4.6 2.7 6.9 0.6 18.1-11 36.3-20.7 40.6-43.8 3.3-6.5 0.8-11.9-4.2-16.5-3.6-22.1-15.1-12.4-15.9-24.5 1.3-3.7 7.9-4.6 7.4-8.5-2.3-6.5-8.2 0-11.9 0.8-2.1-0.5-1.5-3.8-2.6-5.7-1.5-2.7-6.1-2.2-7.5-4.9-1.4-4.4 2.8-10.3 6.5-12.4 11.9-2.8 0.5 12.1 11.2 9.7 19.9-14.5 6.5 9.3 21.7 8.4-0.4-1.3 1.3-1.5 2.3-0.5 2 2.1-0.6 5.6 1.1 7.9 3.4 1.9 3.5 6 5.8 8.7 2.6 2.3 7-0.2 7.7-3.5 1.1-6.7-7.3-9.7-7.4-16.1-12.6-8.6-9.3-5.3-1.8-16.5-2.5-11.8 2.6-10.1 11.6-12.1 6-3.7 2.5-12.6 6-17.7 8.2-12.3-6.6-21.8-7.3-33.9-2.9-5.4-12.4-14.8-18.6-10-1.7 0.7-3.3-0.8-4.7-1.8-3-2.6-7.2-1.6-10.6-2.5-4.1-3 0.4-7.8 2.7-10.5 6-13.7 6.6-20.6 23.8-16.2 5.1-0.3 11.5-4.8 15.8-0.3 1.8 5.1 9.7 5.4 9.4-0.9-1.8-4-2.2-9.4 2.4-11.7 4.6-2.5 8 1.5 11 4.2 2.8 0.4 3.8-6.2 7.2-3.6 8.7 6.7-0.5 18-1.1 26.3-1.2 11.7 10.5 13.6 17.6 18.7 6.1 6.1 15.7 18.1 14.8 1-1.3-2.7-0.5-4.8 1.3-7 1.1-2.8-3-4.8-4.4-7.5-1.2-3.4-1.4-8.5-6.3-7.3-2.4-1.3-1.3-6.8-5.6-5.6-8.1-2.8-0.9-12.6 5.7-11.9 4.6-1.7 9.5 2.8 13.5 1.5 2-5.9 6.3-11.9 13.4-11.7 2 0.1 4.9-0.2 4.9-2.2-0.9-3.7-5.7-3.8-8.8-4.9-16.6-12.2 16.9-8.3 22.9-6 6.5-8.4-7.8-11.1-14.1-8.9-7.5 0.2-14.5-3.5-21.4-6.6-5-3.7-64.3-21.8-52.7-7.6 0.9 1 0.7 3.3-0.6 2.9-4.8-4.9-12.7-4.7-19.6-3.9-15.7 5.3-24.3-10.9-39.5-6.2-9.1 4.3-64.1-21.8-57.9-3.8-6.4 4.6-16.6-3.3-23 1.5-3.4 4.4-8.4 3.6-12-0.6-6.7-5.3-21.5-14.2-29.2-7.8-17.7-2.8-35.2-5.6-52.8 1.7-2.3-5 6.5-5.8 9-8.8 10.5-13.8-17-9.1-24.3-10.9-3.4-1-6.4-3.2-9.9-3.8-3.5-0.6-7.8 1.5-7.8 5-6.4 7.3-21.1 0.3-30.2 4.2-10.9 2 0.6 7.9-5.5 9.2-4.4 1.2-9.1 0.6-13.5 1.1-3.1 3.5 3.2 4.9 5.8 5.1 1.6 0.6 3 2.6 1.9 3.9-4.2 2.4-9.6-5.6-14.7-2.8-2.9 1.2-0.9 6.1 1.6 3.6-1 5.3-6.6 0.3-7.6-2.7-3.2-4.4-8.1-0.2-4.3 3.7 2.3 2.1 3.4 4.4 2.7 7.5 2.9 7.6 18.4-1.4 18.8 9.8-3.8-0.3-9.1-8.6-12.5-3.2 5.6 6.8-4.8 12.6-11.2 11-0.6-1.5 0.7-3.1 2.1-3.9 9.3-3.9-0.6-9.1-3.5-13.3-1-4.5 0.1-8.6-4.8-9.6-0.3-3.5-1.6-6.7-6.1-6-10.4 1.8-8.8 14.4 0.9 15.7 5.5 3.7-0.3 8.7-4.4 3.9-5.6-4.7-14.7-5-22-4.7-1.6 1.4 2.5 4.3 0.9 5.8-5 2.1-11.1-2.3-15.9 0.2-4.7 3.7-6.3 2.9-9-1.6-4.8 0.6-19.3 3.8-18.2 10.1-1 4.2-11.5-0.2-7.1-4 0.7-6.6-9-2.4-4.9 2.7 4.1 2.8-0.2 9-3.7 5-1.8-5.5-6.2-1.4-6.7 2.2 0 2.5 1.1 6.7-2.2 7.6-2.9 0.6-5.7-5.3-8.4-2.5q0.8 1.9 1.6 3.8c-9.7 5.3-10.2-12.7-18.7-12.6 6.2-5.2 13.5 4.1 20.5 1.1 7.6-0.4 8.9-9.1 0.7-9.7-5.5 0.6-9.7-1.1-13.5-4.8-4-2.3-9-0.9-13.4-2-9.3-4.5-20.6-10.4-30.6-6.8z"/>
				</g>
				<g id="&lt;Group&gt;">
					<path id="&lt;Path&gt;" class="s1" d="m321.2 354c-3.3-2.4-20.3 4.7-13.1 6.1 4.9-2.8 11.6-5.8 14.4 1.2 2.2 2.2 6.5 1 8.8 3.2 1.6 1.6 2.5 6.4 5.6 4.8q-0.1 1.5-0.2 3c3.4 0.9 21.2 0.1 12-4.6-10.1-2.7-17-12-27.5-13.7z"/>
				</g>
				<g id="&lt;Group&gt;">
					<path id="&lt;Path&gt;" class="s1" d="m354.5 376.9c-1.3 2.3-6 1.1-6.7 3.8-0.4 1.6 1.6 3 3.3 3.1 3.9-1.2 7.2 0.9 10.8 1.4 4.3-2.5 8.7-3.3 13.3-1.4 5.6-3.2-2.5-6.8-5.6-7.9-4.2-4.3-14.3-7.8-15.1 1z"/>
				</g>
				<g id="&lt;Group&gt;">
					<path id="&lt;Path&gt;" class="s1" d="m894 78.7c7.6 0.1 2.3 8.3-2.8 4.2-7.8-3.5-12.8-4.1-7.5-14.1 7.7-11.5 23.2-8.5 34.1-13.9 12 4-11 9.9-15.2 8.9-5.4 0.4-13.3 10.5-8.6 14.9z"/>
				</g>
				<g id="&lt;Group&gt;">
					<path id="&lt;Path&gt;" class="s1" d="m987.5 36.5c-8.9 0.7-1.4 7.2 3.9 6.4 5.5 2.3 11.2 8.4 17.7 4.9 2.8-2.8-5.8-4.7-7.2-5.4-4.4-2.7-8.9-5.9-14.4-5.9z"/>
				</g>
				<g id="&lt;Group&gt;">
					<path id="&lt;Path&gt;" class="s1" d="m1297.2 221.4c-1.1 3 3.8 5.1 4.4 8.3 0.6 3.3-3.5 5.9-3.1 9.2 2.5 4.8 6.9 7.2 6.2 13.6 7.6 7.4 2.3 11 0.4 19.5-1.8 0.1-3.5-1.4-3.7-3.2-2.8 1.5-0.5 6.2-2 9-8.2 6.3-12.3-3.4-17.9 12.1-5.6 3.5-2 7.4 1.3 11.6 4.2 11.3 7.3 1.5 6.8-5.1 1.7-1.8 5.2 0.6 7.2-0.9 2-1.5 1-5.7 3.4-6.3 10.8 3.1 0.5-6.1 17.5-6.8 5.6-2 3.5-7.2 1.2-11.1 1.1-24.4-4.8-13.8-14.1-29.5 0-1.5 1.1-3.1 2.6-3.2 2.2-0.1 3.6 2.7 5.8 2.8 3-0.3 5.7-3.9 5.4-6.8-5.3-5.5-14.3-9.3-21.4-13.2z"/>
				</g>
				<g id="&lt;Group&gt;">
					<path id="&lt;Path&gt;" class="s1" d="m908 585.7c-12.3 4.3-10.2 12.2-6.5 21.8 0.1 6.4-8.3 10.9-7.6 17.4 4.6 6.6 1.1 22.6 13.2 19.5 12.8-7.3 6.8-26.5 14.5-37.9 2.1-4.7 4.9-9.5 4.3-14.7-0.3-2.7-1.2-6.1 1.1-7.6 2-0.7 3.7-1.9 3.8-4.2 0.9-5.1-0.8-10.7-4.4-14.5-5.7-3.6-5.7 18.8-18.4 20.2z"/>
				</g>
				<g id="&lt;Group&gt;">
					<path id="&lt;Path&gt;" class="s1" d="m1262.8 398c9.1-5.6-4.9-27.3-7.3-11.9 1.6 4.8 0.7 8.4-1.9 12.3-0.5 2.9 3.3 4.6 4.7 7.2 2.1 3.7-0.4 9.7 3.2 11.9 1.6 1.1 2.7-1 2.3-2.5-3.8-12 17.4 5.7 14.5 9.5-2.8 4-8.1-5.3-11.1-1.9-1.8 2.8 2.5 4.9 3.2 7.3-0.6 18.8 9.8-6.2 13.8 4.9-0.1 3.6-7.7 3.9-6.3 8q-1.2-1.7-2.4-3.4c-4.9-0.7-9.7 11-2.3 7.2 6.8-1.9 6 16 13.3 9.3 0.3-2.8-0.3-5.6 2.7-7.3 4.5-5.7-2.3-11.9-4.3-17.3-1.5-4.4-0.4-9.6-2.6-13.8-3.7-8.6-22.2-7.9-19.5-19.5z"/>
				</g>
				<g id="&lt;Group&gt;">
					<path id="&lt;Path&gt;" class="s1" d="m1182.6 488.7c-8.6-9.3-19.8-16.9-27.9-27.3-2.7-4.8-8.7 0.1-11.7-2.4-2.2 7 8.2 8.9 10.5 13.9 0.9 4 2.9 6.5 6.5 8.2 3.8 5.4 3.8 13.2 9.4 18 2.4 8.1 6.7 14.2 13.2 19.6 2.6 3.6 5.4 9.9 10.8 8.4 8.3-20.8-7.6-22-10.8-38.4z"/>
				</g>
				<g id="&lt;Group&gt;">
					<path id="&lt;Path&gt;" class="s1" d="m1212.6 537.8c14 6.6 41.3 1.6 48.1 15.5 3-2.7-0.1-7.9-3.9-6.6 2.8-12.6-21.5-3-29.1-12.7 5.6-9.5-14.1-1.4-18.3-4.9-24-8.2-13.5 8 3.2 8.7z"/>
				</g>
				<g id="&lt;Group&gt;">
					<path id="&lt;Path&gt;" class="s1" d="m1276.5 547.3c-1.7 2-2.6 4.7-3.9 7 5.7-0.8 9.6-7.2 15.9-6.8 2.8-1.3 2.4-5.3-0.3-6.4-4.4-0.8-7.5 4.9-11.7 6.2z"/>
				</g>
				<g id="&lt;Group&gt;">
					<path id="&lt;Path&gt;" class="s1" d="m1218.8 473.4c1.8 3 2.2 8.9-2.4 8.9-2.3-0.3-3.7-3.3-6-3.1-4.9 1.4-1 7.4-0.5 10.5 0.2 2.2-0.9 4.5-0.2 6.6 2.2 3.5 4.9 6.4 5 10.9 2.6 5.4 9.9 2.9 14.6 4.1 5 1.3 9.4 6.5 14.2 4.7 3.9-2.8-0.4-8.2 0.8-11.9 1-3 5-4.5 5.4-7.6-3.1-11.4 6.4-6.1 6.4-13-4-2.5-5.4-2.1-5.3-7.9-0.6-2.1-3.1-3.7-2.7-6 0.4-2.9 7.6-4.3 5-8 2.2 0 5.3-0.9 5-3.1-0.3-3-5.2-2-7.4-3.9-5.2-10.9-11-1-13.7 5.6-6.5 4.3-9 15.6-18.2 13.2z"/>
				</g>
				<g id="&lt;Group&gt;">
					<path id="&lt;Path&gt;" class="s1" d="m1268.2 483.4c-7.5-0.4-7.8 7.2-8.7 12.4-3.1 2.5-2.5 6-3.3 9.4-0.8 1.6-3.4 3.8-1.6 5.6 7 1.1-1.2 12.1 4.6 13.9 7.3-1-1.6-16.3 6.7-13.8 3.4 2.6 0 9.1 3.2 11.8 8.9 3 7.1-7.9 2.2-11.7-0.5-2.5 0.6-5.2-1.9-6.9-1.7-4.4 7.3-3.5 7.5-7.2-0.6-4.3-6.2-2.4-7.3 0.8-7.3 8-12.4-14.9 2.2-9 3.2 1.1 8.9 3.2 11-0.6-2.9-3-10.5-3.1-14.6-4.7z"/>
				</g>
				<g id="&lt;Group&gt;">
					<path id="&lt;Path&gt;" class="s1" d="m1336.8 507.7c-11.6 12.2-5.5-13.4-15-14.1-7.7-2.5-12.2 9.8-3.7 11.4 4.6-0.4 6.1 1.9 2.8 5-1.2 6.8 6.4 0.9 8.8 6.1 3.3 2.9 9.1 0 12.7 2.7 2.4 1.9 2.5 5.5 3.9 8.3 1.1 2.4 3.4 5.1 1.9 7.3-8.2 5.3-4 7.8 3 4.3 7.5 2.9 15.6 15.8 21.3 1 5.4-7.5 12.7-0.4 13.9 6.3 3.1 5.3 10.5 6.1 15.1 10 5.7-3.2-2.7-7.2-5.9-8.3-4.3-3.7-3.6-11.2-8.1-15.2-0.6-4.9 3.1-0.5 5 0.2 5.7-6.1 23-3.5 20.7-15.5-3.3-2.3-4.3 3.4-5.6 5.3-3 3.8-10.4-0.6-13.6 3-1.8 3.7-4.3 3.2-5.8-0.4-8.5-4.5-10.3-15.6-21.6-17.3-10.3-1.8-24.5-16.2-29.8-0.1z"/>
				</g>
			</g>
			<g id="&lt;Group&gt;">
				<g id="&lt;Group&gt;">
					<g id="&lt;Group&gt;">
						<path id="&lt;Path&gt;" class="s2" d="m679.9 113.9c-23.5-6.2-52.8-4.8-66.7 15.2-8.9 12.9-8.6 30.5-2.7 44.9 5.9 14.5 16.8 26.4 28.3 37 16.2 15.1 34.2 28.4 53.4 39.6 14.1 8.2 31.2 15.4 46.3 9.2 12.6-5.2 20.2-18.9 21.9-32.4 1.8-13.6-1.2-27.3-4.2-40.6-2.2-9.7-3.6-20-6.6-29.4-2.4-7.3-8.1-11.7-14.1-16.2-16.4-12.6-35.5-22-55.6-27.3z"/>
					</g>
				</g>
				<g id="&lt;Group&gt;">
					<g id="&lt;Group&gt;">
						<path id="&lt;Path&gt;" class="s2" d="m1261.4 634.9c-24.8-13.2-38.2-41.2-43.9-68.6-5.8-27.5-5.5-55.9-11.3-83.4-5-24-14.5-46.7-20.9-70.4-11-40.8-12.4-84.2-4.1-125.6 6.7-33.3 19.5-65.3 24.5-98.9 2.9-19.5 0.7-43.6-16.8-52.8-19.2-10-42 5.6-54.7 23.2-68.6 95.2-4.7 240.8-68 339.6-41.4 64.4-124.2 88.3-178.4 142.4-4.1 4.1-8.1 8.6-9.7 14.2-2.5 8.9-46.2-9.6-41.6-1.5 14.8 25.6 111.8 101.4 132.5 122.5l418.7-24.2z"/>
					</g>
				</g>
				<g id="&lt;Group&gt;">
					<g id="&lt;Group&gt;">
						<g id="&lt;Group&gt;">
							<g id="&lt;Group&gt;">
								<g id="&lt;Group&gt;">
									<path id="&lt;Path&gt;" class="s3" d="m1080 669.5h-332.4c-10.9 0-19.8-8.9-19.8-19.8v-606.2c0-11 8.9-19.8 19.8-19.8h332.4c10.9 0 19.8 8.8 19.8 19.8v606.2c0 10.9-8.9 19.8-19.8 19.8z"/>
								</g>
							</g>
							<g id="&lt;Group&gt;">
								<g id="&lt;Group&gt;">
									<path id="&lt;Path&gt;" class="s0" d="m1080.9 637h-334.1v-580.8h334.1z"/>
								</g>
							</g>
						</g>
						<g id="&lt;Group&gt;">
							<g id="&lt;Group&gt;">
								<g id="&lt;Group&gt;">
									<g id="&lt;Group&gt;">
										<path id="&lt;Compound Path&gt;" fill-rule="evenodd" class="s3" d="m836.5 121.3c-1.4 0-2.7-0.8-3.5-2.1l-11.7-20.8q-0.3-0.4-0.5-0.8c-1.4-2.6-2.1-5.5-2.1-8.3 0-4.8 1.9-9.3 5.3-12.7 3.4-3.4 8-5.2 12.8-5.1 9.3 0.1 17 7.4 17.5 16.7 0.2 3.1-0.5 6.3-1.9 9.1v0.1q-0.3 0.6-0.7 1.2l-11.7 20.6c-0.7 1.3-2 2.1-3.5 2.1zm0-47.6c-4.1 0-8 1.6-10.9 4.5-3 2.9-4.6 6.9-4.6 11.1 0 2.5 0.6 4.9 1.7 7.2 0.2 0.3 0.3 0.6 0.5 0.8l11.8 20.8c0.6 1.2 2.5 1.2 3.1 0l11.7-20.6q0.3-0.6 0.6-1.1l1.1 0.4-1-0.5c1.2-2.5 1.8-5.2 1.6-8-0.5-8.1-7.2-14.5-15.4-14.6q-0.1 0-0.2 0z"/>
									</g>
								</g>
								<g id="&lt;Group&gt;">
									<g id="&lt;Group&gt;">
										<path id="&lt;Path&gt;" class="s4" d="m836.5 98.5c-5.1 0-9.3-4.2-9.3-9.3 0-5.2 4.2-9.4 9.3-9.4 5.2 0 9.4 4.2 9.4 9.4 0 5.1-4.2 9.3-9.4 9.3z"/>
									</g>
								</g>
							</g>
							<g id="&lt;Group&gt;">
								<g id="&lt;Group&gt;">
									<path id="&lt;Compound Path&gt;" class="s5" d="m869.6 107.5q-0.3-0.3-0.3-0.6l0.1-3.5q0.1-2.3 0.1-3.4 0-1.1-0.3-3.1-0.4-2-0.4-3.1 0-1.3-0.4-3.1-0.4-1.7-1-3.3-0.5-1.5-0.9-3.3-0.4-1.8-0.4-3.1 0-0.2 0.3-0.4 0.2-0.2 0.6-0.2 0.4 0 0.7 0.8 0.4 1 0.8 2.6 0.4 1.7 0.5 2l0.5 2.5 0.3 1.5q0.1-0.5 0.2-1.5 0.2-2.9 0.5-4.9 0.3-1.3 0.6-2 0.3-0.8 0.8-0.8 1 0 1 0.3 0 2.1-0.8 6-0.9 4-0.9 6l-0.1 0.6q0 0.5 0 0.6v0.6q0 1.5 0.1 4.7l0.1 4.7v0.9l0.1 0.8v0.9q0 0.4-0.3 0.7-0.4 0.3-0.9 0.3-0.4 0-0.6-0.2z"/>
								</g>
								<g id="&lt;Group&gt;">
									<path id="&lt;Compound Path&gt;" fill-rule="evenodd" class="s5" d="m879.6 107.4q-0.8-0.6-1.3-1.6-1-2.2-1.3-4.7-0.3-2.4-0.3-4.7 0-0.4 0.1-0.7v-0.6q0-0.2-0.1-0.2v-0.7l0.1-2.4q0-1.2 0.2-3.7 0.2-1.7 0.9-3.3 0.2-0.7 0.6-1.1 0.4-0.3 0.9-0.3 1.4 0 2.5 0.5 1.2 0.5 2 1.4 0.7 0.9 1.2 2.2 0.5 1.3 0.7 2.8 0.2 1.5 0.2 3.1v0.3q0 1.1 0 2l0.1 2q0 10.3-4.8 10.3-0.9 0-1.7-0.6zm2.7-1.4q0.6-0.5 0.9-1.4 0.6-1.9 0.8-3.9 0.2-1.9 0.2-3.2 0-1.6-0.3-4.2-0.2-2.7-0.2-4.1v-0.6q-0.1-1.4-0.9-2.4-0.9-1-2.1-1-1.2 0-1.6 1.4-0.3 1.1-0.3 2.9 0 0.7 0 1.1v1l-0.1 1.6q0 0.8 0 1.7 0 1.9 0.1 3.8 0.1 2.6 0.7 5.2 0.6 2.6 1.7 2.6 0.6 0 1.1-0.5z"/>
								</g>
								<g id="&lt;Group&gt;">
									<path id="&lt;Compound Path&gt;" class="s5" d="m892.2 107.5q-0.7-0.4-1.1-1.1-0.8-1.5-1.1-3.4-0.2-1.6-0.2-3.9-0.1-3.9-0.1-9.4l-0.1-2.7q0-0.3 0-0.8-0.1-1.3-0.1-1.6 0.3-0.7 0.8-0.7 0.4 0 0.7 0.6 0.4 0.6 0.4 1.4v9.7q0 1.4 0.2 3.7 0.3 3 0.3 3.8 0 2.6 2.2 2.6 2.6 0 2.6-19.1v-2-0.3q-0.1-0.1-0.1-0.3 0-0.4 0.2-0.6 0.2-0.2 0.8-0.2 0.5 0 0.7 0.2 0.3 0.3 0.4 0.7 0 0.2 0 0.8 0 0.6-0.1 1.8-0.1 1-0.1 1.8 0 0.8-0.1 1.4l-0.1 1.5v0.3q0 0.2 0 0.3 0 15.8-4.5 15.8-0.9 0-1.6-0.3z"/>
								</g>
								<g id="&lt;Group&gt;">
									<path id="&lt;Compound Path&gt;" fill-rule="evenodd" class="s5" d="m907.6 106.2q-0.8-1.8-1.1-3.8l-0.3-1.2q-1-5.1-1.3-5.8h-0.4q0 1 0 1.9v1.9q0 4.8 0.6 7.5l-0.4 0.9h-0.9l-0.5-0.5v-2.4q0-3.2-0.3-9.7-0.3-6.9-0.3-9.7 0-1.7 1.2-1.7 1.9 0 3.1 1 1.3 1 1.3 2.7v2.5q0 0.6-0.2 1.3-0.2 0.7-0.4 1.1l-0.7 1.3-0.5 1 0.1 0.9 0.5 2.5q0.5 2.7 1 4.5 0.5 1.7 1.1 3.1l0.2 0.4q0.4 0.7 0.4 1.1 0 0.4-0.2 0.6-0.2 0.3-0.6 0.3-0.8 0-1.4-1.7zm-1.6-14.7q0.5-1.8 0.5-3.3 0-1.1-0.3-2.1-0.1-0.6-0.5-0.9-0.5-0.3-1.1-0.3v0.2l-0.1 0.3 0.1 4.2q0 1.9 0 4 0.8-0.3 1.4-2.1z"/>
								</g>
								<g id="&lt;Group&gt;">
									<path id="&lt;Compound Path&gt;" class="s5" d="m920.6 107.4q-0.4-0.4-0.4-0.8 0-0.4 0.1-0.8 0.1-0.5 0.1-0.8 0-3.1-0.3-12.1-0.4-7.7-0.4-12.2 0-0.3 0.3-0.5 0.2-0.2 0.6-0.2 0.4 0 0.7 0.3 0.3 0.3 0.3 0.7 0 2.2 0.3 6.5 0.1 4.7 0.1 6.4l0.1 0.4v0.4 0.3 0.1q0.1 3.1 0.1 9.3v0.9h2.7q0.8 0.5 0.8 1.1 0 0.4-0.3 0.7-0.3 0.3-0.6 0.3-0.1 0-0.4-0.1h-0.2q-0.2 0-0.6 0h-0.6q-0.3 0-0.6 0-0.4 0.4-1 0.4-0.5 0-0.8-0.3z"/>
								</g>
								<g id="&lt;Group&gt;">
									<path id="&lt;Compound Path&gt;" fill-rule="evenodd" class="s5" d="m931.1 107.4q-0.7-0.6-1.2-1.6-1.1-2.2-1.3-4.7-0.3-2.4-0.3-4.7 0-0.4 0-0.7v-0.6q0-0.2 0-0.2v-0.7-2.4q0-1.2 0.3-3.7 0.2-1.7 0.8-3.3 0.3-0.7 0.6-1.1 0.4-0.3 0.9-0.3 1.5 0 2.6 0.5 1.1 0.5 1.9 1.4 0.7 0.9 1.2 2.2 0.5 1.3 0.7 2.8 0.2 1.5 0.2 3.1v0.3q0 1.1 0.1 2v2q0 10.3-4.7 10.3-1 0-1.8-0.6zm2.8-1.4q0.5-0.5 0.8-1.4 0.7-1.9 0.8-3.9 0.2-1.9 0.2-3.2 0-1.6-0.3-4.2-0.2-2.7-0.2-4.1v-0.6q0-1.4-0.9-2.4-0.8-1-2-1-1.2 0-1.6 1.4-0.4 1.1-0.4 2.9 0 0.7 0.1 1.1v1l-0.1 1.6q-0.1 0.8-0.1 1.7 0 1.9 0.1 3.8 0.2 2.6 0.7 5.2 0.6 2.6 1.7 2.6 0.7 0 1.2-0.5z"/>
								</g>
								<g id="&lt;Group&gt;">
									<path id="&lt;Compound Path&gt;" class="s5" d="m944.6 107.6q-0.9-0.3-1.3-0.5-2.4-1.6-2.4-8.4v-1-1.1-0.8q0-1.4 0-2.6 0.1-1.1 0.2-2.4 0.1-1.4 0.3-2.3 0.2-0.8 0.7-1.9 0.4-1.1 1-1.6 0.7-0.6 1.7-1 0.9-0.4 2.2-0.4 0.5 0 0.8 0.3 0.3 0.2 0.3 0.6 0 0.4-0.3 0.6-0.2 0.3-0.5 0.4h-1.7q-0.7 0-1.2 0.8-0.6 0.9-0.8 2.4-0.4 2.6-0.4 4.2v0.2l-0.1 3.4q-0.1 1.6-0.1 3.5 0 1.3 0.1 2.2 0.2 1.3 0.6 2.1 0.5 1 1.5 1.4 0.5 0.2 1.2 0.2 0.4 0 0.8-0.3 0.4 0 0.7 0.2 0.3 0.2 0.3 0.6 0 1.4-1.9 1.4-0.8 0-1.7-0.2z"/>
								</g>
								<g id="&lt;Group&gt;">
									<path id="&lt;Compound Path&gt;" fill-rule="evenodd" class="s5" d="m957.2 107.4q-0.4-0.3-0.4-1 0-1-0.3-3.6l-0.2-0.7-3.5-0.6q-0.2 0.9-0.6 3.3-0.2 1.8-0.7 2.4-0.2 0.3-0.7 0.3-0.4 0-0.8-0.3-0.3-0.3-0.3-0.6v-0.2l0.1-0.2q2.3-9.1 3.5-18 0-0.1 0.1-0.5 0-0.3 0-1 0.2-1.3 0.3-2.1 0.1-0.7 0.4-1.1h1.2q0.5 0 0.9 0.2 0.3 0.2 0.3 0.7 0 2.7 0.8 8 0.7 5.5 0.7 7.7 0 0.2 0.1 1.1 0.2 0.8 0.2 1.1 0 0.2 0.4 2.1 0.3 1.7 0.3 2.2 0 0.8-0.6 1-0.8 0-1.2-0.2zm-1.2-7.9q0-3.2-0.6-8.2l-0.4-3.7q-1.5 8.4-2 12.6 0.5 0.4 3.1 0.6-0.1-0.5-0.1-1.3z"/>
								</g>
								<g id="&lt;Group&gt;">
									<path id="&lt;Compound Path&gt;" class="s5" d="m964.1 106.7l-0.1-1.4q0-0.6 0-1.3v-1.2q-0.1-0.4-0.5-7.8-0.4-7.4-0.5-9.5-2.1-0.1-2.7-0.4-0.3-0.3-0.3-0.7 0-0.3 0.3-0.5 0.4-0.2 0.8-0.2 1 0 2.4 0.1 1.4 0.2 2.4 0.2h0.3 0.3q1.1 0 1.1 0.9 0 0.4-0.3 0.6-0.4 0.3-0.9 0.3-0.3 0-0.9-0.1l-0.7-0.1v0.1l-0.1 0.2q0 3.2 0.6 10.1 0.6 6.5 0.6 10.1 0 0.5-0.4 0.8-0.3 0.3-0.8 0.3z"/>
								</g>
								<g id="&lt;Group&gt;">
									<path id="&lt;Compound Path&gt;" class="s5" d="m969.8 106.2q0-0.9 1.2-0.9h0.3l0.4 0.1q0.3 0 0.4-0.2 0.1-0.2 0.1-0.6 0-0.6-0.1-1.9-0.1-0.9-0.2-3.1-0.3-5.4-0.3-8.2 0-1 0-1.8v-1.8q0-1.2-0.1-2-0.5 0.2-0.8 0.2-0.9 0-0.9-0.9 0-0.4 0.6-0.7 0.5-0.4 1.3-0.5 1.5-0.3 2.6-0.3 0.4 0 0.7 0.3 0.3 0.3 0.3 0.7 0 0.4-0.2 0.7-0.3 0.3-0.6 0.3-0.2 0-0.4-0.1h-0.3q-0.3 0-0.5 0.2-0.1 0.2-0.1 0.6 0 3.4 0.4 10.4 0.1 1.2 0.3 3.7 0.1 1.7 0.1 3.4v1.3q0.3 0 0.8 0 1.5 0 1.5 1.2v0.3l-0.9 0.6q-0.1 0-0.3 0-0.2 0-0.7 0-1.1 0.1-1.5 0.1-3.1 0-3.1-1.1z"/>
								</g>
								<g id="&lt;Group&gt;">
									<path id="&lt;Compound Path&gt;" fill-rule="evenodd" class="s5" d="m981.7 107.4q-0.8-0.6-1.3-1.6-1.1-2.2-1.3-4.7-0.3-2.4-0.3-4.7 0-0.4 0-0.7v-0.6q0-0.2 0-0.2v-0.7-2.4q0-1.2 0.3-3.7 0.2-1.7 0.8-3.3 0.3-0.7 0.7-1.1 0.3-0.3 0.8-0.3 1.5 0 2.6 0.5 1.1 0.5 1.9 1.4 0.7 0.9 1.2 2.2 0.5 1.3 0.7 2.8 0.3 1.5 0.3 3.1v0.3q0 1.1 0 2v2q0 10.3-4.7 10.3-1 0-1.7-0.6zm2.7-1.4q0.5-0.5 0.8-1.4 0.7-1.9 0.8-3.9 0.2-1.9 0.2-3.2 0-1.6-0.2-4.2-0.2-2.7-0.2-4.1v-0.6q-0.1-1.4-1-2.4-0.8-1-2-1-1.2 0-1.6 1.4-0.4 1.1-0.4 2.9 0 0.7 0.1 1.1v1l-0.1 1.6q-0.1 0.8-0.1 1.7 0 1.9 0.1 3.8 0.2 2.6 0.8 5.2 0.5 2.6 1.6 2.6 0.7 0 1.2-0.5z"/>
								</g>
								<g id="&lt;Group&gt;">
									<path id="&lt;Compound Path&gt;" class="s5" d="m1001.1 107.2q-0.2-0.3-0.3-0.8l-0.3-0.7v-0.1-0.1q0-1.2-2.4-8-2.4-6.8-3.8-10.1v17.9l0.1 0.3q0.1 0 0.2 0.2 0.1 0.2 0.1 0.4 0 0.4-0.3 0.7-0.4 0.4-0.8 0.4-1.2 0-1.2-2.2v-6.1q0-2.7 0-6.1 0-1.1 0.1-3.3 0.1-2.3 0.1-3.3 0-1.7 1.3-2.7v0.3q0.2-0.1 0.2-0.1 0.9 0 2.1 2.8 1 2.3 1.8 4.8 0.8 2.6 2.1 7.2l0.4 1.3q0.8 2.9 1.2 4.1 0.7-7.6 0.7-18v-0.5q0-0.2 0-0.5 0-1 0.9-1 0.4 0 0.7 0.4 0.3 0.3 0.3 1v2.6q-0.1 5.5-0.4 11.9-0.4 6.4-0.9 7.2-1 0.3-1.3 0.3-0.4 0-0.6-0.2z"/>
								</g>
							</g>
						</g>
						<g id="&lt;Group&gt;">
							<g id="&lt;Group&gt;">
								<g id="&lt;Group&gt;">
									<path id="&lt;Path&gt;" class="s1" d="m1059.2 577.8h-290.8v-448.7h290.8z"/>
								</g>
							</g>
							<g id="&lt;Group&gt;">
								<g id="&lt;Group&gt;">
									<path id="&lt;Path&gt;" class="s0" d="m976.8 583.2h-7.8v-456.8h7.8z"/>
								</g>
							</g>
							<g id="&lt;Group&gt;">
								<g id="&lt;Group&gt;">
									<path id="&lt;Path&gt;" class="s0" d="m817.9 586.1h-3.9v-456.8h3.9z"/>
								</g>
							</g>
							<g id="&lt;Group&gt;">
								<g id="&lt;Group&gt;">
									<path id="&lt;Path&gt;" class="s0" d="m758.2 210.3v-7.7h308.6v7.7z"/>
								</g>
							</g>
							<g id="&lt;Group&gt;">
								<g id="&lt;Group&gt;">
									<path id="&lt;Path&gt;" class="s0" d="m758.2 417.8v-7.7h308.6v7.7z"/>
								</g>
							</g>
							<g id="&lt;Group&gt;">
								<g id="&lt;Group&gt;">
									<path id="&lt;Path&gt;" class="s0" d="m759.5 334v-3.8h308.6v3.8z"/>
								</g>
							</g>
							<g id="&lt;Group&gt;">
								<g id="&lt;Group&gt;">
									<path id="&lt;Path&gt;" class="s0" d="m758.2 519.8v-3.9h308.6v3.9z"/>
								</g>
							</g>
							<g id="&lt;Group&gt;">
								<g id="&lt;Group&gt;">
									<path id="&lt;Path&gt;" class="s0" d="m1027.2 583.2h-7.7v-456.8h7.7z"/>
								</g>
							</g>
							<g id="&lt;Group&gt;">
								<g id="&lt;Group&gt;">
									<path id="&lt;Path&gt;" class="s0" d="m880.6 581.8h-12.3v-456.7h12.3z"/>
								</g>
							</g>
						</g>
						<g id="&lt;Group&gt;">
							<g id="&lt;Group&gt;">
								<path id="&lt;Path&gt;" class="s4" d="m817.9 518.9c-1.6 0-2.9-1.3-2.9-3v-104.9h62.7v-81.9h92.3v-122.7c0-1.6 1.3-2.9 2.9-2.9 1.7 0 3 1.3 3 2.9v128.7h-92.3v81.8h-62.7v99c0 1.7-1.3 3-3 3z"/>
							</g>
						</g>
						<g id="&lt;Group&gt;">
							<g id="&lt;Group&gt;">
								<g id="&lt;Group&gt;">
									<path id="&lt;Path&gt;" class="s6" d="m844.9 519.3c0 15.1-12.2 27.3-27.3 27.3-15.1 0-27.4-12.2-27.4-27.3 0-15.1 12.3-27.4 27.4-27.4 15.1 0 27.3 12.3 27.3 27.4z"/>
								</g>
							</g>
							<g id="&lt;Group&gt;">
								<g id="&lt;Group&gt;">
									<path id="&lt;Path&gt;" class="s0" d="m839.1 519.3c0 11.9-9.6 21.5-21.5 21.5-11.9 0-21.6-9.6-21.6-21.5 0-11.9 9.7-21.6 21.6-21.6 11.9 0 21.5 9.7 21.5 21.6z"/>
								</g>
							</g>
						</g>
						<g id="&lt;Group&gt;">
							<g id="&lt;Group&gt;">
								<g id="&lt;Group&gt;">
									<path id="&lt;Path&gt;" class="s6" d="m999.1 196.5c0 15.1-12.2 27.3-27.3 27.3-15.2 0-27.4-12.2-27.4-27.3 0-15.1 12.2-27.4 27.4-27.4 15.1 0 27.3 12.3 27.3 27.4z"/>
								</g>
							</g>
							<g id="&lt;Group&gt;">
								<g id="&lt;Group&gt;">
									<path id="&lt;Path&gt;" class="s0" d="m993.3 196.5c0 11.9-9.6 21.5-21.5 21.5-11.9 0-21.6-9.6-21.6-21.5 0-11.9 9.7-21.6 21.6-21.6 11.9 0 21.5 9.7 21.5 21.6z"/>
								</g>
							</g>
						</g>
						<g id="&lt;Group&gt;">
							<g id="&lt;Group&gt;">
								<path id="&lt;Path&gt;" class="s3" d="m803 510.6l16.2 25.2 1.2-12.9 12.4-6.3z"/>
							</g>
						</g>
						<g id="&lt;Group&gt;">
							<g id="&lt;Group&gt;">
								<g id="&lt;Group&gt;">
									<path id="&lt;Path&gt;" class="s3" d="m974.9 207.9c-0.9 0-1.5-0.6-1.5-1.5v-68c0-0.8 0.6-1.5 1.5-1.5 0.8 0 1.4 0.7 1.4 1.5v68c0 0.9-0.6 1.5-1.4 1.5z"/>
								</g>
							</g>
							<g id="&lt;Group&gt;">
								<g id="&lt;Group&gt;">
									<path id="&lt;Path&gt;" class="s4" d="m971.8 142.5h39.4l-10.8 10.8 10.5 10.5h-39.1z"/>
								</g>
							</g>
						</g>
						<g id="&lt;Group&gt;">
							<g id="&lt;Group&gt;">
								<g id="&lt;Group&gt;">
									<path id="&lt;Path&gt;" class="s6" d="m889 223.1h-120.6v-59.3h120.6l23.5 29.7z"/>
								</g>
							</g>
							<g id="&lt;Group&gt;">
								<g id="&lt;Group&gt;">
									<path id="&lt;Compound Path&gt;" fill-rule="evenodd" class="s5" d="m785.9 202.6q-0.4-0.2-0.4-0.7 0.6-0.6 0.6-3.2 0-1.6-0.3-4.6-0.2-2.9-0.2-4.5v-1.5q0.1-0.7 0.1-1.6 0-0.7-0.3-1.9-0.4-1.3-0.4-1.8 0-0.9 2.2-0.9h0.4q1.5 0 2.6 0.9 0.9 0.8 1.5 2.2 0.4 1 0.7 2.8 0.2 1.5 0.2 2.4v2.2q-0.1 0.1-0.1 0.2 0 0.2 0 0.3 0.1 0.2 0.1 0.3 0 0.9-0.3 2.1-0.3 1.3-0.8 2.5-1.2 3.1-2.8 4.3-0.9 0.7-1.9 0.7-0.5 0-0.9-0.2zm3.3-3.2q0.8-1.2 1.2-2.7 0.7-2.7 0.7-5.4 0-1.5-0.2-3.3-0.3-1.7-1.3-3.1-0.5-0.6-1.2-1-0.7-0.4-1.6-0.4v0.1q0 2.4 0.3 7.5 0.3 5 0.3 7.5v2.6q1-0.6 1.8-1.8z"/>
								</g>
								<g id="&lt;Group&gt;">
									<path id="&lt;Compound Path&gt;" class="s5" d="m796.5 202.9q-0.2-0.2-0.3-0.6v-0.7-0.6q0-0.2 0-0.6 0-0.5-0.1-1.7v-1.8q0-1.3 0-4 0.2-2.4 0.2-4 0-0.4-0.1-1.2-0.1-0.8-0.1-1.2 0-1.9 1.1-1.9 1 0 2.2 0.3 1.2 0.4 1.2 0.9 0 0.3-0.3 0.5-0.2 0.2-0.5 0.4-1.2-0.4-2.1-0.6 0 0.4 0 1.2 0 1.1 0 2-0.1 1.3-0.1 2l0.1 0.4h0.4q0.2 0 0.6 0 1.3 0 1.3 0.7 0 0.3-0.3 0.6-0.2 0.2-0.6 0.2-0.5 0-0.8-0.1h-0.7q0.1 0.7 0.1 2.1 0 1.4 0 2.5-0.1 1.7-0.1 2.5 0 1.5 0 1.5h0.9q0.5 0 1.2 0 1 0 1 0.7 0 0.3-0.3 0.5-0.4 0.3-0.9 0.3h-2.3q-0.4 0-0.7-0.3z"/>
								</g>
								<g id="&lt;Group&gt;">
									<path id="&lt;Compound Path&gt;" class="s5" d="m803.4 202.8q-0.3-0.3-0.4-0.7l0.3-0.5q0.2 0 0.5 0.1 0.5 0.1 0.7 0.1 0.5 0 0.9-0.4 0.4-0.5 0.6-1.2 0.3-1.3 0.3-2.3 0-1.9-1.1-3.9l-0.3-0.5q-0.6-0.9-0.9-1.6-0.4-0.8-0.6-1.6-0.4-1.1-0.4-2.1 0-1.2 0.6-2.6 0.3-0.6 0.8-1 0.5-0.4 1.1-0.4 0.5 0 1 0.3 0.4 0.3 0.4 0.8 0 0.2-0.2 0.4-0.2 0.1-0.5 0.1-0.3 0-0.6-0.2-0.6 0.1-0.9 1.1-0.3 1-0.3 1.6 0 0.8 0.2 1.6 0.3 0.8 0.6 1.5l0.7 1.1 0.9 1.8q0.4 0.8 0.6 1.8 0.3 1 0.3 2.1 0 1.7-0.8 3.2-0.4 0.8-1.1 1.2-0.7 0.5-1.5 0.5v0.1q-0.5-0.1-0.9-0.4z"/>
								</g>
								<g id="&lt;Group&gt;">
									<path id="&lt;Compound Path&gt;" class="s5" d="m812.1 202.4v-1.1q0-0.5 0-1.1v-0.9q-0.1-0.3-0.4-6.1-0.4-5.7-0.4-7.3-1.6-0.1-2-0.4-0.4-0.2-0.4-0.5 0-0.2 0.3-0.4 0.3-0.1 0.6-0.1 0.8 0 1.9 0.1 1.1 0.1 1.9 0.1h0.2 0.2q0.9 0 0.9 0.7 0 0.3-0.3 0.5-0.3 0.2-0.6 0.2-0.3 0-0.7-0.1l-0.6-0.1v0.2l-0.1 0.1q0 2.5 0.5 7.8 0.5 5.1 0.5 7.9 0 0.3-0.3 0.6-0.3 0.2-0.7 0.2z"/>
								</g>
								<g id="&lt;Group&gt;">
									<path id="&lt;Compound Path&gt;" class="s5" d="m816.6 201.9q0-0.6 0.9-0.6h0.3 0.3q0.2 0 0.3-0.1 0-0.2 0-0.5 0-0.5 0-1.5-0.1-0.7-0.2-2.4-0.3-4.2-0.3-6.3 0-0.8 0.1-1.5v-1.4q0-0.9-0.1-1.5-0.4 0.1-0.6 0.1-0.7 0-0.7-0.6 0-0.4 0.4-0.6 0.5-0.3 1.1-0.4 1.1-0.2 1.9-0.2 0.4 0 0.6 0.2 0.2 0.3 0.2 0.6 0 0.3-0.1 0.5-0.2 0.2-0.5 0.2-0.2 0-0.3 0h-0.2q-0.3 0-0.4 0.1-0.1 0.2-0.1 0.5 0 2.7 0.3 8 0.1 1 0.2 3 0.2 1.2 0.2 2.6v1q0.1 0 0.5 0 1.2 0 1.2 0.9v0.2l-0.7 0.5q0 0-0.2 0-0.1 0-0.5 0-0.9 0.1-1.2 0.1-2.4 0-2.4-0.9z"/>
								</g>
								<g id="&lt;Group&gt;">
									<path id="&lt;Compound Path&gt;" class="s5" d="m830.9 202.7q-0.1-0.2-0.2-0.6l-0.2-0.5v-0.1-0.1q0-0.9-1.9-6.2-1.9-5.3-3-7.8v13.8l0.2 0.2q0 0.1 0.1 0.2 0 0.2 0 0.3 0.1 0.4-0.2 0.6-0.2 0.3-0.6 0.3-0.9 0-0.9-1.7v-4.7q0-2.2 0-4.8 0-0.9 0-2.6 0.1-1.7 0.1-2.5 0-1.3 1-2.1v0.2q0.2 0 0.2-0.1 0.7 0 1.6 2.3 0.8 1.7 1.4 3.7 0.7 1.9 1.7 5.6l0.2 1q0.7 2.2 1 3.2 0.6-6 0.6-14.1v-0.3q-0.1-0.2-0.1-0.4 0-0.8 0.7-0.8 0.4 0 0.6 0.3 0.2 0.3 0.2 0.8v2q-0.1 4.3-0.3 9.3-0.3 4.9-0.7 5.6-0.8 0.2-1 0.2-0.3 0-0.5-0.2z"/>
								</g>
								<g id="&lt;Group&gt;">
									<path id="&lt;Compound Path&gt;" fill-rule="evenodd" class="s5" d="m841.6 202.8q-0.3-0.1-0.3-0.7 0-0.8-0.3-2.8l-0.1-0.6-2.7-0.4q-0.2 0.7-0.5 2.6-0.2 1.3-0.5 1.8-0.2 0.2-0.6 0.2-0.3 0-0.6-0.2-0.3-0.2-0.3-0.5l0.1-0.1v-0.1q1.9-7.1 2.8-14 0-0.1 0-0.4 0-0.3 0.1-0.8 0.1-1 0.2-1.6 0-0.6 0.3-0.9h0.9q0.4 0 0.7 0.2 0.2 0.2 0.2 0.5 0 2.1 0.6 6.2 0.6 4.3 0.6 6 0 0.2 0.1 0.8 0.2 0.7 0.2 0.9 0 0.2 0.2 1.6 0.3 1.4 0.3 1.7v0.1q0 0.6-0.5 0.7-0.6 0-0.9-0.2zm-1-6.1q0-2.5-0.4-6.3l-0.3-2.9q-1.2 6.5-1.6 9.8 0.4 0.3 2.4 0.4-0.1-0.4-0.1-1z"/>
								</g>
								<g id="&lt;Group&gt;">
									<path id="&lt;Compound Path&gt;" class="s5" d="m846.9 202.4v-1.1q-0.1-0.5-0.1-1.1l0.1-0.9q-0.1-0.3-0.4-6.1-0.4-5.7-0.4-7.3-1.6-0.1-2.1-0.4-0.3-0.2-0.3-0.5 0-0.2 0.3-0.4 0.3-0.1 0.6-0.1 0.8 0 1.9 0.1 1 0.1 1.9 0.1h0.2 0.2q0.9 0 0.9 0.7 0 0.3-0.3 0.5-0.3 0.2-0.7 0.2-0.2 0-0.7-0.1l-0.5-0.1v0.2l-0.1 0.1q0 2.5 0.5 7.8 0.4 5.1 0.4 7.9 0 0.3-0.3 0.6-0.2 0.2-0.6 0.2z"/>
								</g>
								<g id="&lt;Group&gt;">
									<path id="&lt;Compound Path&gt;" class="s5" d="m851.4 201.9q0-0.6 0.9-0.6h0.3 0.2q0.3 0 0.3-0.1 0.1-0.2 0.1-0.5 0-0.5 0-1.5-0.1-0.7-0.2-2.4-0.3-4.2-0.3-6.3 0-0.8 0.1-1.5v-1.4q0-0.9-0.1-1.5-0.4 0.1-0.6 0.1-0.7 0-0.7-0.6 0-0.4 0.4-0.6 0.4-0.3 1.1-0.4 1.1-0.2 1.9-0.2 0.4 0 0.6 0.2 0.2 0.3 0.2 0.6 0 0.3-0.2 0.5-0.1 0.2-0.4 0.2-0.2 0-0.3 0h-0.2q-0.3 0-0.4 0.1-0.1 0.2-0.1 0.5 0 2.7 0.3 8 0.1 1 0.2 3 0.2 1.2 0.2 2.6v1q0.1 0 0.5 0 1.2 0 1.2 0.9v0.2l-0.7 0.5q-0.1 0-0.2 0-0.2 0-0.6 0-0.9 0.1-1.1 0.1-2.4 0-2.4-0.9z"/>
								</g>
								<g id="&lt;Group&gt;">
									<path id="&lt;Compound Path&gt;" fill-rule="evenodd" class="s5" d="m860.6 202.9q-0.6-0.5-1-1.3-0.8-1.6-1-3.6-0.3-1.9-0.3-3.7 0-0.3 0.1-0.5v-0.5q0-0.1-0.1-0.1v-0.5l0.1-2q0-0.9 0.2-2.8 0.1-1.3 0.6-2.5 0.2-0.6 0.5-0.9 0.3-0.3 0.7-0.3 1.1 0 2 0.4 0.9 0.4 1.5 1.1 0.5 0.7 0.9 1.7 0.4 1 0.6 2.2 0.1 1.1 0.1 2.4v0.3q0 0.8 0.1 1.5v1.6q0 7.9-3.7 7.9-0.7 0-1.3-0.4zm2.1-1.1q0.4-0.4 0.6-1.1 0.5-1.4 0.7-3.1 0.1-1.4 0.1-2.4 0-1.2-0.2-3.3-0.2-2.1-0.2-3.1v-0.5q0-1.1-0.7-1.8-0.6-0.8-1.6-0.8-0.9 0-1.2 1.1-0.3 0.8-0.3 2.2 0 0.5 0.1 0.8v0.8l-0.1 1.3q-0.1 0.5-0.1 1.2 0 1.5 0.1 3 0.1 2.1 0.6 4 0.4 2.1 1.3 2.1 0.5 0 0.9-0.4z"/>
								</g>
								<g id="&lt;Group&gt;">
									<path id="&lt;Compound Path&gt;" class="s5" d="m875.6 202.7q-0.1-0.2-0.2-0.6l-0.2-0.5v-0.1-0.1q0-0.9-1.9-6.2-1.9-5.3-2.9-7.8v13.8l0.1 0.2q0 0.1 0.1 0.2 0.1 0.2 0.1 0.3 0 0.4-0.3 0.6-0.2 0.3-0.6 0.3-0.9 0-0.9-1.7v-4.7q0-2.2 0-4.8 0-0.9 0.1-2.6 0-1.7 0-2.5 0-1.3 1-2.1v0.2q0.2 0 0.2-0.1 0.7 0 1.6 2.3 0.8 1.7 1.4 3.7 0.7 1.9 1.7 5.6l0.3 1q0.6 2.2 0.9 3.2 0.6-6 0.6-14.1v-0.3q0-0.2 0-0.4 0-0.8 0.6-0.8 0.4 0 0.6 0.3 0.2 0.3 0.2 0.8v2q0 4.3-0.3 9.3-0.3 4.9-0.7 5.6-0.8 0.2-1 0.2-0.3 0-0.5-0.2z"/>
								</g>
							</g>
						</g>
					</g>
					<g id="&lt;Group&gt;">
						<g id="&lt;Group&gt;">
							<g id="&lt;Group&gt;">
								<g id="&lt;Group&gt;">
									<path id="&lt;Compound Path&gt;" fill-rule="evenodd" class="s3" d="m875.5 615.4c-3.3 0-6.4-1.3-8.7-3.6-4.8-4.8-4.8-12.6 0-17.4 4.8-4.8 12.6-4.8 17.4 0 4.8 4.8 4.8 12.6 0 17.4-2.3 2.3-5.4 3.6-8.7 3.6zm0-22.2c-2.5 0-5.1 1-7 2.9-3.8 3.9-3.8 10.1 0 14 3.9 3.8 10.1 3.8 14 0 3.8-3.9 3.8-10.1 0-14-1.9-1.9-4.5-2.9-7-2.9z"/>
								</g>
							</g>
							<g id="&lt;Group&gt;">
								<g id="&lt;Group&gt;">
									<path id="&lt;Path&gt;" class="s3" d="m895.3 624.2c-0.3 0-0.6-0.2-0.8-0.4l-12-12c-0.5-0.5-0.5-1.2 0-1.7 0.5-0.5 1.2-0.5 1.7 0l12 12c0.5 0.5 0.5 1.2 0 1.7-0.2 0.2-0.6 0.4-0.9 0.4z"/>
								</g>
							</g>
						</g>
						<g id="&lt;Group&gt;">
							<g id="&lt;Group&gt;">
								<path id="&lt;Compound Path&gt;" fill-rule="evenodd" class="s3" d="m915.2 622.7l-0.9-0.9c-0.6-0.7-15.6-15.9-15.6-24.8 0-2.4 1-3.4 1.9-3.8 3.8-1.8 11.7 3.8 14.6 5.9 2.9-2.1 10.8-7.7 14.5-5.9 0.9 0.4 2 1.4 2 3.8 0 8.9-15 24.1-15.7 24.8zm-12.7-27.5q-0.4 0-0.8 0.2-0.6 0.3-0.6 1.6c0 6.1 9.5 17.4 14.1 22.2 4.7-4.8 14.1-16.1 14.1-22.2q0-1.3-0.6-1.6c-2-1-8.8 3.1-12.7 6.3l-0.8 0.6-0.7-0.6c-3.5-2.8-9.4-6.5-12-6.5z"/>
							</g>
						</g>
						<g id="&lt;Group&gt;">
							<g id="&lt;Group&gt;">
								<g id="&lt;Group&gt;">
									<path id="&lt;Compound Path&gt;" fill-rule="evenodd" class="s3" d="m962.3 619.2h-23.9c-0.8 0-1.6-0.5-1.9-1.3-0.4-0.8-0.2-1.7 0.4-2.3l3.9-3.8v-12.2c0-5.2 4.2-9.4 9.4-9.4 5.1 0 9.3 4.2 9.3 9.4v12.1l4.3 3.9c0.6 0.6 0.8 1.5 0.5 2.3-0.3 0.8-1.1 1.3-2 1.3zm-23.1-2.4h22.3l-3.7-3.4c-0.4-0.4-0.7-0.9-0.7-1.5v-12.3c0-3.8-3.1-6.9-6.9-6.9-3.9 0-7 3.1-7 6.9v12.3c0 0.5-0.2 1.1-0.6 1.5z"/>
								</g>
							</g>
							<g id="&lt;Group&gt;">
								<g id="&lt;Group&gt;">
									<path id="&lt;Path&gt;" class="s3" d="m951.4 624.7h-2.1c-3.3 0-6-2.7-6-6v-0.7h2.5v0.7c0 2 1.6 3.6 3.5 3.6h2.1c2 0 3.6-1.6 3.6-3.6v-0.7h2.4v0.7c0 3.3-2.7 6-6 6z"/>
								</g>
							</g>
						</g>
					</g>
				</g>
				<g id="&lt;Group&gt;">
					<g id="&lt;Group&gt;">
						<path id="&lt;Path&gt;" class="s4" d="m944.4 775.6l346.5-172.5 209.1 240.5h-523.2z"/>
					</g>
				</g>
				<g id="&lt;Group&gt;">
					<g id="&lt;Group&gt;">
						<g id="&lt;Group&gt;">
							<path id="&lt;Path&gt;" class="s7" d="m1195.1 140.1c-5.6 10.5-11.9 22.2-10.5 34.6 1.1 9.5 6.6 18.8 16.1 21.7 1.9 0.5 2.7-2.4 0.8-3-8.8-2.7-13.6-12-14-20.8-0.5-11.1 5.2-21.5 10.3-31 0.9-1.7-1.8-3.3-2.7-1.5z"/>
						</g>
					</g>
				</g>
				<g id="&lt;Group&gt;">
					<g id="&lt;Group&gt;">
						<g id="&lt;Group&gt;">
							<path id="&lt;Path&gt;" class="s7" d="m1179.2 243.4q4 1.5 8 3.1c0.8 0.3 1.8-0.3 1.9-1.1 0.2-0.8-0.2-1.5-1-1.8q-4.1-1.6-8.1-3.2c-0.7-0.3-1.7 0.3-1.9 1.1-0.2 0.8 0.3 1.5 1.1 1.9z"/>
						</g>
					</g>
				</g>
				<g id="&lt;Group&gt;">
					<g id="&lt;Group&gt;">
						<g id="&lt;Group&gt;">
							<path id="&lt;Path&gt;" class="s7" d="m1181.9 235.4q4.1 2.3 8.1 4.6c0.7 0.4 1.8 0.2 2.1-0.6 0.4-0.7 0.2-1.6-0.5-2.1q-4.1-2.3-8.1-4.6c-0.7-0.4-1.7-0.2-2.1 0.6-0.4 0.7-0.2 1.7 0.5 2.1z"/>
						</g>
					</g>
				</g>
				<g id="&lt;Group&gt;">
					<g id="&lt;Group&gt;">
						<g id="&lt;Group&gt;">
							<path id="&lt;Path&gt;" class="s2" d="m729.8 252.2c-17.8 0-34.5 11.2-44.1 26.2-9.5 15.1-12.6 33.6-11.5 51.4 1 16.7 5.6 33.6 15.9 46.8 10.3 13.2 26.8 22.1 43.5 20.6 23.2-2.1 40.9-23.5 46-46.2 6.8-30.1 1.7-68.8-23.5-89.3-7.3-6-16.8-9.5-26.3-9.5z"/>
						</g>
					</g>
					<g id="&lt;Group&gt;">
						<g id="&lt;Group&gt;">
							<path id="&lt;Path&gt;" class="s2" d="m729.4 377.2c-16.4 0-31.8 10.2-40.6 24.1-8.8 13.9-11.5 30.9-10.6 47.2 0.9 15.4 5.2 30.9 14.7 43 9.4 12.1 24.6 20.3 39.9 18.9 21.3-1.9 37.6-21.6 42.3-42.4 6.3-27.7 1.5-63.3-21.6-82.1-6.7-5.5-15.4-8.7-24.1-8.7z"/>
						</g>
					</g>
					<g id="&lt;Group&gt;">
						<g id="&lt;Group&gt;">
							<path id="&lt;Path&gt;" class="s2" d="m718.9 479.9c-13.8 0.1-26.7 8.6-34.1 20.3-7.3 11.6-9.7 25.9-8.9 39.7 0.8 12.9 4.4 25.9 12.3 36.1 8 10.2 20.8 17 33.6 15.9 17.9-1.6 31.6-18.2 35.6-35.7 5.2-23.3 1.2-53.1-18.2-69-5.7-4.6-13-7.3-20.3-7.3z"/>
						</g>
					</g>
					<g id="&lt;Group&gt;">
						<g id="&lt;Group&gt;">
							<g id="&lt;Group&gt;">
								<g id="&lt;Group&gt;">
									<path id="&lt;Path&gt;" class="s7" d="m761.6 291.4q0.5 13.1 0.2 26.3c-0.2 8.6 0 17.7-1.9 26.2-1.5 7.1-5.9 14.9-13.8 16.2-4.4 0.7-9-0.5-13.3-1.5-3.8-0.9-7.6-2.2-10.6-4.7-10.8-9.2-9.1-27.6-8.1-40.2 0.7-8.6 2-17.2 4.1-25.5 1.7-6.9 4.4-14.4 10.8-18.2 6.7-4 15.4-3.1 21.6 1.3 6.4 4.6 12.3 11.3 11.1 19.7-0.3 1.9 2.6 2.8 2.9 0.8 1.1-7.4-2.1-13.8-7.4-18.9-5.4-5.3-12-8.9-19.8-8.5-18.9 1.1-22.6 22.1-24.9 37.1-1.5 9.5-2.3 19.2-2 28.9 0.3 7.1 1.4 14.8 5.4 20.9 4.7 7.2 12.4 9.6 20.4 11.2 4.2 0.8 8.7 1.5 12.8 0 3.5-1.2 6.5-3.5 8.7-6.5 6.3-8 6.3-19 6.7-28.7q0.8-18 0.2-35.9c-0.1-2-3.2-2-3.1 0z"/>
								</g>
							</g>
						</g>
						<g id="&lt;Group&gt;">
							<g id="&lt;Group&gt;">
								<g id="&lt;Group&gt;">
									<path id="&lt;Path&gt;" class="s7" d="m717.6 287.4c11.6 11.9 9.9 33.9-3.6 43.8-1.5 1.1 0 3.8 1.6 2.6 15.1-11 17.3-35.1 4.2-48.6-1.4-1.4-3.5 0.7-2.2 2.2z"/>
								</g>
							</g>
						</g>
					</g>
					<g id="&lt;Group&gt;">
						<g id="&lt;Group&gt;">
							<g id="&lt;Group&gt;">
								<g id="&lt;Group&gt;">
									<path id="&lt;Path&gt;" class="s7" d="m756.4 421.5q0.4 12.1 0.1 24.1c-0.2 7.6 0 15.4-1.6 22.8-1.4 6.5-5.2 13.5-12.4 14.6-3.7 0.6-7.6-0.3-11.2-1.2-3.4-0.8-6.9-1.8-9.7-4-10-7.9-8.5-24.5-7.6-35.7 0.6-7.8 1.8-15.6 3.7-23.2 1.5-6.1 3.8-12.7 9.3-16.2 5.7-3.7 13.4-3.2 19 0.5 5.9 4 11.5 10.3 10.4 17.9-0.3 2 2.7 2.8 3 0.8 1.9-13.1-12-25.5-24.7-24.7-16.9 1-20.3 19.7-22.4 33.1-1.3 8.8-2.1 17.7-1.8 26.6 0.3 6.5 1.4 13.4 5.2 18.9 4.2 6.2 11.1 8.3 18.2 9.7 7.5 1.5 14.3 0.6 19.3-5.7 5.7-7.3 5.7-17.3 6.1-26.1q0.7-16.1 0.1-32.2c0-1.9-3.1-2-3 0z"/>
								</g>
							</g>
						</g>
						<g id="&lt;Group&gt;">
							<g id="&lt;Group&gt;">
								<g id="&lt;Group&gt;">
									<path id="&lt;Path&gt;" class="s7" d="m717 418c10.3 10.7 8.8 30.3-3.2 39.1-1.6 1.1-0.1 3.8 1.5 2.6 13.6-10 15.6-31.7 3.8-43.9-1.3-1.4-3.5 0.8-2.1 2.2z"/>
								</g>
							</g>
						</g>
					</g>
					<g id="&lt;Group&gt;">
						<g id="&lt;Group&gt;">
							<g id="&lt;Group&gt;">
								<g id="&lt;Group&gt;">
									<path id="&lt;Path&gt;" class="s7" d="m742.3 521.8q0.3 7.9 0.1 15.9c-0.1 5.2 0 10.7-0.9 15.8-0.9 4.4-3.2 9.4-7.9 10.5-2.4 0.5-4.9-0.1-7.2-0.6-2.6-0.6-5.2-1.2-7.3-2.8-6.9-5.3-5.8-16.8-5.2-24.4 0.4-5.3 1.2-10.6 2.4-15.8 1-4.1 2.5-8.8 6.3-11.2 8.2-5.4 21 3 19.7 12.6-0.2 2 2.8 1.9 3.1 0 1.2-9.2-8.7-17.9-17.6-17.4-11.9 0.7-14.5 13.6-16 23.1-1 6.2-1.5 12.5-1.3 18.7 0.2 4.7 1 9.7 3.7 13.6 3.1 4.4 8 5.9 13.1 6.9 5.2 1 9.9 0.4 13.4-3.9 4.1-4.9 4.3-11.6 4.6-17.7q0.5-11.6 0.1-23.3c-0.1-2-3.2-2-3.1 0z"/>
								</g>
							</g>
						</g>
						<g id="&lt;Group&gt;">
							<g id="&lt;Group&gt;">
								<g id="&lt;Group&gt;">
									<path id="&lt;Path&gt;" class="s7" d="m715.1 519.7c7 7.2 6 20.4-2.1 26.4-1.6 1.1-0.1 3.8 1.5 2.6 9.7-7.1 11.2-22.5 2.8-31.2-1.4-1.4-3.6 0.8-2.2 2.2z"/>
								</g>
							</g>
						</g>
					</g>
				</g>
				<g id="&lt;Group&gt;">
					<g id="&lt;Group&gt;">
						<g id="&lt;Group&gt;">
							<path id="&lt;Path&gt;" class="s7" d="m1193.9 188.2c3-4.2 7.9-7.1 13-7.7 0.8-0.1 1.5-0.6 1.5-1.5 0-0.8-0.7-1.6-1.5-1.5-6.3 0.6-12 3.9-15.6 9.1-0.5 0.7-0.1 1.7 0.5 2.1 0.8 0.5 1.7 0.1 2.1-0.5z"/>
						</g>
					</g>
				</g>
				<g id="&lt;Group&gt;">
					<g id="&lt;Group&gt;">
						<g id="&lt;Group&gt;">
							<path id="&lt;Path&gt;" class="s6" d="m987 829.2q67.8-31.5 135.5-63 67.2-31.2 134.5-62.5 38-17.7 76.1-35.4c1.7-0.8 0.2-3.4-1.6-2.6q-67.7 31.5-135.4 62.9-67.3 31.3-134.5 62.6-38.1 17.6-76.1 35.3c-1.8 0.9-0.2 3.5 1.5 2.7z"/>
						</g>
					</g>
				</g>
				<g id="&lt;Group&gt;">
					<g id="&lt;Group&gt;">
						<g id="&lt;Group&gt;">
							<path id="&lt;Path&gt;" class="s6" d="m1284.9 690.6c20.5 38 42.5 75.2 65.8 111.6q9.9 15.4 20.1 30.6c1.1 1.6 3.8 0.1 2.7-1.5-24.1-35.9-46.9-72.6-68.2-110.2q-9-16-17.7-32.1c-0.9-1.7-3.6-0.2-2.7 1.6z"/>
						</g>
					</g>
				</g>
				<g id="&lt;Group&gt;">
					<g id="&lt;Group&gt;">
						<g id="&lt;Group&gt;">
							<path id="&lt;Path&gt;" class="s6" d="m1212.8 723.7c11.1 30.2 24 59.8 38.5 88.6q6.2 12.3 12.8 24.4c0.9 1.7 3.6 0.2 2.6-1.5-19.7-36.2-36.7-73.7-50.9-112.4-0.7-1.8-3.6-1-3 0.9z"/>
						</g>
					</g>
				</g>
				<g id="&lt;Group&gt;">
					<g id="&lt;Group&gt;">
						<g id="&lt;Group&gt;">
							<path id="&lt;Path&gt;" class="s6" d="m1117.6 771.4q13.1 33.7 26.2 67.3c0.7 1.8 3.7 1.1 3-0.8q-13.1-33.7-26.2-67.3c-0.7-1.9-3.7-1.1-3 0.8z"/>
						</g>
					</g>
				</g>
				<g id="&lt;Group&gt;">
					<g id="&lt;Group&gt;">
						<g id="&lt;Group&gt;">
							<path id="&lt;Path&gt;" class="s6" d="m1047.8 802.7c1.9 13.8 6.9 27.1 14.4 38.8 1.1 1.7 3.7 0.2 2.7-1.5-7.4-11.6-12.2-24.5-14.2-38.1-0.3-2-3.2-1.1-2.9 0.8z"/>
						</g>
					</g>
				</g>
			</g>
			<g id="&lt;Group&gt;">
				<g id="&lt;Group&gt;">
					<g id="&lt;Group&gt;">
						<g id="&lt;Group&gt;">
							<path id="&lt;Path&gt;" class="s6" d="m299.6 843.6h-226.3v-226.3h226.3z"/>
						</g>
					</g>
					<g id="&lt;Group&gt;">
						<g id="&lt;Group&gt;">
							<path id="&lt;Path&gt;" class="s8" d="m391.6 843.6h-92v-226.3h92z"/>
						</g>
					</g>
					<g id="&lt;Group&gt;">
						<g id="&lt;Group&gt;">
							<path id="&lt;Path&gt;" class="s6" d="m375.7 664.5h-40.3v-34.1h40.3z"/>
						</g>
					</g>
					<g id="&lt;Group&gt;">
						<g id="&lt;Group&gt;">
							<path id="&lt;Path&gt;" class="s9" d="m198.3 708.3l-10.1-6.1-4.5 6.1-11.5-5.6-10.4 5.6-7.6-6.1-11.7 6.1-6.2-3.6-6.1 3.6v-91.5h68.1z"/>
						</g>
					</g>
					<g id="&lt;Group&gt;">
						<g id="&lt;Group&gt;">
							<path id="&lt;Path&gt;" class="s9" d="m130.2 752.1l10 6.1 4.5-6.1 11.5 5.6 10.5-5.6 7.5 6.1 11.8-6.1 6.2 3.6 6.1-3.6v91.5h-68.1z"/>
						</g>
					</g>
					<g id="&lt;Group&gt;">
						<g id="&lt;Group&gt;">
							<g id="&lt;Group&gt;">
								<path id="&lt;Path&gt;" class="s8" d="m257.3 830.9q10.6-14.2 21.2-28.4c1-1.3-1.3-2.6-2.2-1.3q-10.7 14.2-21.3 28.4c-1 1.4 1.3 2.7 2.3 1.3z"/>
							</g>
						</g>
					</g>
					<g id="&lt;Group&gt;">
						<g id="&lt;Group&gt;">
							<g id="&lt;Group&gt;">
								<path id="&lt;Path&gt;" class="s8" d="m254 818.8q4.8-5.3 9.6-10.6c0.4-0.5 0.5-1.3 0-1.8-0.5-0.5-1.4-0.6-1.8 0q-4.8 5.3-9.6 10.6c-0.4 0.5-0.5 1.3 0 1.8 0.5 0.5 1.4 0.6 1.8 0z"/>
							</g>
						</g>
					</g>
					<g id="&lt;Group&gt;">
						<g id="&lt;Group&gt;">
							<g id="&lt;Group&gt;">
								<path id="&lt;Path&gt;" class="s8" d="m89 709.8q12-19.5 24.1-39.1c0.8-1.4-1.4-2.7-2.3-1.3q-12 19.6-24 39.1c-0.9 1.4 1.3 2.7 2.2 1.3z"/>
							</g>
						</g>
					</g>
					<g id="&lt;Group&gt;">
						<g id="&lt;Group&gt;">
							<g id="&lt;Group&gt;">
								<path id="&lt;Path&gt;" class="s8" d="m93.4 682.7c2-4.9 5.1-9.3 9-12.9 1.2-1.1-0.7-2.9-1.9-1.8-4.2 3.9-7.4 8.7-9.6 14-0.3 0.7 0.3 1.5 0.9 1.6 0.7 0.2 1.3-0.2 1.6-0.9z"/>
							</g>
						</g>
					</g>
					<g id="&lt;Group&gt;">
						<g id="&lt;Group&gt;">
							<g id="&lt;Group&gt;">
								<path id="&lt;Path&gt;" class="s6" d="m366.8 810.6c3.3-9.2 7.9-17.8 13.8-25.6 1-1.3-1.2-2.6-2.2-1.3-6 8-10.8 16.8-14.1 26.3-0.5 1.5 2 2.2 2.5 0.6z"/>
							</g>
						</g>
					</g>
					<g id="&lt;Group&gt;">
						<g id="&lt;Group&gt;">
							<g id="&lt;Group&gt;">
								<path id="&lt;Path&gt;" class="s6" d="m363.4 781.1c2-4.7 4.7-9.1 7.9-13.1 0.5-0.5 0.5-1.3 0-1.8-0.4-0.5-1.4-0.5-1.8 0-3.4 4.2-6.2 8.7-8.4 13.6-0.2 0.7-0.2 1.4 0.5 1.8 0.5 0.3 1.5 0.2 1.8-0.5z"/>
							</g>
						</g>
					</g>
					<g id="&lt;Group&gt;">
						<g id="&lt;Group&gt;">
							<g id="&lt;Group&gt;">
								<path id="&lt;Path&gt;" class="s6" d="m313.2 695.6q7.4 4 14.8 8.1c1.5 0.8 2.8-1.4 1.3-2.2q-7.4-4.1-14.8-8.1c-1.4-0.8-2.7 1.4-1.3 2.2z"/>
							</g>
						</g>
					</g>
					<g id="&lt;Group&gt;">
						<g id="&lt;Group&gt;">
							<g id="&lt;Group&gt;">
								<path id="&lt;Path&gt;" class="s6" d="m316.3 714.3q8.7 3.5 17.4 7c0.6 0.3 1.4-0.3 1.6-0.9 0.2-0.7-0.3-1.3-0.9-1.6q-8.7-3.5-17.4-7c-0.6-0.3-1.4 0.3-1.6 0.9-0.2 0.7 0.3 1.3 0.9 1.6z"/>
							</g>
						</g>
					</g>
				</g>
				<g id="&lt;Group&gt;">
					<g id="&lt;Group&gt;">
						<g id="&lt;Group&gt;">
							<path id="&lt;Path&gt;" class="s6" d="m518.3 843.6h-162.7v-162.8h162.7z"/>
						</g>
					</g>
					<g id="&lt;Group&gt;">
						<g id="&lt;Group&gt;">
							<path id="&lt;Path&gt;" class="s8" d="m584.5 843.6h-66.2v-162.8h66.2z"/>
						</g>
					</g>
					<g id="&lt;Group&gt;">
						<g id="&lt;Group&gt;">
							<path id="&lt;Path&gt;" class="s6" d="m573.1 714.8h-29v-24.6h29z"/>
						</g>
					</g>
					<g id="&lt;Group&gt;">
						<g id="&lt;Group&gt;">
							<path id="&lt;Path&gt;" class="s9" d="m445.5 746.3l-7.3-4.4-3.2 4.4-8.2-4-7.6 4-5.4-4.4-8.4 4.4-4.5-2.6-4.4 2.6v-65.8h49z"/>
						</g>
					</g>
					<g id="&lt;Group&gt;">
						<g id="&lt;Group&gt;">
							<path id="&lt;Path&gt;" class="s9" d="m396.5 777.8l7.2 4.4 3.3-4.4 8.2 4 7.6-4 5.4 4.4 8.4-4.4 4.5 2.5 4.4-2.5v65.8h-49z"/>
						</g>
					</g>
					<g id="&lt;Group&gt;">
						<g id="&lt;Group&gt;">
							<g id="&lt;Group&gt;">
								<path id="&lt;Path&gt;" class="s8" d="m487.9 834.5q7.6-10.2 15.3-20.5c0.7-0.9-0.9-1.8-1.6-0.9q-7.7 10.2-15.3 20.5c-0.7 0.9 0.9 1.8 1.6 0.9z"/>
							</g>
						</g>
					</g>
					<g id="&lt;Group&gt;">
						<g id="&lt;Group&gt;">
							<g id="&lt;Group&gt;">
								<path id="&lt;Path&gt;" class="s8" d="m485.6 825.8q3.4-3.8 6.9-7.7c0.3-0.3 0.3-0.9 0-1.3-0.4-0.3-1-0.4-1.4 0q-3.4 3.8-6.8 7.7c-0.3 0.3-0.4 0.9 0 1.3 0.3 0.3 1 0.4 1.3 0z"/>
							</g>
						</g>
					</g>
					<g id="&lt;Group&gt;">
						<g id="&lt;Group&gt;">
							<g id="&lt;Group&gt;">
								<path id="&lt;Path&gt;" class="s8" d="m366.9 747.4q8.6-14.1 17.3-28.1c0.6-1-1-2-1.6-1q-8.7 14.1-17.3 28.1c-0.6 1.1 1 2 1.6 1z"/>
							</g>
						</g>
					</g>
					<g id="&lt;Group&gt;">
						<g id="&lt;Group&gt;">
							<g id="&lt;Group&gt;">
								<path id="&lt;Path&gt;" class="s8" d="m370 727.9c1.5-3.5 3.7-6.7 6.5-9.3 0.9-0.8-0.4-2.1-1.3-1.3-3 2.8-5.4 6.3-7 10.1-0.2 0.5 0.2 1 0.7 1.1 0.5 0.2 0.9-0.1 1.1-0.6z"/>
							</g>
						</g>
					</g>
					<g id="&lt;Group&gt;">
						<g id="&lt;Group&gt;">
							<g id="&lt;Group&gt;">
								<path id="&lt;Path&gt;" class="s6" d="m566.7 819.9c2.3-6.6 5.7-12.8 10-18.4 0.7-1-0.9-1.9-1.6-1-4.4 5.7-7.8 12.1-10.2 18.9-0.4 1.1 1.4 1.6 1.8 0.5z"/>
							</g>
						</g>
					</g>
					<g id="&lt;Group&gt;">
						<g id="&lt;Group&gt;">
							<g id="&lt;Group&gt;">
								<path id="&lt;Path&gt;" class="s6" d="m564.2 798.7c1.5-3.4 3.4-6.6 5.7-9.5 0.4-0.4 0.4-0.9 0-1.3-0.3-0.3-0.9-0.4-1.3 0-2.4 3-4.4 6.3-6 9.8-0.2 0.5-0.1 1 0.4 1.3 0.3 0.2 1 0.1 1.2-0.3z"/>
							</g>
						</g>
					</g>
					<g id="&lt;Group&gt;">
						<g id="&lt;Group&gt;">
							<g id="&lt;Group&gt;">
								<path id="&lt;Path&gt;" class="s6" d="m528.2 737.1q5.3 3 10.6 5.9c1 0.5 2-1.1 0.9-1.6q-5.3-2.9-10.6-5.9c-1-0.5-2 1.1-0.9 1.6z"/>
							</g>
						</g>
					</g>
					<g id="&lt;Group&gt;">
						<g id="&lt;Group&gt;">
							<g id="&lt;Group&gt;">
								<path id="&lt;Path&gt;" class="s6" d="m530.4 750.6q6.2 2.5 12.5 5c0.5 0.2 1-0.2 1.1-0.6 0.2-0.6-0.2-1-0.6-1.2q-6.3-2.5-12.5-5c-0.5-0.2-1 0.2-1.1 0.6-0.2 0.6 0.1 1 0.6 1.2z"/>
							</g>
						</g>
					</g>
				</g>
				<g id="&lt;Group&gt;">
					<g id="&lt;Group&gt;">
						<g id="&lt;Group&gt;">
							<path id="&lt;Path&gt;" class="s6" d="m258 617.4h162.8v-162.8h-162.8z"/>
						</g>
					</g>
					<g id="&lt;Group&gt;">
						<g id="&lt;Group&gt;">
							<path id="&lt;Path&gt;" class="s8" d="m191.8 617.4h66.2v-162.8h-66.2z"/>
						</g>
					</g>
					<g id="&lt;Group&gt;">
						<g id="&lt;Group&gt;">
							<path id="&lt;Path&gt;" class="s6" d="m203.2 488.5h29v-24.5h-29z"/>
						</g>
					</g>
					<g id="&lt;Group&gt;">
						<g id="&lt;Group&gt;">
							<path id="&lt;Path&gt;" class="s9" d="m330.9 520l7.2-4.3 3.3 4.3 8.2-4 7.5 4 5.4-4.3 8.5 4.3 4.5-2.5 4.4 2.5v-65.8h-49z"/>
						</g>
					</g>
					<g id="&lt;Group&gt;">
						<g id="&lt;Group&gt;">
							<path id="&lt;Path&gt;" class="s9" d="m379.9 551.6l-7.3 4.3-3.2-4.3-8.3 4-7.5-4-5.4 4.3-8.5-4.3-4.4 2.5-4.4-2.5v65.8h49z"/>
						</g>
					</g>
					<g id="&lt;Group&gt;">
						<g id="&lt;Group&gt;">
							<g id="&lt;Group&gt;">
								<path id="&lt;Path&gt;" class="s8" d="m290.1 607.3q-7.7-10.2-15.3-20.4c-0.7-1-2.3 0-1.6 0.9q7.6 10.3 15.3 20.5c0.7 0.9 2.3 0 1.6-1z"/>
							</g>
						</g>
					</g>
					<g id="&lt;Group&gt;">
						<g id="&lt;Group&gt;">
							<g id="&lt;Group&gt;">
								<path id="&lt;Path&gt;" class="s8" d="m292.1 598.3q-3.5-3.9-6.9-7.7c-0.3-0.4-1-0.3-1.3 0-0.4 0.4-0.3 0.9 0 1.3q3.4 3.8 6.9 7.7c0.3 0.3 0.9 0.3 1.3 0 0.3-0.4 0.3-1 0-1.3z"/>
							</g>
						</g>
					</g>
					<g id="&lt;Group&gt;">
						<g id="&lt;Group&gt;">
							<g id="&lt;Group&gt;">
								<path id="&lt;Path&gt;" class="s8" d="m411.1 520.2q-8.7-14-17.3-28.1c-0.7-1-2.3-0.1-1.6 1q8.6 14 17.3 28.1c0.6 1 2.2 0 1.6-1z"/>
							</g>
						</g>
					</g>
					<g id="&lt;Group&gt;">
						<g id="&lt;Group&gt;">
							<g id="&lt;Group&gt;">
								<path id="&lt;Path&gt;" class="s8" d="m408.1 501.2c-1.6-3.8-3.9-7.3-6.9-10.1-0.9-0.8-2.2 0.5-1.3 1.3 2.7 2.6 5 5.8 6.4 9.3 0.2 0.4 0.7 0.8 1.2 0.6 0.4-0.1 0.8-0.7 0.6-1.1z"/>
							</g>
						</g>
					</g>
					<g id="&lt;Group&gt;">
						<g id="&lt;Group&gt;">
							<g id="&lt;Group&gt;">
								<path id="&lt;Path&gt;" class="s6" d="m211.4 593.2c-2.3-6.8-5.7-13.2-10.1-18.9-0.7-0.9-2.3 0-1.6 0.9 4.3 5.6 7.6 11.8 9.9 18.5 0.4 1.1 2.2 0.6 1.8-0.5z"/>
							</g>
						</g>
					</g>
					<g id="&lt;Group&gt;">
						<g id="&lt;Group&gt;">
							<g id="&lt;Group&gt;">
								<path id="&lt;Path&gt;" class="s6" d="m213.7 571.5c-1.5-3.5-3.5-6.8-6-9.8-0.3-0.4-1-0.3-1.3 0-0.4 0.4-0.3 0.9 0 1.3 2.3 2.9 4.3 6.1 5.7 9.5 0.2 0.4 0.9 0.5 1.3 0.3 0.5-0.3 0.5-0.8 0.3-1.3z"/>
							</g>
						</g>
					</g>
					<g id="&lt;Group&gt;">
						<g id="&lt;Group&gt;">
							<g id="&lt;Group&gt;">
								<path id="&lt;Path&gt;" class="s6" d="m247.3 509.3q-5.4 2.9-10.7 5.8c-1 0.6-0.1 2.2 1 1.6q5.3-2.9 10.6-5.8c1-0.5 0.1-2.2-0.9-1.6z"/>
							</g>
						</g>
					</g>
					<g id="&lt;Group&gt;">
						<g id="&lt;Group&gt;">
							<g id="&lt;Group&gt;">
								<path id="&lt;Path&gt;" class="s6" d="m245.5 522.6q-6.3 2.5-12.5 5c-0.5 0.2-0.8 0.6-0.7 1.2 0.1 0.4 0.7 0.8 1.2 0.6q6.2-2.5 12.5-5c0.4-0.2 0.7-0.6 0.6-1.2-0.1-0.4-0.7-0.8-1.1-0.6z"/>
							</g>
						</g>
					</g>
				</g>
			</g>
			<g id="&lt;Group&gt;">
				<g id="&lt;Group&gt;">
					<g id="&lt;Group&gt;">
						<g id="&lt;Group&gt;">
							<path id="&lt;Path&gt;" class="s4" d="m643.3 445.3c0 50.5-91.4 186-91.4 186 0 0-91.4-135.5-91.4-186 0-50.5 40.9-91.5 91.4-91.5 50.5 0 91.4 41 91.4 91.5z"/>
						</g>
					</g>
					<g id="&lt;Group&gt;">
						<g id="&lt;Group&gt;">
							<path id="&lt;Path&gt;" class="s6" d="m604.6 446.4c0 28.5-23.1 51.6-51.6 51.6-28.6 0-51.7-23.1-51.7-51.6 0-28.6 23.1-51.7 51.7-51.7 28.5 0 51.6 23.1 51.6 51.7z"/>
						</g>
					</g>
					<g id="&lt;Group&gt;">
						<g id="&lt;Group&gt;">
							<path id="&lt;Path&gt;" class="s3" d="m553 500.6c-29.9 0-54.3-24.3-54.3-54.2 0-29.9 24.4-54.3 54.3-54.3 1.4 0 2.6 1.2 2.6 2.6 0 1.5-1.2 2.6-2.6 2.6-27.1 0-49.1 22-49.1 49.1 0 27 22 49 49.1 49 27 0 49-22 49-49 0-1.5 1.2-2.6 2.6-2.6 1.5 0 2.6 1.1 2.6 2.6 0 29.9-24.3 54.2-54.2 54.2z"/>
						</g>
					</g>
					<g id="&lt;Group&gt;">
						<g id="&lt;Group&gt;">
							<g id="&lt;Group&gt;">
								<path id="&lt;Path&gt;" class="s0" d="m521 450c0.6 9 5.6 17.4 13.4 21.9 2.1 1.3 4.1-2 1.9-3.3-6.5-3.9-10.9-11-11.4-18.6-0.1-1-0.9-1.9-2-1.9-1 0-2 0.9-1.9 1.9z"/>
							</g>
						</g>
					</g>
					<g id="&lt;Group&gt;">
						<g id="&lt;Group&gt;">
							<g id="&lt;Group&gt;">
								<path id="&lt;Path&gt;" class="s0" d="m542.9 477.2q3.6 0.6 7.1 1.2c0.5 0.1 1 0.1 1.5-0.2 0.4-0.3 0.8-0.7 0.9-1.2 0.2-0.9-0.3-2.2-1.4-2.4q-3.5-0.5-7-1.1c-0.6-0.1-1.1-0.1-1.5 0.2-0.4 0.2-0.8 0.7-0.9 1.1-0.2 1 0.3 2.3 1.3 2.4z"/>
							</g>
						</g>
					</g>
					<g id="&lt;Group&gt;">
						<g id="&lt;Group&gt;">
							<g id="&lt;Group&gt;">
								<path id="&lt;Path&gt;" class="s0" d="m566.1 407.7c9.1 7 15.3 17.4 17.4 28.8 0.4 2.4 4.2 1.4 3.7-1.1-2.2-12.4-9.2-23.4-19.2-31-2-1.5-3.9 1.8-1.9 3.3z"/>
							</g>
						</g>
					</g>
					<g id="&lt;Group&gt;">
						<g id="&lt;Group&gt;">
							<g id="&lt;Group&gt;">
								<path id="&lt;Path&gt;" class="s0" d="m585.3 447.5q0.5 2.5 1.1 5c0.1 0.5 0.5 1 0.9 1.2 0.4 0.2 1 0.3 1.5 0.2 1-0.4 1.5-1.3 1.3-2.4q-0.5-2.5-1-5.1c-0.1-0.4-0.5-0.9-0.9-1.1-0.4-0.3-1.1-0.4-1.5-0.2-1.1 0.3-1.6 1.3-1.4 2.4z"/>
							</g>
						</g>
					</g>
				</g>
				<g id="&lt;Group&gt;">
					<g id="&lt;Group&gt;">
						<g id="&lt;Group&gt;">
							<path id="&lt;Path&gt;" class="s4" d="m255.3 151c0 22.9-41.5 84.4-41.5 84.4 0 0-41.5-61.5-41.5-84.4 0-23 18.6-41.5 41.5-41.5 22.9 0 41.5 18.5 41.5 41.5z"/>
						</g>
					</g>
					<g id="&lt;Group&gt;">
						<g id="&lt;Group&gt;">
							<path id="&lt;Path&gt;" class="s6" d="m214.3 174.9c-13 0-23.4-10.5-23.4-23.5 0-12.9 10.4-23.4 23.4-23.4 13 0 23.5 10.5 23.5 23.4 0 13-10.5 23.5-23.5 23.5z"/>
						</g>
					</g>
					<g id="&lt;Group&gt;">
						<g id="&lt;Group&gt;">
							<path id="&lt;Path&gt;" class="s3" d="m214.3 176.1c-13.6 0-24.6-11.1-24.6-24.6 0-13.6 11-24.7 24.6-24.7 0.7 0 1.2 0.6 1.2 1.2 0 0.7-0.5 1.2-1.2 1.2-12.3 0-22.2 10-22.2 22.3 0 12.2 9.9 22.2 22.2 22.2 12.3 0 22.3-10 22.3-22.2 0-0.7 0.5-1.2 1.2-1.2 0.6 0 1.1 0.5 1.1 1.2 0 13.5-11 24.6-24.6 24.6z"/>
						</g>
					</g>
					<g id="&lt;Group&gt;">
						<g id="&lt;Group&gt;">
							<g id="&lt;Group&gt;">
								<path id="&lt;Path&gt;" class="s0" d="m199.8 153.1c0.3 4.1 2.6 7.9 6.1 10 1 0.5 1.8-1 0.9-1.6-3-1.7-5-4.9-5.2-8.4-0.1-0.5-0.4-0.9-0.9-0.9-0.5 0-0.9 0.4-0.9 0.9z"/>
							</g>
						</g>
					</g>
					<g id="&lt;Group&gt;">
						<g id="&lt;Group&gt;">
							<g id="&lt;Group&gt;">
								<path id="&lt;Path&gt;" class="s0" d="m209.8 165.5q1.6 0.2 3.2 0.5c0.2 0 0.4 0 0.6-0.1 0.2-0.1 0.4-0.3 0.5-0.5 0-0.5-0.2-1-0.7-1.1q-1.6-0.3-3.2-0.5c-0.2-0.1-0.4-0.1-0.7 0-0.1 0.2-0.3 0.4-0.4 0.6-0.1 0.4 0.2 1 0.7 1.1z"/>
							</g>
						</g>
					</g>
					<g id="&lt;Group&gt;">
						<g id="&lt;Group&gt;">
							<g id="&lt;Group&gt;">
								<path id="&lt;Path&gt;" class="s0" d="m220.3 133.9c4.1 3.2 6.9 7.9 7.9 13.1 0.2 1.1 1.9 0.6 1.7-0.5-1.1-5.6-4.2-10.7-8.8-14.1-0.9-0.7-1.7 0.8-0.8 1.5z"/>
							</g>
						</g>
					</g>
					<g id="&lt;Group&gt;">
						<g id="&lt;Group&gt;">
							<g id="&lt;Group&gt;">
								<path id="&lt;Path&gt;" class="s0" d="m229 151.9q0.2 1.2 0.5 2.3c0 0.3 0.2 0.5 0.4 0.6 0.2 0.1 0.4 0.1 0.7 0.1 0.4-0.2 0.7-0.6 0.6-1.1q-0.3-1.2-0.5-2.3c-0.1-0.2-0.2-0.4-0.4-0.5-0.2-0.2-0.5-0.2-0.7-0.1-0.5 0.1-0.7 0.6-0.6 1z"/>
							</g>
						</g>
					</g>
				</g>
				<g id="&lt;Group&gt;">
					<g id="&lt;Group&gt;">
						<g id="&lt;Group&gt;">
							<path id="&lt;Path&gt;" class="s4" d="m1341.4 399.5c0 22.9-41.5 84.4-41.5 84.4 0 0-41.5-61.5-41.5-84.4 0-22.9 18.6-41.5 41.5-41.5 22.9 0 41.5 18.6 41.5 41.5z"/>
						</g>
					</g>
					<g id="&lt;Group&gt;">
						<g id="&lt;Group&gt;">
							<path id="&lt;Path&gt;" class="s6" d="m1323.8 400c0 13-10.5 23.5-23.4 23.5-13 0-23.4-10.5-23.4-23.5 0-12.9 10.4-23.4 23.4-23.4 12.9 0 23.4 10.5 23.4 23.4z"/>
						</g>
					</g>
					<g id="&lt;Group&gt;">
						<g id="&lt;Group&gt;">
							<path id="&lt;Path&gt;" class="s3" d="m1300.4 424.6c-13.6 0-24.6-11-24.6-24.6 0-13.6 11-24.6 24.6-24.6 0.7 0 1.2 0.5 1.2 1.2 0 0.6-0.5 1.2-1.2 1.2-12.3 0-22.3 9.9-22.3 22.2 0 12.3 10 22.3 22.3 22.3 12.3 0 22.3-10 22.3-22.3 0-0.6 0.5-1.2 1.1-1.2 0.7 0 1.2 0.6 1.2 1.2 0 13.6-11 24.6-24.6 24.6z"/>
						</g>
					</g>
					<g id="&lt;Group&gt;">
						<g id="&lt;Group&gt;">
							<g id="&lt;Group&gt;">
								<path id="&lt;Path&gt;" class="s0" d="m1285.9 401.7c0.2 4.1 2.5 7.8 6.1 9.9 0.9 0.6 1.8-0.9 0.8-1.5-2.9-1.8-4.9-5-5.2-8.4 0-0.5-0.3-0.9-0.8-0.9-0.5 0-1 0.4-0.9 0.9z"/>
							</g>
						</g>
					</g>
					<g id="&lt;Group&gt;">
						<g id="&lt;Group&gt;">
							<g id="&lt;Group&gt;">
								<path id="&lt;Path&gt;" class="s0" d="m1295.8 414q1.6 0.3 3.2 0.5c0.3 0.1 0.5 0.1 0.7 0 0.2-0.2 0.4-0.4 0.4-0.6 0.1-0.4-0.1-1-0.6-1.1q-1.6-0.2-3.2-0.5c-0.2 0-0.5 0-0.7 0.1-0.2 0.1-0.3 0.3-0.4 0.5-0.1 0.5 0.2 1 0.6 1.1z"/>
							</g>
						</g>
					</g>
					<g id="&lt;Group&gt;">
						<g id="&lt;Group&gt;">
							<g id="&lt;Group&gt;">
								<path id="&lt;Path&gt;" class="s0" d="m1306.3 382.5c4.2 3.2 7 7.9 7.9 13 0.2 1.1 1.9 0.7 1.7-0.5-1-5.6-4.1-10.6-8.7-14-0.9-0.7-1.8 0.8-0.9 1.5z"/>
							</g>
						</g>
					</g>
					<g id="&lt;Group&gt;">
						<g id="&lt;Group&gt;">
							<g id="&lt;Group&gt;">
								<path id="&lt;Path&gt;" class="s0" d="m1315.1 400.5q0.2 1.2 0.5 2.3c0 0.2 0.2 0.4 0.4 0.5 0.1 0.1 0.4 0.2 0.6 0.1 0.5-0.1 0.8-0.6 0.7-1.1q-0.3-1.1-0.5-2.3c-0.1-0.2-0.3-0.4-0.4-0.5-0.2-0.1-0.5-0.1-0.7-0.1-0.5 0.2-0.7 0.6-0.6 1.1z"/>
							</g>
						</g>
					</g>
				</g>
				<g id="&lt;Group&gt;">
					<g id="&lt;Group&gt;">
						<path id="&lt;Path&gt;" class="s4" d="m1297.2 190c0 13.3-24.1 49.1-24.1 49.1 0 0-24.1-35.8-24.1-49.1 0-13.3 10.8-24.1 24.1-24.1 13.3 0 24.1 10.8 24.1 24.1z"/>
					</g>
					<g id="&lt;Group&gt;">
						<path id="&lt;Path&gt;" class="s6" d="m1287 190.3c0 7.5-6.1 13.6-13.6 13.6-7.6 0-13.7-6.1-13.7-13.6 0-7.5 6.1-13.6 13.7-13.6 7.5 0 13.6 6.1 13.6 13.6z"/>
					</g>
					<g id="&lt;Group&gt;">
						<path id="&lt;Path&gt;" class="s3" d="m1273.4 204.6c-7.9 0-14.3-6.4-14.3-14.3 0-7.9 6.4-14.3 14.3-14.3 0.4 0 0.7 0.3 0.7 0.7 0 0.3-0.3 0.7-0.7 0.7-7.2 0-13 5.8-13 12.9 0 7.1 5.8 12.9 13 12.9 7.1 0 12.9-5.8 12.9-12.9 0-0.4 0.3-0.7 0.7-0.7 0.4 0 0.7 0.3 0.7 0.7 0 7.9-6.4 14.3-14.3 14.3z"/>
					</g>
				</g>
				<g id="&lt;Group&gt;">
					<g id="&lt;Group&gt;">
						<path id="&lt;Path&gt;" class="s4" d="m577.1 61.9c0 13.4-24.1 49.1-24.1 49.1 0 0-24.2-35.7-24.2-49.1 0-13.3 10.9-24.1 24.2-24.1 13.3 0 24.1 10.8 24.1 24.1z"/>
					</g>
					<g id="&lt;Group&gt;">
						<path id="&lt;Path&gt;" class="s6" d="m566.9 62.2c0 7.5-6.1 13.7-13.6 13.7-7.6 0-13.7-6.2-13.7-13.7 0-7.5 6.1-13.6 13.7-13.6 7.5 0 13.6 6.1 13.6 13.6z"/>
					</g>
					<g id="&lt;Group&gt;">
						<path id="&lt;Path&gt;" class="s3" d="m553.3 76.5c-7.9 0-14.3-6.4-14.3-14.3 0-7.9 6.4-14.3 14.3-14.3 0.4 0 0.7 0.3 0.7 0.7 0 0.4-0.3 0.7-0.7 0.7-7.2 0-13 5.8-13 12.9 0 7.2 5.8 13 13 13 7.1 0 12.9-5.8 12.9-13 0-0.4 0.3-0.7 0.7-0.7 0.4 0 0.7 0.3 0.7 0.7 0 7.9-6.4 14.3-14.3 14.3z"/>
					</g>
				</g>
			</g>
		</g>
	</g>
</svg>