<svg version="1.2" xmlns="http://www.w3.org/2000/svg" viewBox="0 0 927 572">
    <style>
        .a{fill:#ffdfda}.b{mix-blend-mode:multiply;fill:#ffdfda}.c{fill:#ff6347}.d{fill:#ff9d8c}.e{fill:#fff}.f{fill:#223a7a}.g{fill:#8593b6}.h{fill:#8e9bbb}.i{fill:#dee1eb}.j{fill:#818fb3}.k{fill:#43588e}.l{fill:#f6f7fa}.m{fill:#d9dee8}.n{fill:#596b9b}.o{fill:#7a89af}.p{mix-blend-mode:multiply;fill:#bdc4d7}.q{fill:#6f7fa9}.r{fill:#9ca6c3}.s{fill:#d2e6ff}
    </style>
    <path
        class="a"
        d="m149.9 664.5c0 0-109.2-77.8-140.7-210.2-31.4-132.4 16.6-292.9 107.6-374.1 91.1-81.1 254.9-26.4 327.7 41.4 72.9 67.9 72.9 67.9 72.9 67.9 0 0 69.5 38.1 160.5 34.7 91.1-3.3 172.2 120.9 193.7 218.5 21.5 97.7-29.8 226.8-29.8 226.8z"
    />
    <path
        class="b"
        d="m151.3 655.4c0 0-76.2-41.4-96-137.4-19.9-96 66.2-183.7 74.5-231.7 8.2-48-10-107.6 66.2-153.9 76.1-46.4 211.8-29.8 263.1-41.4 51.3-11.6 110.9-91.1 213.6-72.9 102.6 18.3 201.9 72.9 206.8 192 5 119.2-33.1 122.5 5 187.1 38.1 64.5 53 109.2 34.8 175.4-18.2 66.2-56.3 84.4-56.3 84.4z"
    />
    <path
        class="b"
        d="m283.2 600.9c-4.7-5-74.2-144 3.2-271.5 77.4-127.4 271.6-112.5 348.9-62.9 77.4 49.7 115.3 114.2 123.2 182.1 7.8 67.9-44.3 173.8-44.3 173.8z"
    />
    <path
        class="c"
        d="m270 503.6v-126.6c0 0-1.4-34.1 16.6-44 17.9-9.8 93.5-4.5 93.5-4.5v175.1z"
    />
    <path
        class="d"
        d="m403.7 209.9c0 0-4.5 38.4-6.3 41.5-1.8 3.2-1.8 3.2-1.8 3.2l-8.7 6c0 0 16.8 23.9 37.6 27.8 20.7 3.8 19-8.5 19-8.5l-3.2-6.7 4.2-36.5c0 0-37.6-17.3-40.8-26.8z"
    />
    <path
        class="e"
        d="m376 263.7l13.7-5.9c0 0 8.8 14.4 29.2 22.8 20.4 8.5 20.7 3.5 21.8 0 1-3.5-0.4-7.4-0.4-7.4l1.5-12.3 8.2 2.7 28.3 229.1-72.8 3.5z"
    />
    <path
        class="f"
        d="m443.1 261.2c0 0 5 11.3 9.5 38.1 4.6 26.7 8.8 71.7 9.9 102.7 1 30.9 1.7 101.6 1.7 101.6 0 0 90.8 0 91.8 0 1.1 0 7.4-34.8 7.4-34.8 0 0-40.1-34.4-42.2-40-1.4-3.7-0.7-73.3-6.7-105.3-5.9-32-13.7-38.4-29.9-46.4-16.7-8.2-41.5-15.9-41.5-15.9z"
    />
    <path
        class="g"
        d="m491 463.3c-0.5 0-0.9-0.4-0.9-0.8 0-2.5-0.4-38.3-0.9-72.8-0.4-34.6-0.8-70.3-0.8-72.8 0-0.5 0.3-0.9 0.8-0.9 0.5 0 0.9 0.4 0.9 0.9 0 2.5 0.4 38.2 0.8 72.7 0.5 34.6 0.9 70.3 0.9 72.9 0 0.4-0.4 0.8-0.8 0.8z"
    />
    <path
        class="f"
        d="m308.1 454.7l-0.7 48.9h106.9c0 0 4.6-41.5 2.8-45.4-1.8-3.8-109-3.5-109-3.5z"
    />
    <g style="mix-blend-mode:multiply">
        <path
            class="h"
            d="m427.1 250.4c4.3 3.5 10.3 6.3 14.9 8l2.5-21.7c0 0-28.2-13-37.8-22.6 2 10.9 6.9 25.4 20.4 36.3z"
        />
    </g>
    <path
        class="d"
        d="m477.6 138.5c0 0 7.4 12.7 8.8 28.2 1.4 15.4 0 55.2-12.7 72.1-12.6 16.9-39 11.9-51 1.7-10.9-9.3-21.8-19.7-24.6-40.1-2.8-20.4 6-59.1 31-67.1 24.9-8.1 48.5 5.2 48.5 5.2z"
    />
    <path
        class="d"
        d="m509.3 481.5c0 0-1.2 0-3.1 0-0.4-0.1-0.9 0-1.4-0.1-1.9 0-4.1-0.1-6.3-0.1q-0.7-0.1-1.5-0.1c-2.2 0-4.1 0.2-5.9 0.1-0.4 0-0.9 0.1-1.4 0.1q-0.3 0-0.5 0c-1.1-0.2-1.3-0.4-2.4-0.9-1.4-0.7-20.7-5-36.4-4.9-15.8 0.1-29.8 1.2-32.1-0.8-2.4-1.9-3.7-21.6 9.7-22.9l16.5 6.2c0 0 37.6-4.5 51.4 5.7 13.9 10.2 13.4 17.7 13.4 17.7z"
    />
    <path
        class="f"
        d="m491.1 481.3c-0.4 0-0.9 0.1-1.4 0.1-0.3-0.6-1-1.5-1.4-1.9-4.3-4.4-14.5-7.2-18.3-8.1-0.3-0.1-0.5-0.4-0.4-0.8 0-0.3 0.4-0.5 0.7-0.4 5.5 1.3 17 4.6 20.2 10.1 0.1 0.2 0.4 0.7 0.6 1z"
    />
    <path
        class="f"
        d="m498.5 481.3q-0.7 0-1.5-0.1c-4.6-8.4-12.2-10.9-21.6-13.9l-0.6-0.2c-0.3-0.1-0.5-0.5-0.4-0.8 0.1-0.3 0.5-0.5 0.8-0.4l0.6 0.2c9.9 3.2 17.9 5.7 22.7 15.2z"
    />
    <path
        class="f"
        d="m506.2 481.5q-0.7-0.1-1.4-0.1c-2.9-5.9-12.2-15.8-24.5-18.1-0.3-0.1-0.6-0.4-0.5-0.7 0.1-0.4 0.4-0.6 0.7-0.5 12.7 2.3 23 12.7 25.7 19.4z"
    />
    <path
        class="f"
        d="m406.6 183c0 0 7.7-3.7 13.1-14 5.5-10.4 4.8-19.7 4.8-19.7 0 0 9.8-1.6 24.6 2.8 14.8 4.4 32.4 10.3 47.1 1.9 14.8-8.4 14.8-22 7.6-27.6-8.1-6.3-24.1-2.5-24.1-2.5 0 0 6.2-5.9 2.8-9.5-3.3-3.5-15.5 1.1-15.5 1.1 0 0-14.7-11.8-42.7-10.4-27.9 1.4-41.3 20.9-42.9 42.8-1.6 21.8 6.3 43.6 6.3 43.6z"
    />
    <g style="mix-blend-mode:multiply">
        <path
            class="h"
            d="m463.3 188.3c-1.6 3.9-1.6 8.4-2 12.6-0.3 3.2-0.9 7 2.1 9.2 1.4 1 8.1 3.8 4.6 6.1-1.3 0.8-3.5 0.6-4.9 0.5q-1.6 0-3.1-0.1c-1.1-0.1-2.2-0.4-3.3-0.4-0.7-0.1-0.9 0.8-0.3 1.1 1.7 1.2 4.3 1.5 6.4 1.6 2.1 0.1 3.5 0 5.3-1 1.2-0.5 2.3-1.3 2.5-2.7 0.2-1.5-1-2.9-2.1-3.8-1.4-1-3-1.4-4.3-2.4-1.9-1.3-1.7-3.6-1.6-5.6 0.3-5 1.5-9.9 1.9-14.9 0.1-0.8-1-0.8-1.2-0.2z"
        />
    </g>
    <path
        class="f"
        d="m477.7 200c-0.6 3-2.7 5.1-4.9 4.7-2.1-0.4-3.4-3.1-2.9-6.1 0.5-2.9 2.7-5 4.8-4.6 2.2 0.3 3.5 3 3 6z"
    />
    <path
        class="f"
        d="m450.7 197.7c-0.4 3.2-2.7 5.5-5 5.1-2.3-0.3-3.8-3.2-3.3-6.4 0.5-3.2 2.7-5.5 5-5.2 2.3 0.4 3.8 3.3 3.3 6.5z"
    />
    <path
        class="f"
        d="m471.4 187.8c1.6 0.3 3.3 0 5 0.1q0.5 0 1.1 0.1c0.3 0-0.5-0.1-0.1 0q0.1 0 0.3 0 0.3 0.1 0.6 0.2c0.3 0.1 0.7 0.2 1 0.3 0.4 0 0.7 0.1 1 0.1q0.3 0 0.6-0.1-0.2 0.1-0.4 0.1c0 0 0.7-0.1 0.7-0.1 0.9-0.2 1.5-1.3 1.3-2.2q-0.1-0.4-0.4-0.7-0.1-0.2-0.2-0.3 0.1 0.1 0.2 0.2-0.1-0.1-0.2-0.3-0.2-0.2-0.4-0.3-0.2-0.2-0.4-0.3c-0.4-0.3-1-0.5-1.5-0.7-1-0.2-2-0.3-3-0.3-1.1 0-2 0.1-3 0.2-0.9 0.1-1.9 0.4-2.6 0.9-0.6 0.5-0.9 1-0.8 1.7 0.1 0.6 0.6 1.3 1.2 1.4z"
    />
    <path
        class="f"
        d="m452.6 183.1q-0.3-0.2-0.7-0.4c-0.2-0.1-0.7-0.4-0.3-0.1q-0.2-0.2-0.4-0.3c-0.7-0.3-1.4-0.5-2.2-0.7-1.6-0.4-3.3-0.5-4.9-0.4-1.8 0.2-3.4 0.6-4.9 1.6-0.2 0.1-0.4 0.2-0.6 0.4q-0.2 0.2-0.4 0.5 0.1-0.1 0.1-0.2c-0.4 0.3-0.7 0.9-0.7 1.4 0 0.6 0.3 1 0.8 1.3 0.5 0.3 1.1 0.2 1.7 0q-0.5 0-0.9 0c0.5 0.1 0.8 0.1 1.3 0 0 0 0.5-0.1 0.2-0.1-0.3 0.1 0.5 0 0.5 0 0.1 0 0.7-0.1 0.1 0q0.2-0.1 0.3-0.1 0.4 0 0.8-0.1 1.8-0.1 3.5-0.1 1.6-0.1 3.3 0 0.7 0 1.3 0c0.3 0 0.2 0.1 0 0q0.2 0 0.3 0.1 0.3 0.1 0.6 0.2c0.7 0.2 1.6-0.3 1.9-1 0.3-0.7 0-1.6-0.7-2z"
    />
    <path
        class="f"
        d="m461 232c1.6-3.3 4.5-5.7 7.9-7.2-2.9-0.3-16.8-1.6-20.3 0.4-4 2.3 0.7 11.2 8.8 11.7 0.9 0 1.6 0 2.4-0.2 0.1-1.6 0.4-3.2 1.2-4.7z"
    />
    <path
        class="i"
        d="m396.7 213.1c0 0 1.4 5.4 9.5 11.8 8.1 6.3 19.8 10.9 19.8 10.9l1-4.1c0 0-12.2-5.2-17.8-11-5.6-5.8-6.3-9-6.3-9z"
    />
    <path
        class="f"
        d="m428.4 228.7c6.5-0.3 10.1 4.8 10.6 8.2 0.4 3.3-2.7 7-10 3.8-9.1-4.1-7.1-11.7-0.6-12z"
    />
    <path
        class="i"
        d="m401.8 172.8c0 0 2.8-20.2 16.4-33.9 25.8-26.2 47.8-24.6 47.8-24.6 0 0-0.2-3.7-8.4-6.5-7.8-2.7-11.3-1.3-11.3-1.3 0 0-21.3 1.8-39.2 21.7-18 19.8-19.9 45.2-19.9 45.2z"
    />
    <path
        class="e"
        d="m399.9 170.4c-17-2.9-26.4 10.3-27.1 23.7-0.7 13.4 9 23.5 22 22.5 29.2-2.3 25.8-42.7 5.1-46.2z"
    />
    <path
        class="j"
        d="m391.4 203.6c-4.4 0-8.2-2.2-10.4-6.2-2.3-4.2-2.1-9.4 0.5-13.3 0.2-0.3 0.6-0.3 0.9-0.1 0.3 0.2 0.4 0.6 0.2 0.8-2.4 3.5-2.5 8.2-0.5 12 2 3.6 5.5 5.7 9.7 5.5 3.8-0.1 7.1-1.8 9.2-4.9 2.4-3.6 2.9-8.5 1.4-12.5-1.5-4-5.7-6.8-9.5-6.3-0.3 0.1-0.7-0.2-0.7-0.5-0.1-0.4 0.2-0.7 0.5-0.7 4.5-0.6 9.1 2.4 10.9 7 1.7 4.4 1.1 9.8-1.5 13.7-2.4 3.4-6 5.4-10.3 5.5q-0.2 0-0.4 0z"
    />
    <path
        class="f"
        d="m379.1 258.8c0 0-51.3 12.7-69.3 33.1-17.9 20.4-26.4 121-26.7 139.6-0.4 18.7 12.7 26.4 20.4 31.7 7.7 5.2 41.9 14.7 69.3 16.2 27.4 1.4 53.4 0 53.4 0 0 0 0-6 4.2-14.8 3.9-8.2 8.9-9.9 8.9-9.9l-23.6-8.4c0 0-4.1-74-10.6-109.7-7.3-41.2-26-77.8-26-77.8z"
    />
    <path
        class="g"
        d="m464.2 434.5q-0.1 0-0.3-0.1c-0.4-0.2-0.6-0.7-0.4-1.1 4.8-10.9 9.8-32.2 12.6-47.1l0.2-1.2c0.8-4.4 1.9-9.9-0.2-13.7-1.1-1.9-3.5-6.1-5.9-10.1-2.4-4.2-4.7-8.1-5.3-9.3-1.2-2.3 2.7-8.4 8.3-16.8 1.5-2.3 2.8-4.3 3.6-5.6 2-3.5 0.7-6.7-0.9-10.4l-0.5-1.2c-1.4-3.5-3-7-4.5-10.3q-1-2-1.9-4.1-1.3-2.7-2.5-5.5c-5-11.1-10.1-22.6-16.7-33.6-0.3-0.4-0.1-1 0.3-1.2 0.4-0.3 0.9-0.1 1.1 0.3 6.7 11.1 11.8 22.6 16.8 33.8q1.3 2.8 2.5 5.5 1 2 1.9 4.1c1.6 3.4 3.2 6.8 4.6 10.3l0.5 1.3c1.6 3.7 3.2 7.6 0.8 11.8-0.8 1.4-2.1 3.4-3.7 5.7-2.9 4.4-9.1 13.5-8.2 15.1 0.6 1.1 2.9 5.1 5.3 9.2 2.4 4.1 4.8 8.3 5.9 10.2 2.4 4.3 1.3 10.1 0.4 14.8l-0.3 1.2c-1 5.4-6.4 33.3-12.7 47.5-0.1 0.3-0.4 0.5-0.8 0.5z"
    />
    <path
        class="g"
        d="m414.1 437.5q-0.3 0-0.6-0.3c-4-4-23.3-37.4-24.7-43.7-0.8-3.4 1.2-12.1 3.1-20.5 1.5-6.6 3-13.3 2.6-15.2-0.7-2.7-5.6-6.7-10.4-10.6-5.7-4.7-11.7-9.6-12.8-14-1.3-4.9-0.2-36.1 0.5-56.7 0.3-7.4 0.5-13.3 0.5-15.4 0-0.5 0.4-0.8 0.8-0.8q0 0 0 0c0.5 0 0.9 0.3 0.9 0.8 0 2.1-0.2 8-0.5 15.4-0.7 19.3-1.8 51.6-0.6 56.3 1 3.9 7 8.8 12.3 13.1 5.2 4.2 10.1 8.3 10.9 11.6 0.6 2.2-0.9 8.5-2.5 15.8-1.8 7.9-3.8 16.8-3.1 19.9 1.4 6.1 20.3 38.9 24.2 42.8 0.3 0.3 0.3 0.9 0 1.2q-0.2 0.3-0.6 0.3z"
    />
    <path
        class="g"
        d="m345 422.9q-0.1 0-0.1 0c-0.5-0.1-0.8-0.5-0.7-1 0.6-4.4 10.3-92.5 10.8-99.2 0-0.5 0.4-0.9 0.9-0.8 0.5 0 0.8 0.4 0.8 0.9-0.5 6.7-10.2 94.9-10.9 99.3 0 0.5-0.4 0.8-0.8 0.8z"
    />
    <path
        class="g"
        d="m415 446.8q-0.2 0-0.3-0.1c-2.2-0.9-11.7-4.1-23.8-8.2-24.4-8.2-57.9-19.5-64.2-22.8-0.4-0.2-0.6-0.7-0.4-1.1 0.2-0.4 0.7-0.6 1.2-0.4 6.2 3.3 40.9 15 63.9 22.7 12.1 4.1 21.7 7.4 23.9 8.2 0.4 0.2 0.7 0.7 0.5 1.2-0.2 0.3-0.5 0.5-0.8 0.5z"
    />
    <path
        class="g"
        d="m403.3 481.8c-21.5 0-63.2-3.8-94.8-15-0.5-0.2-0.7-0.7-0.5-1.1 0.1-0.4 0.6-0.7 1.1-0.5 39.9 14.1 95.8 16.5 106.2 14.2 0.5-0.1 0.9 0.2 1.1 0.6 0.1 0.5-0.2 1-0.7 1.1-2.2 0.5-6.6 0.7-12.4 0.7z"
    />
    <path
        class="c"
        d="m116.7 268.4c6.7 5.9 15.1 9.6 20.9 16.4 2.4 2.7 4.4 5.5 6.6 8.3 1.5 2.1 5.7 5.4 6.3 8 0.3 1.1 0.3-0.4 0-1.5q-0.1-0.1-0.1-0.2c-0.6-5.2-1-10.4-1.2-15.6-0.1-5.2 0.2-10.4-0.1-15.6-0.5-7.3-2.8-14.4-8.8-19-2.9-2.2-6.7-3.6-9.3-6.1-2.6-2.3-1.6-5-0.1-7.7 1.4-2.4 3.1-4.9 3.7-7.7 0.6-3.2-0.6-6.6-2.2-9.3-3.5-5.8-11.3-12.4-18.6-11.5-6.1 0.7-6.8 7.8-6.7 12.7 0.1 4.7 0.6 9.5 0.6 14.3 0.1 4.9-0.8 9.7-0.8 14.5-0.1 8.3 3.7 14.7 9.8 20z"
    />
    <path
        class="c"
        d="m178.6 344.5c1.9-4.4 4-8.5 6.6-12.6 3.6-5.5 7.6-10.9 10-17.1 2.5-6.3 2.1-13 2.4-19.7 0.2-4.9 1.6-9.7 1.2-14.6-0.2-2.4-1.5-6.2-4.6-5.8-2.3 0.3-3.7 3.2-4.7 5.1-1.5 3.3-2.6 6.8-3.8 10.2-0.5 1.3-0.9 2.7-1.5 4-0.3 0.7-1.4 2.6-2.4 2.3-1.8-0.4-0.2-7.5 0.1-8.7 1.3-6.3 3.2-12.1 3.5-18.6 0.4-9.3-0.4-20.5-9.5-25.6-2.4-1.3-5.4-2.1-7.7-0.1-2.3 1.9-2.9 5.4-3.2 8.2-1.1 8.6 1 16.8 3.8 24.9 2.2 6.8 5 13.7 5.2 20.9 0.2 6.9-3.4 13-5.1 19.5-2.7 10.5-2.2 16-2.2 19.3 0 4.3 0.2 8.4 0.5 12.7 0.3 3.8 0.6 7.7 1.1 11.5q0.1 1.2 0.3 2.5c-1.5-3.6-2.1-7.7-3.3-11.3-2.2-6.4-4.7-12.7-6.8-19.1-1.8-5.3-3.4-10.7-5.7-15.8-2.1-4.8-4.7-9.8-8.7-13.3-2.5-2.2-5.4-3.4-8.6-3.4-2.1 0-4 0.7-6 1.3-2.4 0.6-4.3 0.4-6.3-1.1-6.6-5.1-8.6-14.1-13.4-20.5-3.6-4.8-12.2-12.9-18.6-7.7-3.3 2.7-4.2 8.1-4.1 12.2 0.3 5.1 2.5 9.8 5.2 14 2.8 4.6 6.5 8.7 9.1 13.4 1.5 2.7 1.7 5.4 1.5 8.5-0.2 2.9-0.5 5.8 0.5 8.6 3 8.5 12.4 7.3 19.7 7.6 5.1 0.1 10.6 0.9 15.5 2.5 5.6 1.9 9.2 5.5 11.2 11.1 1.5 4 2.3 8.6 5 12 1.3 1.6 3 2.8 4.8 3.6 2.9 1.2 11.6 1.8 11.6 1 0.3-2.7 1.5-5.5 2.3-8 1.5-4.7 3.2-9.3 5.1-13.9z"
    />
    <path
        class="c"
        d="m219 342.9c-0.8-4.8-0.6-10.2-3-14.7-0.1-0.3-0.6-0.4-0.8-0.2-1.7 0.9-1.8 3.6-1.9 5.2-0.2 2.7-0.1 5.4-0.4 8.1-0.6 4.8-1.7 9.7-3.4 14.2-1.9 5-5.5 7.9-10.6 9.5-3.3 1-6.5 1.9-9.2 4.1-2.5 1.9-4.2 4.6-5.4 7.5-3.5 7.6-5.1 16.2-6.7 24.4-1 5.5-1.9 11-3.2 16.5-1.4 5.4-2.8 10.8-3.6 16.4q-0.2 0.4-0.4 0.8c-0.3 0.9 1 1.3 1.4 0.6 5.3-8.1 11.7-15.4 20.5-19.9 4-2 9.2-2.4 12.6-5.6 2.5-2.4 2.8-6.1 2.4-9.4-0.5-4.3-2.5-7.8-4.7-11.5-1.2-2-2.6-4.2-2.1-6.7 0.5-2.3 2.4-4 4.3-5.2 3.7-2.2 7.9-3.3 10.9-6.5 2.8-3.1 4.3-6.8 4.6-10.9 0.4-5.5-0.5-11.3-1.3-16.7z"
    />
    <path
        class="c"
        d="m147 371c-4.7-6-10.3-11.2-16.6-15.4-3.4-2.2-11.4-6.7-13 0-0.9 3.8 2.9 7.6 5.4 10.1 3.7 3.6 8 6.8 11.2 11-3.9 1.2-8 1.5-11.4 4.2-4 3.2-5.9 9.4-1.9 13.3 2 1.9 4.6 3.1 7 4.3 3.2 1.5 6.4 2.9 9.6 4.3 7 2.9 14.1 5.8 20 10.6 6.1 4.9 11.8 13.1 12.3 21 0 0.8-0.3 0.1 0.2-0.2 0.2 0.2 1.1-0.2 1-0.7-0.1-11.7-2.2-23-7-33.8-4.5-10-10.1-20-16.8-28.7z"
    />
    <path
        class="k"
        d="m130.9 261.3c2.5 5.3 5.2 10.5 8.1 15.7 2.7 5 5.5 10 7.5 15.3 2.6 6.6 5.2 13.1 7.9 19.6 2.8 6.8 5.3 13.7 7.2 20.8 3.9 13.7 6.8 27.9 8.3 42.1 0.7 7.3 1 14.5 0.8 21.8-0.1 5.7-0.8 11.3-1.3 17-0.6 5.9-1 11.8-0.5 17.7 0.4 5 1.2 10.8 5 14.3 0.8 0.7 1.9-0.1 1.4-1-4.5-9.3-4.3-19.5-3.4-29.6 0.5-5.6 1.1-11.2 1.3-16.8 0.3-7.1 0-14.3-0.7-21.4-1.3-14-4.1-27.8-7.7-41.3-1.9-7-4.1-13.8-6.8-20.5-2.6-6.7-5.7-13.2-8.3-19.9-4.6-12.2-11.7-23-17.9-34.3-0.4-0.6-1.2-0.1-0.9 0.5z"
    />
    <path
        class="k"
        d="m170.1 360.9c0.7-8.9 1.5-17.4 4.5-25.9 1.4-3.9 3.1-7.8 4.4-11.7 1.1-3.3 2.8-7.8 1.9-11.3-0.1-0.4-0.6-0.4-0.7 0-0.6 2-0.6 4.2-1 6.2q-0.6 3-1.5 5.9c-1.3 4.1-3 8-4.5 12-2.9 7.8-4.4 16.5-3.7 24.8 0 0.4 0.5 0.4 0.6 0z"
    />
    <path
        class="k"
        d="m118.7 309.9c3.5 8.5 14.1 9 21.8 10.9 5.5 1.4 9.5 5 12.5 9.8 3.2 5.2 5.3 11.3 7.1 17.2 0 0 0.1 0 0.1-0.1-2.2-10.2-5.2-22.4-15.8-27.2-8.4-3.8-19.5-1.9-24.9-11-0.2-0.4-1-0.1-0.8 0.4z"
    />
    <path
        class="k"
        d="m164.5 359.5c0.4 0.6 0.8 1.2 1.2 1.7q0.3 0.5 0.7 0.8c0.3 0.2 0.6 0.5 1 0.5 0.2 0 0.3-0.2 0.2-0.3-0.2-0.3-0.5-0.5-0.7-0.7q-0.4-0.3-0.8-0.7c-0.5-0.4-0.9-0.9-1.4-1.4-0.1-0.1-0.3 0-0.2 0.1z"
    />
    <path
        class="k"
        d="m142.5 386.5c6.1 5 11.7 10.9 16.1 17.4 2.1 3 4.1 6.3 5.9 9.6 1.9 3.6 3.2 7.4 4.7 11.2 0.1 0.3 0.7 0.3 0.6-0.1-0.8-8-5.9-14.8-9.9-21.5-2.1-3.4-4.8-6.2-7.6-9.1-2.9-3-5.9-5.8-9.3-8.2-0.4-0.3-0.9 0.4-0.5 0.7z"
    />
    <path
        class="k"
        d="m190.8 377.1c-2.9 1.7-3 6.3-3 9.2-0.1 5.7 1.3 11-1.2 16.4-2.3 4.9-5.9 9-8.7 13.5-2.6 4.2-5.2 9.7-5.2 14.8 0 0.3 0.5 0.4 0.6 0.1 1.1-2.3 1.5-4.9 2.2-7.4 0.9-2.7 2.1-5.2 3.6-7.6 2.7-4.2 6.1-8 8.3-12.5 2.3-4.8 2-9.5 1.8-14.7-0.1-3.3-0.4-8.6 2.2-11 0.5-0.4-0.1-1.1-0.6-0.8z"
    />
    <path
        class="e"
        d="m171.3 431.5c-11.8-0.2-34.2-0.3-34.2-0.3l5.5 41.2c1.3 9.3 9.2 16.2 18.5 16.2h9.7 1 9.6c9.4 0 17.3-6.9 18.6-16.2l5.5-41.2c0 0-22.4 0.1-34.2 0.3z"
    />
    <path class="l" d="m789.5 355.1l-67.7 134-197.3 1.5 60.9-137.4z" />
    <path
        class="m"
        d="m393.6 489.7v-10.7h127.7l58.8-128.9h204.2l5.2 5h-199.6l-61 134.5c0 0-135.3-0.2-135.3 0.1z"
    />
    <path
        class="m"
        d="m687 429.1c-2.2 6.7-14.3 11.8-27 11.5-12.7-0.3-21.2-6-18.9-12.7 2.2-6.7 14.3-11.8 27-11.5 12.7 0.3 21.2 6 18.9 12.7z"
    />
    <path
        class="e"
        d="m528.9 490.5q-0.2 0-0.4-0.1c-0.4-0.2-0.6-0.7-0.4-1.1l61.3-135.1h200.1c0.4 0 0.8 0.4 0.8 0.9 0 0.5-0.4 0.9-0.8 0.9h-199l-60.8 134c-0.2 0.3-0.5 0.5-0.8 0.5z"
    />
    <path class="n" d="m28.1 502.8h311.9v69.2h-311.9z" />
    <path class="o" d="m338.3 502.8h561.3v69.2h-561.3z" />
    <path class="p" d="m340 502.8h-1.7-310.2v12.7h310.2 1.7 559.6v-12.7z" />
    <path class="q" d="m13 489.2h340.7v16.9h-340.7z" />
    <path class="r" d="m351.9 489.2h561.3v16.9h-561.3z" />
    <path
        class="e"
        d="m206.2 111.3c0-6.1 5-11 11-11h96.6c6.1 0 11 4.9 11 11v48c0 6.1-4.9 11-11 11h-96.6c-6 0-11-4.9-11-11z"
    />
    <path class="e" d="m352.4 135.3l-36.4-15.4v30.7z" />
    <path
        class="f"
        d="m242.5 142c-3.7 0-6.7-3-6.7-6.7 0-3.7 3-6.7 6.7-6.7 3.7 0 6.7 3 6.7 6.7 0 3.7-3 6.7-6.7 6.7z"
    />
    <path
        class="f"
        d="m265.5 142c-3.7 0-6.7-3-6.7-6.7 0-3.7 3-6.7 6.7-6.7 3.7 0 6.7 3 6.7 6.7 0 3.7-3 6.7-6.7 6.7z"
    />
    <path
        class="f"
        d="m288.5 142c-3.7 0-6.7-3-6.7-6.7 0-3.7 3-6.7 6.7-6.7 3.7 0 6.7 3 6.7 6.7 0 3.7-3 6.7-6.7 6.7z"
    />
    <path
        class="c"
        d="m704.2 53h-145.3c-9.3 0-16.9 7.6-16.9 16.9v68.9c0 9.4 7.6 16.9 16.9 16.9h13c0.4 6.3-0.5 15.6-5.7 27.5 16.8-7.8 26.4-19.4 31.5-27.5h106.5c9.4 0 16.9-7.5 16.9-16.9v-68.9c0-9.3-7.5-16.9-16.9-16.9z"
    />
    <path
        class="e"
        d="m628 77.8h-53.6c-1.4 0-2.6-1.2-2.6-2.6 0-1.5 1.2-2.7 2.6-2.7h53.6c1.5 0 2.7 1.2 2.7 2.7 0 1.4-1.2 2.6-2.7 2.6z"
    />
    <path
        class="s"
        d="m668.2 93.2h-93c-0.9 0-1.6-0.8-1.6-1.7 0-0.9 0.7-1.6 1.6-1.6h93c0.9 0 1.6 0.7 1.6 1.6 0 0.9-0.7 1.7-1.6 1.7z"
    />
    <path
        class="s"
        d="m669.5 107.5h-92.9c-0.9 0-1.7-0.7-1.7-1.6 0-0.9 0.8-1.7 1.7-1.7h92.9c0.9 0 1.7 0.8 1.7 1.7 0 0.9-0.8 1.6-1.7 1.6z"
    />
    <path
        class="s"
        d="m651.4 123.6h-72.7c-0.9 0-1.6-0.7-1.6-1.6 0-0.9 0.7-1.6 1.6-1.6h72.7c0.9 0 1.6 0.7 1.6 1.6 0 0.9-0.7 1.6-1.6 1.6z"
    />
    <path
        class="e"
        d="m666.4 78h-25.5c-1.5 0-2.7-1.2-2.7-2.7 0-1.5 1.2-2.7 2.7-2.7h25.5c1.5 0 2.7 1.2 2.7 2.7 0 1.5-1.2 2.7-2.7 2.7z"
    />
</svg>